<?xml version="1.0" encoding="UTF-8"?>
<svg xmlns="http://www.w3.org/2000/svg" version="1.1" viewBox="0 0 864 864">
  <!-- Generator: Adobe Illustrator 30.1.0, SVG Export Plug-In . SVG Version: 2.1.1 Build 136)  -->
  <defs>
    <style>
      .st0, .st1, .st2 {
        fill: #aa182c;
      }

      .st3 {
        fill: #000104;
      }

      .st4, .st5, .st6, .st2 {
        fill-rule: evenodd;
      }

      .st4, .st7, .st8, .st9 {
        fill: #fff;
      }

      .st5 {
        fill: #fec214;
      }

      .st10 {
        fill: #231f20;
      }

      .st11 {
        fill: #ecdfd0;
      }

      .st12 {
        fill: #7e6f96;
      }

      .st12, .st13 {
        display: none;
      }

      .st14 {
        fill: none;
      }

      .st14, .st15, .st9 {
        font-family: JerseyM54, 'Jersey M54';
        font-size: 297.3px;
      }

      .st14, .st1 {
        stroke: #aa182c;
        stroke-miterlimit: 10;
      }

      .st16 {
        fill: #d6c8bf;
      }

      .st17 {
        fill: #f1f1f2;
      }

      .st18 {
        fill: #c7c8ca;
      }

      .st19 {
        fill: #808285;
      }

      .st20 {
        fill: #3b3b3c;
      }

      .st15 {
        fill: #0a2240;
      }

      .st21 {
        fill: #d6006d;
      }

      .st22 {
        fill: #4d5a31;
      }

      .st23 {
        fill: #eb80a8;
      }

      .st8 {
        font-family: Arial-BoldMT, Arial;
        font-size: 53.1px;
        font-weight: 700;
        letter-spacing: .2em;
      }

      .st24 {
        letter-spacing: 0em;
      }
    </style>
  </defs>
  <g id="Background_Colors">
    <g id="Military_Green" class="st13">
      <rect id="Team_Color__x28_change_as_needed_x29_" class="st22" x="1" width="863" height="864"/>
    </g>
    <g id="Bright_Pink" class="st13">
      <rect id="Team_Color__x28_change_as_needed_x29_1" data-name="Team_Color__x28_change_as_needed_x29_" class="st21" x="1" width="863" height="864"/>
    </g>
    <g id="Pink" class="st13">
      <rect id="Team_Color__x28_change_as_needed_x29_2" data-name="Team_Color__x28_change_as_needed_x29_" class="st23" x="1" width="863" height="864"/>
    </g>
    <g id="Natural" class="st13">
      <rect id="Team_Color__x28_change_as_needed_x29_3" data-name="Team_Color__x28_change_as_needed_x29_" class="st11" x="1" width="863" height="864"/>
    </g>
    <g id="Heather_Dust" class="st13">
      <rect id="Team_Color__x28_change_as_needed_x29_4" data-name="Team_Color__x28_change_as_needed_x29_" class="st16" x="1" width="863" height="864"/>
    </g>
    <g id="Grey__x28_Dark_x29__copy" class="st13">
      <rect id="Team_Color__x28_change_as_needed_x29_5" data-name="Team_Color__x28_change_as_needed_x29_" class="st20" x="1" width="863" height="864"/>
    </g>
    <g id="Grey__x28_Mid_x29_">
      <rect id="Team_Color__x28_change_as_needed_x29_6" data-name="Team_Color__x28_change_as_needed_x29_" class="st19" x="1" width="863" height="864"/>
    </g>
    <g id="Grey__x28_Light_x29_" class="st13">
      <rect id="Team_Color__x28_change_as_needed_x29_7" data-name="Team_Color__x28_change_as_needed_x29_" class="st18" x="1" width="863" height="864"/>
    </g>
    <g id="White" class="st13">
      <rect id="Team_Color__x28_change_as_needed_x29_8" data-name="Team_Color__x28_change_as_needed_x29_" class="st17" x="1" width="863" height="864"/>
    </g>
    <g id="Black" class="st13">
      <rect id="Team_Color__x28_change_as_needed_x29_9" data-name="Team_Color__x28_change_as_needed_x29_" class="st3" x="1" width="863" height="864"/>
      <rect id="Team_Color__x28_change_as_needed_x29_10" data-name="Team_Color__x28_change_as_needed_x29_" class="st3" x="1" width="863" height="864"/>
      <text/>
    </g>
    <rect id="Team_Color__x28_change_as_needed_x29_11" data-name="Team_Color__x28_change_as_needed_x29_" class="st12" x="1" width="863" height="864"/>
  </g>
  <g id="Lines">
    <g>
      <polygon class="st0" points="231.6 585.9 209 589.7 209 634.4 231.6 630.6 231.6 585.9"/>
      <polygon class="st0" points="193.6 592.3 172.8 595.8 172.8 640.4 193.6 636.9 193.6 592.3"/>
      <polygon class="st0" points="64.2 658.6 79.6 656.1 79.6 611.4 64.2 614 64.2 658.6"/>
      <polygon class="st0" points="117.6 605 100.4 607.9 100.4 652.6 117.6 649.7 117.6 605"/>
      <polygon class="st0" points="155.6 598.7 136.6 601.8 136.6 646.5 155.6 643.3 155.6 598.7"/>
      <polygon class="st0" points="307.6 573.2 281.4 577.6 281.4 622.2 307.6 617.8 307.6 573.2"/>
      <polygon class="st0" points="269.6 579.5 245.2 583.6 245.2 628.3 269.6 624.2 269.6 579.5"/>
      <polygon class="st0" points="459.7 547.7 426.2 553.3 426.2 598 459.7 592.3 459.7 547.7"/>
      <polygon class="st0" points="41.6 617.8 30.2 619.7 30.2 664.3 41.6 662.4 41.6 617.8"/>
      <polygon class="st0" points="462.4 547.2 462.4 591.9 839.7 528.7 839.7 484 462.4 547.2"/>
      <polygon class="st0" points="383.7 560.4 353.8 565.4 353.8 610.1 383.7 605.1 383.7 560.4"/>
      <polygon class="st0" points="421.7 554.1 390 559.4 390 604 421.7 598.7 421.7 554.1"/>
      <polygon class="st0" points="345.7 566.8 317.6 571.5 317.6 616.2 345.7 611.5 345.7 566.8"/>
    </g>
    <g>
      <polygon class="st1" points="230.5 526.3 207.9 530.1 207.9 574.8 230.5 571 230.5 526.3"/>
      <polygon class="st1" points="192.5 532.7 171.7 536.2 171.7 580.8 192.5 577.4 192.5 532.7"/>
      <polygon class="st1" points="63.1 599 78.4 596.5 78.4 551.8 63.1 554.4 63.1 599"/>
      <polygon class="st1" points="116.4 545.4 99.3 548.3 99.3 593 116.4 590.1 116.4 545.4"/>
      <polygon class="st1" points="154.5 539.1 135.5 542.3 135.5 586.9 154.5 583.7 154.5 539.1"/>
      <polygon class="st1" points="306.5 513.6 280.3 518 280.3 562.6 306.5 558.3 306.5 513.6"/>
      <polygon class="st1" points="268.5 520 244.1 524.1 244.1 568.7 268.5 564.6 268.5 520"/>
      <polygon class="st1" points="458.6 488.1 425.1 493.7 425.1 538.4 458.6 532.8 458.6 488.1"/>
      <polygon class="st1" points="40.4 558.2 29.1 560.1 29.1 604.7 40.4 602.8 40.4 558.2"/>
      <polygon class="st1" points="461.3 487.6 461.3 532.3 838.6 469.1 838.6 424.4 461.3 487.6"/>
      <polygon class="st1" points="382.5 500.8 352.7 505.9 352.7 550.5 382.5 545.5 382.5 500.8"/>
      <polygon class="st1" points="420.6 494.5 388.9 499.8 388.9 544.4 420.6 539.1 420.6 494.5"/>
      <polygon class="st1" points="344.5 507.2 316.5 511.9 316.5 556.6 344.5 551.9 344.5 507.2"/>
    </g>
    <g>
      <polygon class="st7" points="232.8 466.2 210.2 470 210.2 514.6 232.8 510.8 232.8 466.2"/>
      <polygon class="st7" points="194.7 472.6 174 476 174 520.7 194.7 517.2 194.7 472.6"/>
      <polygon class="st7" points="65.4 538.9 80.7 536.3 80.7 491.7 65.4 494.2 65.4 538.9"/>
      <polygon class="st7" points="118.7 485.3 101.6 488.2 101.6 532.8 118.7 530 118.7 485.3"/>
      <polygon class="st7" points="156.7 478.9 137.8 482.1 137.8 526.8 156.7 523.6 156.7 478.9"/>
      <polygon class="st7" points="308.8 453.4 282.6 457.8 282.6 502.5 308.8 498.1 308.8 453.4"/>
      <polygon class="st7" points="270.8 459.8 246.4 463.9 246.4 508.6 270.8 504.5 270.8 459.8"/>
      <polygon class="st7" points="460.8 428 427.4 433.6 427.4 478.2 460.8 472.6 460.8 428"/>
      <polygon class="st7" points="42.7 498 31.3 499.9 31.3 544.6 42.7 542.7 42.7 498"/>
      <polygon class="st7" points="463.6 427.5 463.6 472.2 840.9 408.9 840.9 364.3 463.6 427.5"/>
      <polygon class="st7" points="384.8 440.7 355 445.7 355 490.4 384.8 485.4 384.8 440.7"/>
      <polygon class="st7" points="422.8 434.3 391.2 439.6 391.2 484.3 422.8 479 422.8 434.3"/>
      <polygon class="st7" points="346.8 447.1 318.8 451.8 318.8 496.4 346.8 491.7 346.8 447.1"/>
    </g>
  </g>
  <g id="Logo">
    <g>
      <path class="st7" d="M563.5,541.7c-20-17.7-35.7-39.7-44.9-62.9l7.3,2.3c-8.2-11.4-15-23.1-20.4-35.1,3,1,4.9,1.6,7.9,2.6-6.6-16.7-10-26.2-12.2-44.4,11.7,8,21.6,14.2,31.4,19.7,22.6,12.7,45.7,22.6,82,32.3,1.2.3,2.5.5,3.7.8,37,7.7,69.9,10.6,95.4,24.7,31.7,15.7,58.1,38.7,64.2,84.4,21.1,21.2,28.4,43.5,27,70.2-40.9-7.5-71.5,12.7-93.8,53.3-34.3-36.2-69-55.1-104-61,.5-11.3-4.8-21.8-16.7-33.6-14.4-14.5-23.8-33-26.8-53.2h0Z"/>
      <g>
        <path class="st6" d="M573.1,539.1c-16.9-17.3-27.4-29.6-36.8-49.9l11.8,3.4c-6.1-5.3-10.9-11.1-15-17.2-4.5-6.5-8-12.6-11.2-18.5,2.7.9,7.6,2.1,10.3,3-5.1-4.4-20-37-17.3-37.9,10.7,7.3,25.1,14,34.1,18.8,25.2,13.4,60.2,22.9,75.4,24.8,1.1.1,2.1.5,3.3.7,15,2.3,29.3,4.5,42.6,7.2.7.1,1.4.2,2.1.4,20.2,5.2,39.9,12,56.7,23.4.6.4,1.1.8,1.7,1.2,22.2,14.9,38.7,36.9,42.7,71,17.8,19.6,26.8,36.1,26.8,60.2-35-3.8-70.3,12.2-89.7,48.9-32.5-32-62.5-49.2-93.4-55.5-.9-10.9-5.7-19-15.3-29.2-13.1-13.2-26.1-36.5-28.8-54.9h0Z"/>
        <path class="st10" d="M710.8,680.2l-.8-.8c-31.8-31.3-61.3-48.8-93-55.3h-.6c0-.1,0-.8,0-.8-.9-10.1-4.9-17.8-15-28.7-13.9-14-26.3-37.6-29-55.1-17.6-18-27.6-30.1-36.8-49.9l-.8-1.7,10,2.9c-4.4-4.2-8.5-9-12.4-14.8-4-5.7-7.5-11.6-11.2-18.5l-1-1.9,2,.7c1.4.4,3.3,1,5.1,1.5.8.2,1.6.5,2.4.7-5.9-8.3-16.7-32.1-15.9-36,.1-.7.6-1,.9-1.1h.4c0-.1.3.1.3.1,8,5.4,18.2,10.6,26.4,14.8,2.8,1.4,5.4,2.8,7.7,4,24.6,13.1,59.4,22.8,75.1,24.8.6,0,1.2.2,1.8.4.5.1,1,.2,1.5.3,14.1,2.1,29,4.4,42.7,7.2h.7c.5.2,1,.3,1.5.4,16.8,4.4,38.5,11,56.9,23.5l.8.6c.3.2.6.4.9.6,25.3,17,39.4,40.4,43.1,71.4,16.6,18.3,26.9,34.9,26.8,60.6v1h-.9c-37.4-4.1-70.6,14-88.9,48.3l-.5,1ZM618,622.6c31.5,6.6,60.9,24,92.4,54.8,18.5-34,51.7-52.1,89.1-48.4-.2-24.7-10.3-40.8-26.5-58.7l-.2-.2v-.3c-3.6-30.6-17.5-53.6-42.4-70.4-.3-.2-.6-.4-.9-.6l-.8-.6c-18.2-12.4-39.7-18.9-56.4-23.3-.5-.1-.9-.2-1.4-.3h-.7c-13.6-2.8-28.5-5.2-42.6-7.3-.6,0-1.1-.2-1.6-.4-.5-.1-1.1-.3-1.6-.3-15.8-2-51-11.8-75.7-24.9-2.3-1.2-4.9-2.5-7.6-4-7.9-4-17.6-9-25.5-14.2.8,5.6,12.8,31.9,17.3,35.8l3.2,2.8-4-1.3c-1.4-.4-3.2-1-5.1-1.5-1.1-.3-2.2-.6-3.2-.9,3.3,6.1,6.6,11.4,10.1,16.5,4.7,6.9,9.4,12.3,14.9,17l2.9,2.6-13.7-3.9c8.9,18.7,18.8,30.5,35.8,48l.2.2v.3c2.6,17.2,14.9,40.6,28.6,54.5,10.2,11,14.4,18.9,15.5,29.1Z"/>
      </g>
      <g>
        <path class="st5" d="M732.4,606.5c4.4,8.7,6.2,18.2,4.2,28.9,19.6-9.8,38.5-13.7,57.1-11.2-15.3-12.3-41.3-19.6-61.2-17.8h0Z"/>
        <path class="st10" d="M735.4,637l.3-1.7c1.9-9.9.6-19.2-4.1-28.4l-.6-1.1h1.3c20.5-2,46.5,5.5,61.9,17.8l2.4,1.9-3.1-.4c-18.2-2.5-36.7,1.1-56.6,11.1l-1.6.8ZM733.7,607.2c4.1,8.6,5.4,17.4,4,26.7,18.5-9,35.8-12.6,52.9-10.9-14.9-10.7-38.1-17.2-56.9-15.8Z"/>
      </g>
      <g>
        <path class="st5" d="M764.7,574.1c-5.6,12.9-25.8,20.7-30.4,21.8,16.8,3.3,37.2,5.7,60.5,24.9.2-6.6-5.2-18.2-13-29.2,0,0-.1-.1-.2-.2-4.9-6.3-10.8-12.3-17-17.2h0Z"/>
        <path class="st10" d="M795.6,622.5l-1.3-1.1c-21-17.3-39.2-20.7-55.3-23.8-1.6-.3-3.2-.6-4.8-.9l-3.7-.7,3.7-.9c3.8-1,24.3-8.5,29.8-21.3l.4-1,.9.7c6.3,5,12.2,11,17.2,17.4,0,.1.1.2.2.3,8.3,11.8,13.3,23.2,13.1,29.7v1.7ZM737.8,595.7c.5,0,1,.2,1.5.3,15.1,2.9,33.9,6.4,54.6,22.9-.7-6.3-5.5-16.6-12.8-26.9l.5-.7-.7.5c-4.6-6-10.2-11.7-16-16.4-5.3,10.7-19.9,17.6-27.2,20.2Z"/>
      </g>
      <g>
        <path class="st4" d="M694.1,536.2c9,9.9,14.6,16.5,27.5,25l-11.3-.4c3.3,11.9,9.6,16.6,17,17.5.4,0,.8,0,1.2,0,5.5,0,10.2-4.7,13.6-9.5h4.9c-3.7,9-9.9,14-18.1,15.1-.5,0-1,0-1.5,0-3,0-6.2-.5-9.7-1.8-5.6-2-12.2-8.3-15.5-13.1-6.4-10-8.7-21.5-8.1-33h0Z"/>
        <path class="st10" d="M727.1,585c-2.9,0-6.1-.6-9.6-1.8-5.7-2-12.5-8.4-16-13.5-6.1-9.6-8.9-20.8-8.3-33.5v-2.1c.1,0,3.2,3.4,3.2,3.4,7.9,8.7,13.6,15.1,25.6,23l2.5,1.7-13.2-.5c2.9,9.7,8.2,14.8,15.9,15.8.4,0,.7,0,1.1,0,4.2,0,8.5-3.1,12.9-9.1l.3-.4,6.6.2-.5,1.2c-3.8,9.1-10.1,14.3-18.8,15.5-.5,0-1,0-1.6,0-.1,0-.3,0-.4,0ZM694.9,538.3c-.2,11.5,2.5,21.7,8.1,30.4,3.3,4.8,9.7,10.9,15.1,12.8,3.5,1.2,6.6,1.8,9.4,1.7.5,0,.9,0,1.4,0,7.7-1,13.4-5.5,16.9-13.3h-3.2c-4.6,6.2-9.3,9.4-14,9.4-.4,0-.9,0-1.3,0-8.7-1.1-14.7-7.2-17.7-18.2l-.3-1.1,9.5.4c-10.5-7.3-16-13.4-23.5-21.6l-.3-.3Z"/>
      </g>
      <g>
        <path class="st2" d="M629.9,611.5c19.6,8,37.1,17.3,50.2,29.4,45.5-24.8-15.4-107.9-34.5-132.2,22.7.5,43.8,7.7,63.3,23.7,8.6,6.9,15.9,16.5,25.5,22.9.4.3,1.3,1,1.7,1.3,7.3,5.1,16.3,7.1,27.9,5.4-3.8-34.9-30.3-54.8-62.1-69.9-18.4-6.4-38.9-10.8-61.9-13-43.2-6.8-74.5-16.8-105.4-36.4,5.2,14.8,26.1,30.8,52.3,47.4-13.9-4.5-26.8-8.7-38.2-12.8h-1.3c5.6,10,24.2,24.1,52.2,40l-35.7-11.5-1.7-.5c9.7,15.3,25.8,29.6,50.3,43.3-7-.2-14.1-.7-21.1-1.4.5,7.2,5.9,17.6,18.4,33,9.6,11.4,19,21.1,20.2,31.4h0Z"/>
        <path class="st10" d="M680.1,641.9l-.5-.4c-11.7-10.7-27.6-20-50-29.2l-.5-.2v-.5c-1.1-8.7-8.3-17.2-16.7-26.9-1.1-1.3-2.3-2.6-3.4-4-12-14.7-18.1-25.6-18.6-33.5v-1c0,0,.9,0,.9,0,5.9.6,11.8,1,17.6,1.2-22.2-12.8-37.8-26.5-47.5-41.8l-1.3-2,3.9,1.2,28.1,9c-24.3-14.4-40.4-27.1-45.6-36.2l-.7-1.2,2.9-.2h.2c10,3.6,21.1,7.3,31.9,10.8-28.2-18.4-42.8-32.1-47.1-44.3l-.8-2.3,2.1,1.3c29.4,18.6,59.9,29.1,105.1,36.2,22.5,2.1,43.4,6.5,62.1,13,27,12.9,58.5,32.5,62.6,70.6v.8c0,0-.7.1-.7.1-11.5,1.7-20.8-.2-28.5-5.6-.2-.1-.4-.3-.7-.5-.4-.3-.8-.6-1-.7-5.6-3.8-10.5-8.6-15.3-13.3-3.5-3.5-6.7-6.7-10.3-9.6-18.1-14.9-38.1-22.6-61-23.5,18,23.1,56.2,76.9,49.3,110.6-1.9,9.5-7.4,16.7-16.2,21.5l-.5.3ZM630.7,610.9c22.1,9.1,37.9,18.3,49.6,28.9,8-4.5,13-11.3,14.8-20.1,2.3-11.2,2-44.5-50.1-110.6l-1.1-1.4h1.8c24,.6,44.9,8.4,63.9,24,3.6,2.9,7.1,6.3,10.4,9.7,4.7,4.6,9.5,9.5,15,13.1.3.2.7.5,1.1.8l.7.5c7.1,5,15.7,6.8,26.4,5.4-4.4-36.8-35.1-55.8-61.5-68.4-18.4-6.4-39.2-10.8-61.6-12.9-44.4-7-74.6-17.2-103.6-35.1,7.1,15.4,30.8,31.8,51,44.5l5.7,3.6-6.4-2.1c-12.6-4.1-25.9-8.4-37.7-12.6,6.4,9.6,24.3,23.1,51,38.3l7.3,4.1-43-13.8c10.1,14.9,26.1,28.3,48.6,41l3.1,1.7h-3.5c-6.6-.3-13.3-.7-20.1-1.4,1,7.4,6.9,17.7,18.1,31.5,1.1,1.3,2.3,2.7,3.4,4,8.4,9.8,15.6,18.2,16.9,27.3Z"/>
      </g>
    </g>
  </g>
  <g id="Text">
    <g>
      <text class="st14" transform="translate(23.1 459) rotate(-9.7) scale(.7 1) skewX(-12.2)"><tspan x="0" y="0">CAR</tspan><tspan class="st24" x="476.5" y="0">DI</tspan><tspan x="698.6" y="0">NAL</tspan></text>
      <text class="st15" transform="translate(23.1 459) rotate(-9.7) scale(.7 1) skewX(-12.2)"><tspan x="0" y="0">CAR</tspan><tspan class="st24" x="476.5" y="0">DI</tspan><tspan x="698.6" y="0">NAL</tspan></text>
      <text class="st9" transform="translate(23.1 459) rotate(-9.7) scale(.7 1) skewX(-12.2)"><tspan x="0" y="0">CAR</tspan><tspan class="st24" x="476.5" y="0">DI</tspan><tspan x="698.6" y="0">NAL</tspan></text>
    </g>
    <text class="st8" transform="translate(45.2 732.2) rotate(-9.4) scale(1.2 1) skewX(-6.7)"><tspan x="0" y="0">WRESTLING</tspan></text>
  </g>
</svg>