<?xml version="1.0" encoding="UTF-8"?>
<svg xmlns="http://www.w3.org/2000/svg" version="1.1" viewBox="0 0 864 864">
  <!-- Generator: Adobe Illustrator 30.1.0, SVG Export Plug-In . SVG Version: 2.1.1 Build 136)  -->
  <defs>
    <style>
      .st0 {
        fill: #000104;
      }

      .st1 {
        fill: #cfc393;
        font-family: Evogria, Evogria;
        font-size: 72.4px;
        letter-spacing: .7em;
      }

      .st1, .st2 {
        isolation: isolate;
      }

      .st3 {
        fill: #eb80a8;
      }

      .st4 {
        fill: #ecdfd0;
      }

      .st5 {
        fill: none;
        stroke: #f97fb5;
        stroke-miterlimit: 10;
        stroke-width: 6px;
      }

      .st5, .st6 {
        font-family: Impact, Impact;
        font-size: 278.9px;
        letter-spacing: 0em;
      }

      .st7 {
        fill: #c7c8ca;
      }

      .st8 {
        fill: #d6c8bf;
      }

      .st9 {
        fill: #fff;
      }

      .st10 {
        fill: #f1f1f2;
      }

      .st11 {
        fill: #3b3b3c;
      }

      .st12 {
        fill: #808285;
      }

      .st13 {
        fill: #ffcd00;
      }

      .st6 {
        fill: #9ed9dd;
      }

      .st14 {
        fill: #d6006d;
      }

      .st15 {
        fill: #ff8300;
      }

      .st16 {
        display: none;
      }

      .st17 {
        fill: #4d5a31;
      }
    </style>
  </defs>
  <g id="ACCENT">
    <rect class="st13" x="14" y="449.7" width="836" height="9"/>
    <g>
      <rect class="st13" x="14" y="543" width="836" height="17.3"/>
      <polygon class="st13" points="511.7 572.6 352.3 572.6 65.7 579.3 352.3 586 511.7 586 798.3 579.3 511.7 572.6"/>
    </g>
    <g>
      <rect class="st13" x="14" y="168.6" width="836" height="17.3"/>
      <polygon class="st13" points="352.3 158.3 511.7 158.3 798.3 151.7 511.7 145 352.3 145 65.7 151.7 352.3 158.3"/>
    </g>
  </g>
  <g id="TEXT_2">
    <g class="st2">
      <text class="st1" transform="translate(23.5 530.8)"><tspan x="0" y="0">WRESTLING</tspan></text>
    </g>
  </g>
  <g id="Text_1_outline">
    <text class="st5" transform="translate(14 424.7) scale(.9 1)"><tspan x="0" y="0">HARLEM</tspan></text>
  </g>
  <g id="TEXT_1">
    <text class="st6" transform="translate(14 424.7) scale(.9 1)"><tspan x="0" y="0">HARLEM</tspan></text>
  </g>
  <g id="LOGO">
    <g id="Military_Green" class="st16">
      <rect id="Team_Color__x28_change_as_needed_x29_" class="st17" x="1" y="0" width="863" height="864"/>
    </g>
    <g id="Bright_Pink" class="st16">
      <rect id="Team_Color__x28_change_as_needed_x29_1" class="st14" x="1" y="0" width="863" height="864"/>
    </g>
    <g id="Pink" class="st16">
      <rect id="Team_Color__x28_change_as_needed_x29_2" class="st3" x="1" y="0" width="863" height="864"/>
    </g>
    <g id="Natural" class="st16">
      <rect id="Team_Color__x28_change_as_needed_x29_3" class="st4" x="1" y="0" width="863" height="864"/>
    </g>
    <g id="Heather_Dust" class="st16">
      <rect id="Team_Color__x28_change_as_needed_x29_4" class="st8" x="1" y="0" width="863" height="864"/>
    </g>
    <g id="Grey__x28_Dark_x29__copy" class="st16">
      <rect id="Team_Color__x28_change_as_needed_x29_5" class="st11" x="1" y="0" width="863" height="864"/>
    </g>
    <g id="Grey__x28_Mid_x29_" class="st16">
      <rect id="Team_Color__x28_change_as_needed_x29_6" class="st12" x="1" y="0" width="863" height="864"/>
    </g>
    <g id="Grey__x28_Light_x29_" class="st16">
      <rect id="Team_Color__x28_change_as_needed_x29_7" class="st7" x="1" y="0" width="863" height="864"/>
    </g>
    <g id="White" class="st16">
      <rect id="Team_Color__x28_change_as_needed_x29_8" class="st10" x="1" y="0" width="863" height="864"/>
    </g>
    <g id="Black" class="st16">
      <rect id="Team_Color__x28_change_as_needed_x29_9" class="st0" x="1" y="0" width="863" height="864"/>
      <rect id="Team_Color__x28_change_as_needed_x29_10" class="st0" x="1" y="0" width="863" height="864"/>
    </g>
    <g>
      <g>
        <path class="st9" d="M398.8,78.9s5.8-4.6,6.2-4.7,1.1-.4,1.7.2,3.5,5.3,3.7,5.8,3.3,5.3,3.3,5.3l6,11.4s3.1,3.2,6.6,3.2,11.7.4,12.4.2,5.3-3,5.5-3.3,3.5-7.3,3.5-7.3c0,0,4.7-11.1,4.9-11.4s4-4.3,4-4.3c0,0,3.7.6,4.1,1.1s1.8,2,1.8,2l4.4,7.6,4,11.7.5,5-.5,9.2-2.4,9s-.4,2.5.4,3.4,6.5,8.3,6.5,8.3l.7,8.4.5,8.9-2.7,13.2-2.9,3.9-13.2,13.5-4,4.7s-1.2,2.1-1.4,2.5-4,4.4-4,4.4c0,0-4.6,3-5.1,3.2s-7.7,2.3-8.3,2.4-3.1.5-3.6.5-9.7-2.7-9.7-2.7l-4.8-2.6-8.6-9.9-13.9-14.7-6.5-12.3s1.5-16,2.4-17.7,4.3-15.3,4.4-15.6-.4-6.9-.6-7.6-1.8-9.5-1.8-9.5c0,0,.8-8.1.9-8.4s1.3-5.8,1.9-6.8,2.5-6,2.8-6.7.9-3.5.9-3.5h0Z"/>
        <path class="st15" d="M431.4,199.4c-.4,0-.9,0-10.4-2.8-.2,0-.3-.1-.5-.2l-4.8-2.6c-.3-.1-.5-.3-.7-.6l-8.6-9.9-13.9-14.7c-.2-.2-.3-.3-.4-.5l-6.5-12.3c-.2-.4-.3-.9-.3-1.4.7-7.5,1.7-16.9,2.7-18.6.3-.6,1.2-3.5,3.8-13.7.1-.5.2-.8.3-1.1,0-1.2-.4-5.8-.5-6.6-.2-1-1.2-6.4-1.8-9.7,0-.2,0-.5,0-.7.8-8.4.9-8.6,1-8.9,0,0,0-.3.1-.6,1-4.2,1.5-5.8,2-6.7.4-.6,1.6-3.9,2.1-5.1.2-.6.4-1.1.5-1.3.1-.3.5-1.9.8-3,.1-.6.4-1.1.9-1.4,6.2-4.9,6.6-5,7.1-5.2,1.7-.5,3-.2,4.1.9.8.8,3.7,5.5,4.2,6.5h0c.2.4,1.8,2.9,3.1,5,0,0,0,.1.1.2l5.8,11c.8.8,2.8,2.2,4.6,2.2s3.7,0,5.9.1c2.1,0,4.9.2,5.9.1.9-.4,3.2-1.9,4.2-2.5.6-1.2,2.1-4.4,3.2-6.7,4.8-11.2,4.9-11.5,5.1-11.7.1-.2.3-.5,4.3-4.6.6-.6,1.4-.9,2.2-.7,4.6.8,5.2,1.5,5.7,2,.2.3,1.1,1.3,1.7,1.9.1.1.2.3.3.5l4.4,7.6c0,.1.1.3.2.4l4,11.7c0,.2.1.4.1.6l.5,5c0,.1,0,.3,0,.4l-.5,9.2c0,.2,0,.3,0,.5l-2.4,8.9c0,.5,0,1.1,0,1.4,1.2,1.4,5.5,7.1,6.4,8.2.3.4.5.8.5,1.3l.7,8.4.5,9c0,.2,0,.4,0,.6l-2.7,13.2c0,.4-.2.7-.4,1l-2.9,3.9c0,0-.1.2-.2.3l-13.1,13.4-3.8,4.5c-.5.9-1.1,2-1.2,2.2-.2.3-.4.7-4.4,5-.1.1-.3.3-.4.4-4.8,3.1-5.3,3.3-5.5,3.4-.6.3-8,2.4-8.8,2.5-.8.1-3.3.5-4,.5ZM422.7,191.9c3.7,1.1,7.8,2.3,8.9,2.5.6,0,2.1-.3,3-.5.7-.2,6.7-1.9,7.7-2.2.6-.3,2.7-1.6,4.5-2.8,1.4-1.5,3.1-3.3,3.5-3.8.3-.6,1.1-2,1.4-2.4,0-.1.2-.3.3-.4l4-4.7s0,0,.1-.1l13.1-13.4,2.5-3.3,2.5-12.3-.5-8.6-.6-7.6c-2.2-2.9-5.4-7-5.9-7.6-1.4-1.6-1.2-4.4-1-5.5,0,0,0-.2,0-.2l2.3-8.8.5-8.7-.5-4.5-3.8-11.2-4.1-7.1c-.3-.4-.9-1-1.4-1.5-.4-.1-1-.3-1.6-.4-1.2,1.3-2.3,2.5-2.8,3-.6,1.3-3.1,7.3-4.7,11-3.4,7.3-3.6,7.5-3.7,7.7-.8,1.1-6.2,4.1-6.9,4.3-.7.2-1.6.2-7.4,0-2.1,0-4.3-.1-5.7-.1-4.4,0-8-3.6-8.4-4-.2-.2-.3-.4-.4-.6l-5.9-11.3c-2.9-4.5-3.3-5.3-3.4-5.6-.3-.6-1.8-3-2.7-4.3-1,.7-2.7,2.1-4.4,3.4-.3,1.1-.6,2.5-.9,3.1,0,.2-.2.6-.5,1.2-1.3,3.2-2,5.1-2.5,5.8-.1.3-.5,1.5-1.4,5.2,0,.3-.1.6-.2.8,0,.6-.5,4.3-.8,7.8.6,3.5,1.5,8.4,1.7,8.9,0,.3,1,7.8.6,9,0,0-.1.5-.3,1.2-2.7,10.6-3.7,13.7-4.2,14.7-.5,1.4-1.4,9.2-2.1,16.1l6,11.3,13.7,14.5s0,0,0,0l8.3,9.6,4.2,2.3ZM450.2,185.2s0,0,0,0c0,0,0,0,0,0ZM392.5,138.1s0,0,0,0c0,0,0,0,0,0ZM392.3,120.6c0,0,0,.2,0,.2,0-.1,0-.2,0-.2ZM459.4,77.2h0Z"/>
      </g>
      <g>
        <path class="st7" d="M399.8,136.7s-2.8,1.6-3.2,2.7c0,0,1-.7,1.8-.5,0,0-3,4.3-2.7,7.5,0,0,1.4-1.2,2.5-1.5,0,0-1.8,6-.9,8.7l1-1.4s1.5,7.4,5.1,9.6c0,0-1.2-6.7-3-12,0,0,12.6,12,14.7,27.1v4l3.8,4.7s2.8.4,4.2-.2c0,0-3.6-5.7-2.2-9l4.2-.5s3.5-1,3.7-1.1,2.8,0,2.8,0l1.5,3.5v2.7l1.8,3.7,1.4,3,.4,1,4,2s-2.5,3.4-3,3.5-14.9-.2-16.4-.6-7.1-1.4-7.1-1.4c0,0-5-9.6-6-10.7s-16.2-18.4-17.1-19.8-3.6-13.2-3.6-14.3,0-5.2.3-6.1.6-2.6,1.2-3.7.8-1.8,1.4-2.2,5-.6,5-.6c0,0,3.1-.2,3.4,0s.9,2,.9,2h.1Z"/>
        <path class="st15" d="M436.4,196.7c-4.2,0-14.2-.3-15.7-.7-1.1-.3-5.4-1.1-6.9-1.4-.8-.1-1.4-.6-1.8-1.3-2.2-4.3-5.1-9.4-5.7-10.2-.1-.1-16.2-18.3-17.3-20.1-1.3-2-4-14.5-4-15.7,0-5.2.2-6.3.4-6.9,0-.2.2-.5.2-.9.3-1,.6-2.2,1.1-3.2.1-.3.3-.5.4-.7.4-.8.8-1.7,1.8-2.4.5-.3,1.2-.8,6.3-1,3.7-.2,4.3,0,4.9.4.5.3.9.7,1.6,2.4,0,0,0,0,0,0,.8,1,.7,2.4-.2,3.3h-.1c-.2.3-.4.4-.6.5,0,.5-.2.9-.4,1.3-.4.6-.9,1.4-1.3,2.3.3.1.6.3.8.6.6.6.9,1.6.6,2.5-.2.5-.3,1.1-.4,1.7.7,0,1.4.2,2,.7.5.5,13.3,12.8,15.5,28.6,0,.1,0,.2,0,.3v3.1l.9,1.1c-.5-1.9-.7-3.9.1-5.7.4-.8,1.1-1.4,2-1.5l4-.5c1.3-.4,2.8-.8,3.2-.9.5-.2,1.1-.3,3.9-.2,1,0,1.8.6,2.2,1.5l1.5,3.5c.1.3.2.6.2,1v2.1l1.5,3.2,1.4,3s0,0,0,.1h0c0,.1,3.2,1.7,3.2,1.7.7.3,1.1.9,1.3,1.6s0,1.5-.4,2.1c-3.1,4.2-3.7,4.3-4.5,4.5-.2,0-.8,0-1.8,0ZM415.8,190c1.8.3,4.9.9,6.1,1.2,1.4.3,11.7.5,14.8.5,0,0,0-.1.1-.2l-1.3-.6c-.5-.3-1-.7-1.2-1.3l-.4-.9-1.4-2.9-1.8-3.7c-.2-.3-.3-.7-.3-1.1v-2.2l-.7-1.6c-.2,0-.4,0-.6,0-.5.2-1.5.5-3.6,1-.1,0-.3,0-.4,0l-2.3.3c.2,1.6,1.2,3.9,2.1,5.4.4.6.5,1.4.3,2.1s-.7,1.3-1.4,1.6c-1.9.8-4.7.5-5.5.4-.6,0-1.2-.4-1.6-.9l-3.8-4.7c-.4-.4-.6-1-.6-1.6v-3.8c-.9-6.5-4-12.4-7-16.9.1.7.2,1.1.2,1.2.2,1-.2,1.9-1,2.5-.8.6-1.9.6-2.7,0-2.7-1.7-4.4-5.2-5.3-7.9-.9-.2-1.6-.8-1.9-1.7-.5-1.6-.4-3.7-.1-5.7,0,0,0,0,0,0-.9-.4-1.5-1.2-1.5-2.1-.2-2,.5-4.2,1.3-5.9-.4-.6-.5-1.4-.3-2.2.2-.4.4-.8.7-1.2-1.3,0-2.5.2-3.2.3,0,0-.1.2-.2.3-.1.3-.3.6-.5.9-.3.5-.5,1.4-.7,2.1-.1.5-.2.9-.3,1.2,0,0-.2,1-.2,5.2.2,1.6,2.5,11.5,3.2,13,1.3,1.8,15.4,17.9,16.8,19.4,1,1.1,3.8,6.4,5.8,10.1ZM398.8,140.5h0,0ZM391.4,137.7h0ZM392,137.3h0Z"/>
      </g>
      <g>
        <path class="st7" d="M464.1,136.7s2.8,1.6,3.2,2.7c0,0-1-.7-1.8-.5,0,0,3,4.3,2.7,7.5,0,0-1.4-1.2-2.5-1.5,0,0,1.8,6,.9,8.7l-1-1.4s-1.5,7.4-5.1,9.6c0,0,1.2-6.7,3-12,0,0-12.6,12-14.7,27.1v4l-3.8,4.7s-2.8.4-4.2-.2c0,0,3.6-5.7,2.2-9l-4.2-.5s-3.5-1-3.7-1.1-2.8,0-2.8,0l-1.5,3.5v2.7l-1.8,3.7-1.4,3-.4,1-4,2s2.5,3.4,3,3.5,14.9-.2,16.4-.6,7.1-1.4,7.1-1.4c0,0,5-9.6,6-10.7s16.2-18.4,17.1-19.8,3.6-13.2,3.6-14.3,0-5.2-.3-6.1-.6-2.6-1.2-3.7-.8-1.8-1.4-2.2-5-.6-5-.6c0,0-3.1-.2-3.4,0s-.9,2-.9,2h-.1Z"/>
        <path class="st15" d="M427.5,196.7c-1,0-1.6,0-1.8,0-.8-.2-1.4-.3-4.5-4.5-.4-.6-.6-1.4-.4-2.1.2-.7.7-1.3,1.3-1.6l3.1-1.6h0c0-.2,0-.2,0-.2l1.4-3,1.6-3.2v-2.1c0-.3,0-.7.2-1l1.5-3.5c.4-.9,1.2-1.5,2.2-1.5,2.8-.1,3.4,0,3.9.2.4.1,1.9.6,3.2.9l4,.5c.9.1,1.7.7,2,1.5.8,1.8.6,3.8.1,5.7l.9-1.1v-3.1c0-.1,0-.2,0-.3,2.2-15.8,14.9-28.1,15.5-28.6.5-.5,1.3-.7,2-.7-.1-.6-.3-1.2-.4-1.7-.3-.9,0-1.8.6-2.5.2-.2.5-.4.8-.6-.4-.9-.9-1.7-1.3-2.3-.3-.4-.4-.9-.4-1.3-.2-.1-.4-.3-.6-.4h-.1c-.9-1-1-2.4-.2-3.4h0c.6-1.7,1.1-2.2,1.6-2.5.6-.4,1.2-.7,5-.4,5,.2,5.8.7,6.2,1,1,.7,1.4,1.6,1.8,2.4.1.2.2.5.4.7.6,1,.9,2.2,1.1,3.2,0,.3.2.6.2.9.2.6.4,1.7.4,6.9s-2.7,13.7-4,15.7c-1.1,1.8-17.2,20-17.4,20.1-.6.7-3.4,5.9-5.6,10.2-.4.7-1,1.2-1.8,1.3-1.5.3-5.7,1-6.9,1.4-1.5.4-11.5.7-15.7.7ZM427.1,191.6c0,0,0,.1.1.2,3.1,0,13.4-.3,14.8-.6,1.1-.3,4.3-.9,6-1.2,2-3.7,4.8-9.1,5.8-10.1,1.4-1.5,15.5-17.7,16.8-19.4.7-1.6,3.1-11.5,3.2-13,0-4.2-.2-5.2-.2-5.3,0-.2-.2-.7-.3-1.1-.2-.7-.4-1.6-.7-2.1-.2-.3-.3-.6-.5-.9,0,0-.1-.2-.2-.3-.7-.1-1.9-.2-3.2-.3.3.4.6.8.7,1.2.3.8.2,1.6-.2,2.2.8,1.7,1.5,3.9,1.3,5.9,0,.9-.7,1.7-1.6,2.1,0,0,0,0,0,0,.3,1.9.4,4.1-.1,5.7-.3.8-1,1.5-1.9,1.7-.9,2.7-2.6,6.2-5.3,7.9-.8.5-1.9.5-2.7,0-.8-.6-1.2-1.5-1-2.5,0,0,0-.5.2-1.2-3,4.5-6,10.4-7,16.9v3.8c0,.6-.2,1.1-.6,1.6l-3.8,4.7c-.4.5-1,.8-1.6.9-.8.1-3.6.4-5.5-.4-.7-.3-1.2-.9-1.4-1.6-.2-.7-.1-1.5.3-2.1.9-1.5,1.9-3.8,2.1-5.4l-2.3-.3c-.1,0-.3,0-.4,0-2.1-.6-3.1-.9-3.6-1-.1,0-.4,0-.6,0l-.7,1.6v2.2c0,.4,0,.8-.3,1.1l-1.8,3.7-1.4,2.9-.4.9c-.2.6-.7,1-1.2,1.3l-1.3.6ZM472.5,137.7h0ZM471.9,137.3h0Z"/>
      </g>
      <g>
        <path class="st9" d="M412.2,134.9l3.3,1.9s1.6,1.6,2.2,2,1.2,1.4,1.6,1.7,4.1,2.6,1.4,3-3.3.5-3.3.5c0,0-3,.2-3.8-.6s-2-1.4-2.2-2.1-.8-3.6-.8-3.6v-1.1l1.5-1.8h0Z"/>
        <path class="st15" d="M416.5,146.5c-1.7,0-3.6-.3-4.6-1.4-.2-.2-.5-.4-.7-.6-.8-.6-1.8-1.3-2.1-2.6-.2-.8-.7-3.3-.8-3.8,0-.2,0-.3,0-.5v-1.1c0-.6.2-1.2.6-1.6l1.5-1.8c.4-.5,1.1-.9,1.8-.9.6,0,1.2.2,1.7.6l3,1.8c.2.1.4.2.5.4.7.7,1.6,1.5,1.8,1.7.7.4,1.1,1,1.5,1.5,0,.1.2.2.2.3h0c1.3.9,3.7,2.6,3.2,5-.1.6-.7,2.1-3,2.4-2.6.4-3.2.5-3.3.5,0,0-.2,0-.2,0-.3,0-.7,0-1.1,0ZM415.4,141.6s0,0,0,0c0,0,0,0,0,0ZM415.1,141.4c.3,0,1.1.1,1.7.1,0,0,0,0,0-.1-.1-.2-.4-.5-.5-.6-.6-.4-1.7-1.4-2.3-2l-.7-.4c.1.7.3,1.4.4,1.8.1.1.3.2.4.3.3.2.7.5,1,.8ZM415,141.4h0Z"/>
      </g>
      <g>
        <path class="st9" d="M443,142.1l1.9-2.1,4.1-3.5s1.2-1.2,1.6-.8.7,1.3.8,1.6.2.8.4,1.5.2,2.7.2,2.7l-1.4,1.4-1.7,1.1-2.4,1-2.2-.2-1-1.5-.3-1.2Z"/>
        <path class="st15" d="M446.5,147.5c0,0-.2,0-.2,0l-2.2-.2c-.8,0-1.4-.5-1.9-1.1l-1-1.5c-.2-.2-.3-.5-.3-.8l-.3-1.2c-.2-.8,0-1.7.6-2.3l1.9-2.1c0,0,.1-.2.2-.2l4-3.4c.2-.1.5-.5.9-.7,2.3-1.6,3.9-.3,4.2,0,.7.7,1.1,1.7,1.4,2.6,0,.2.1.5.2.8,0,.2.1.5.2.8.3.9.3,2.5.3,3.4s-.3,1.3-.7,1.8l-1.4,1.4c-.1.1-.3.2-.4.3l-1.7,1.1c-.1,0-.3.2-.4.2l-2.4,1c-.3.1-.6.2-1,.2ZM446.1,142.4h0s1.6-.7,1.6-.7l1.3-.8.5-.5c0-.5,0-.9,0-1l-2.7,2.3-.6.7ZM448.7,137.3h0Z"/>
      </g>
      <g>
        <path class="st7" d="M423.8,171.4s1.7-1.9,2-2,.8,0,1.7-.2,1.2,0,2.6-.3,2.1-.2,2.8,0,3.2,0,3.6.2.8,0,1.1.4,1.9,2,2.3,2.3.4,1,.4,1l-2.9.8h-3.8c-.3,0-9,.3-9,.3l-.7-2.4h-.1Z"/>
        <path class="st15" d="M424.6,176.4c-1.1,0-2.1-.7-2.4-1.8l-.6-2c-.5-.9-.4-2.1.3-2.9,2.1-2.4,2.6-2.5,3.1-2.7.5-.2.9-.2,1.2-.2.2,0,.5,0,.8,0,.6-.1,1.1-.2,1.5-.2.3,0,.6,0,1.1-.1,1.8-.4,2.9-.3,3.9,0,.3,0,.9,0,1.3,0,1.1,0,1.9,0,2.5.2.5,0,1.5.3,2.3,1.3.2.3,1.5,1.6,1.8,1.8,1.3,1,1.4,2.5,1.4,3,0,1.1-.8,2.1-1.8,2.4l-2.9.8c-.2,0-.4,0-.7,0h-3.8c-.3,0-5.5.2-8.9.3,0,0,0,0,0,0ZM435.6,171s0,0,0,0c0,0,0,0,0,0ZM437.6,166.9s0,0,0,0c0,0,0,0,0,0ZM433.6,166.5s0,0,0,0c0,0,0,0,0,0Z"/>
      </g>
      <g>
        <path class="st7" d="M392.4,109.4s1.4-21.9,9.4-27.5c0,0,7,9.3,7.7,18.2l-1.8-1.2s2.2,4.1,1.8,5.6c0,0-7.3,7.7-8,9.7l-3.8,3.8-5.3-8.6h0Z"/>
        <path class="st15" d="M397.7,120.5c0,0-.2,0-.3,0-.8,0-1.4-.5-1.8-1.2l-5.3-8.6c-.3-.4-.4-1-.4-1.5.2-2.4,1.7-23.3,10.5-29.4,1.1-.8,2.6-.5,3.4.5.3.4,7.4,10,8.2,19.5,0,.6-.1,1.1-.4,1.6.4,1.3.6,2.6.4,3.6-.1.4-.3.8-.6,1.1-3.2,3.4-7,7.8-7.5,8.8-.1.4-.3.6-.6.9l-3.8,3.8c-.5.5-1.1.7-1.8.7ZM395,108.8l3.2,5.2,1.3-1.3c1.2-2.2,4.9-6.4,7.5-9.2-.2-.8-.8-2.3-1.5-3.5-.5-1-.3-2.3.5-3,.1-.1.2-.2.4-.3-1.1-4.4-3.4-8.5-5-11-4.2,5.4-6,17.5-6.4,23Z"/>
      </g>
      <g>
        <path class="st7" d="M411.6,86.4l2,9.9s.8-4.4-.9-9.5l-1.2-.4h.1Z"/>
        <path class="st15" d="M413.6,98.8c-1.2,0-2.2-.8-2.5-2l-1.9-9.2c-.2-.5-.3-1-.3-1.6.2-1.2,1.2-2.1,2.5-2.1h.1c.4,0,.8.1,1.2.3l.7.2c.7.2,1.3.8,1.6,1.6,1.9,5.6,1,10.5,1,10.7-.2,1.2-1.2,2-2.4,2.1h0Z"/>
      </g>
      <g>
        <path class="st7" d="M452.1,86.4l-2,9.9s-.8-4.4.9-9.5l1.2-.4h-.1Z"/>
        <path class="st15" d="M450.1,98.8h0c-1.2,0-2.2-.9-2.4-2.1,0-.2-.9-5.1,1-10.7.2-.7.8-1.3,1.6-1.6l.7-.2c.3-.2.7-.3,1.2-.3h.1c1.2,0,2.3.9,2.5,2.1,0,.6,0,1.1-.3,1.6l-1.9,9.2c-.2,1.2-1.3,2-2.5,2Z"/>
      </g>
      <g>
        <path class="st7" d="M470.7,109.4s-1.4-21.9-9.4-27.5c0,0-7,9.3-7.7,18.2l1.8-1.2s-2.2,4.1-1.8,5.6c0,0,7.3,7.7,8,9.7l3.8,3.8,5.3-8.6h0Z"/>
        <path class="st15" d="M465.4,120.5c-.7,0-1.3-.3-1.8-.7l-3.8-3.8c-.3-.3-.5-.6-.6-.9-.5-1-4.2-5.4-7.5-8.8-.3-.3-.5-.7-.6-1.1-.3-1,0-2.3.4-3.6-.3-.5-.5-1-.4-1.6.7-9.5,7.9-19.1,8.2-19.5.8-1.1,2.3-1.3,3.4-.5,8.7,6.1,10.3,27,10.5,29.4,0,.5,0,1-.4,1.5l-5.3,8.6c-.4.7-1.1,1.1-1.8,1.2,0,0-.2,0-.3,0ZM463.7,112.7l1.3,1.3,3.2-5.2c-.4-5.5-2.3-17.6-6.4-23-1.6,2.5-3.9,6.7-5,11,.1,0,.3.2.4.3.8.8,1.1,2,.5,3-.6,1.2-1.2,2.6-1.5,3.5,2.6,2.8,6.3,6.9,7.5,9.2Z"/>
      </g>
      <g>
        <g>
          <path d="M385.6,140.4c-.4.3-.8.6-1.2,1-.6.6-1.2,1.3-1.8,1.9-.1.1-.2.2-.4.4v-.6c.1-4.2,1.6-7.9,3.8-11.4,1.5-2.3,3.2-4.6,4.8-6.9.9-1.4,1.7-2.8,2.5-4.3,0-.2.1-.4,0-.6-.6-2.3-1-4.6-1.3-6.9-.3-2.9-.5-5.7-.4-8.6,0-3.1.4-6.2.9-9.2.7-4.2,1.8-8.4,3.5-12.3,1.8-4.2,4.1-8,7.4-11.1.6-.6,1.3-1.2,2-1.7,1.3-.9,2.4-.8,3.3.4.6.8,1.1,1.6,1.5,2.5,2.7,5.6,5.3,11.1,8,16.7.7,1.5,1.4,3,2.1,4.5.1.2.2.5.3.7.5.9,1.1,1.1,2.1.9,1.2-.3,2.3-.7,3.5-.8,1.2,0,2.5,0,3.7,0,.5,0,1,.3,1.4.6.3.2.6.2.9,0,.8-.5,1.8-.7,2.8-.7,1.8,0,3.6.2,5.4.8,1.6.6,2.2.3,2.9-1.3,2.3-4.9,4.5-9.9,6.8-14.8,1.3-2.7,2.7-5.4,4.1-8.1.2-.4.5-.7.8-1.1.9-1,1.9-1.2,3-.4.9.6,1.8,1.4,2.6,2.1,2.8,2.7,4.8,5.9,6.5,9.4,1.9,4,3.1,8.1,3.9,12.4.7,3.6,1.1,7.3,1.1,11s-.4,10.1-1.7,15v.8c1.1,2.3,2.6,4.4,4.1,6.5,1.6,2.2,3.1,4.3,4.4,6.7s2.2,4.9,2.5,7.6c0,.7,0,1.4.1,2.1h-.2c-1.1-1.1-2.2-2.2-3.3-3.3h0c0,.2.2.5.3.7,1.1,2.8,1.8,5.7,2.1,8.8.3,3.2,0,6.3-1.1,9.3-.3.8-.7,1.6-1,2.4,0,.1-.1.2-.3.4-.4-1.1-.7-2.2-1-3.4-.3,1.1-.5,2.1-.8,3-1.1,3.2-2.9,5.9-5.1,8.4-2.5,2.8-5.3,5.3-8.1,7.7-2.5,2.2-5,4.3-7.2,6.8-.3.3-.4.6-.5,1-.2,1.2-.7,2.2-1.4,3.1-2,2.2-4,4.4-6,6.7-1,1-2.1,1.5-3.6,1.5h-4c-.2,0-.4,0-.5.1-1.6,1.3-3.5,2-5.6,2.3-2.3.4-4.5.2-6.8-.5-1.3-.4-2.4-1-3.4-1.8-.2-.1-.4-.2-.6-.2h-4.3c-1.1,0-2.2-.3-3-1.2-1.7-1.8-3.4-3.7-5.1-5.5-.3-.3-.6-.7-.9-1-1-1.1-1.7-2.3-1.9-3.7,0-.2-.1-.4-.3-.5-1.9-1.9-3.8-3.8-5.8-5.6-2.9-2.6-5.9-5.1-8.6-7.9-2.4-2.5-4.4-5.2-5.8-8.3-.6-1.4-1-2.8-1.2-4.3h-.1c-.3,1.1-.7,2.1-1,3.2,0,0-.1-.1-.2-.2-1.3-2.5-2-5.1-2.2-7.9-.3-4.6.6-8.9,2.3-13.1v-.2h.3ZM439,172.4h0c-.8-.6-1.7-1.2-2.8-1.4-2.6-.7-5.2-.7-7.8-.2-1.2.2-2.4.7-3.3,1.5,4.6-.9,9.2-1.1,13.9.2h0ZM447.8,133.5h0c.7-.9,1.4-1.9,2.5-2.5v-.2c-.9.2-1.8.4-2.7.7v-.3c.4-1.8.4-3.5,0-5.3,0-.3-.2-.5-.6-.4-1.6.2-3.2.4-4.7,1.1,0-.9.4-1.6,1-2.3h-.9c-.7.2-1.3.4-2,.6-.1-1.1-.7-2-1.9-2.6-.4,1.2-.9,2.3-1.3,3.5-1.2,3.5-1.9,7.1-1.8,10.9,0,1.4.6,2.6,1.4,3.6.2.3.6.6.9.8h.1v-2.5c.2.2.2.3.3.5.5.7.9,1.5,1.4,2.1.4.5,1,.6,1.6.3s.7-.4,1-.6c1.3-1.2,2.7-2.4,3.9-3.7,2-2,4.1-3.7,6.9-4.5h.2c-1.8-.4-3.6-.2-5.2.5h-.4l.3.3ZM400.1,114.7s.2,0,.3-.2c2.8-2.8,5.7-5.5,8.9-7.9,2.2-1.7,4.5-3.3,7-4.5.7-.4,1.1-.9,1-1.7-.1-1.1-.3-2.2-.6-3.3-.8-3.4-2.2-6.6-3.6-9.8v-.2c-.1.6-.1,1-.1,1.5v1.5c0,.5-.1.9-.2,1.4-1-3.7-1.8-5.8-3.1-8.7-1.1-2.3-2.3-4.5-3.9-6.5-.5-.7-.8-.7-1.4,0-1.3,1.3-2.5,2.7-3.4,4.3-3.1,5.2-5.4,10.7-6.6,16.6-.6,3.3-.8,6.6-.4,10,0,.3,0,.6.2.9,0,.3.1.5.2.8.2-3.9.7-7.6,1.8-11.4.4,1.3.7,2.4,1.1,3.5h.1c0-2.2.2-4.4.6-6.6.5-2.8,1.2-5.5,2.4-8,.3-.7.7-1.3,1.1-2,3.4,3.8,5.3,8.2,6.2,13.1-.9-.8-1.9-1.4-3.2-1.7.1.2.2.3.2.4,1.5,2.6,2.6,5.4,3.4,8.3,0,0,0,.3-.1.4-2.6,2.2-4.8,4.8-6.6,7.7-.5.7-.8,1.5-1.3,2.2h0ZM463.8,114.8h0c-.1-.3-.2-.5-.3-.8-2-3.5-4.5-6.6-7.5-9.2-.2-.2-.2-.3-.1-.5.7-1.8,1.3-3.6,2-5.4.5-1.1,1.1-2.2,1.7-3.4-.6.3-1.2.5-1.7.8s-1,.7-1.5,1c.3-3.7,3.6-10.7,6.2-13.1,3,5.2,3.8,10.8,4.1,16.6.3-1.1.7-2.3,1-3.4h.1c.3,1.3.6,2.5.8,3.8.2,1.3.4,2.6.6,3.9.1,1.3.2,2.5.3,3.8h.1c.2-1.3.4-2.5.5-3.8.2-3.2-.1-6.5-.9-9.6-1.1-4.6-2.9-9-5.2-13.2-1.2-2.1-2.5-4.1-4.2-5.9-.9-.9-1.1-.8-1.8,0-3,4-5,8.5-6.3,13.3-.1.5-.3,1-.4,1.5h-.2c0-1.5-.2-2.9-.3-4.3h0c-1.4,3.3-2.8,6.5-3.6,9.9-.3,1.1-.4,2.2-.6,3.3,0,.8.3,1.3,1,1.6.7.3,1.3.7,2,1.1,4,2.5,7.6,5.4,11,8.5,1.1,1,2.1,2.1,3.2,3.2v.2ZM422.4,179.6c1,.8,2.1,1.4,3.3,1.6,0,0,.2,0,.2.1.7.6,1.7.4,2.1-.4.6-1.1.2-3-.8-3.8-.8-.6-1.8-.4-2.2.5-.1.3-.2.6-.3.9-.1.5-.2,1.1-.3,1.6-1.2-.7-2.2-1.6-3-2.7-.3-.4-.6-.9-.7-1.5-.4-1.7.1-3.3,1-4.7.9-1.5,2.4-2.2,3.9-2.7,1.7-.6,3.5-.8,5.3-.8s4.8,0,7.1.8c2.3.7,4.1,2.1,4.7,4.6.5,1.8.5,3.4-.9,4.9-.4.4-.7.8-1.1,1.1-.5.4-1,.7-1.6,1.1v-.6c-.1-.7-.2-1.4-.5-2.1-.3-.9-1.4-1.1-2.2-.4-.3.2-.5.6-.6.9-.5,1-.6,2.1,0,3.1.5.7,1.3.8,2,.3.1-.1.3-.2.5-.2,1.2-.3,2.3-.7,3.1-1.7h0c0,.1,0,.3-.1.4-1.3,2.3-3.3,3.7-5.8,4.3-.9.2-1.9.3-2.8.5v.9c0,.9.2,1.2,1.1,1.3s1.9.2,2.8.4c2,.6,4.1,1.2,6.1,1.9,1.4.5,2.5.3,3.5-.8,1.5-1.7,3.1-3.3,4.6-4.9.6-.6.8-1.3.8-2.1,0-2.7.4-5.3.9-8,.9-4.5,2.4-8.8,4.4-12.9.9-1.9,2-3.6,3-5.5h0v.5c-.5,1.4-1,2.9-1.5,4.3-1,3.5-1.7,7.1-2.3,10.7-.1.8-.2,1.6-.3,2.6.2-.2.3-.3.4-.4,1.5-1.4,3-2.9,4.6-4.3,2.1-1.8,3.8-3.9,5.1-6.4.3-.5.5-1.1.8-1.7.7,1.3,1,2.7,1.2,4.2,1.7-4.8,1.8-9.7.2-14.6,1.6.9,2.5,2.2,3.5,3.5.2-1.1,0-2.1,0-3.1-.4-4-2-7.6-4.6-10.8,1.6.2,3,.8,4.3,1.6-1-1.8-2.4-3.2-4.3-4.1-2.2-.9-4.3-.5-6.4.5-.1,0-.2.3-.2.4-.1,1.3-.2,2.7-.4,4-.3,2-.9,3.9-2.1,5.6-.4.6-.8,1.1-1.3,1.6h-.1c.4-3.2.8-6.3.5-9.5-1.6,1.1-3.1,2.2-4.4,3.5v.2c.7-.2,1.3-.3,1.9-.5-1.2,1.8-2.9,2.8-4.8,3.4h0c0,.1,2.6.1,2.6.1-2.5,2.5-5.2,2.6-8.2.7,0,2.5.3,4.8,1.1,7.2-3.2-2.1-6-4.5-8-7.7-1.4,6.7-1.5,13.4.8,20-4.2-1.2-8.4-1.2-12.6,0,2.3-6.6,2.2-13.3.8-20-2,3.2-4.8,5.6-7.9,7.6.3-1.2.6-2.4.8-3.6.2-1.2.3-2.4.2-3.6-3.6,2.4-6.8.9-8.1-.8h2.6c-.2-.1-.4-.3-.7-.3-1.5-.6-2.9-1.4-3.9-2.7,0-.1-.1-.3-.2-.5h0c.6.3,1.1.5,1.8.5v-.2c-1.4-1.1-2.9-2.2-4.3-3.4h-.1c-.3,3.2.1,6.3.5,9.5-.2-.2-.4-.4-.5-.6-1-1.2-1.7-2.5-2.2-3.9-.8-2.2-1.1-4.4-1-6.7,0-.2,0-.4-.2-.4-1.7-.9-3.4-1.4-5.4-.9-1.5.4-2.8,1.2-3.8,2.3-.6.6-1,1.4-1.5,2.1h0c.6-.4,1.2-.7,1.8-1,.8-.3,1.6-.6,2.5-.7-4.2,5-4.9,11.1-4.5,13.8.5-.6,1-1.3,1.5-1.9.7-.8,1.5-1.4,1.9-1.5-2,6-.8,12.4.3,14.6.1-1.5.4-2.9,1.1-4.3,0,.2.1.3.1.4s0,.2.1.3c1,2.4,2.6,4.5,4.5,6.4s3.9,3.7,5.9,5.6h.2c-.7-6.1-1.9-12.1-4.1-17.9.8,1.2,1.5,2.5,2.2,3.8,2.6,4.9,4.4,10,5.4,15.4.4,2.1.7,4.3.7,6.5s.4,2.4,1.4,3.3c.7.7,1.3,1.4,2,2.1.9,1,1.9,1.9,2.8,2.8.6.5,1.3.6,2,.4.7-.2,1.5-.5,2.2-.7,1.7-.6,3.5-1.2,5.3-1.6.8-.1,1.7-.2,2.6-.4.4,0,.6-.3.7-.7v-1.5c-.8,0-1.5-.2-2.1-.3-2.7-.5-4.9-1.8-6.4-4.1-.1-.2-.2-.4-.3-.6h0l.3.5ZM425.6,138.8h.1v2.5c1.4-.9,2.1-2.2,2.3-3.7.2-1.6,0-3.2,0-4.7-.3-2.8-1-5.4-1.9-8-.3-.8-.6-1.6-.9-2.4-1.1.6-1.7,1.5-1.8,2.7-.9-.5-1.8-.8-2.8-.8.6.7.9,1.4,1,2.2-1.5-.8-3.1-1-4.7-1.1-.3,0-.4,0-.5.3-.1.8-.3,1.6-.3,2.4s.1,2.2.2,3.2c-.8-.2-1.7-.4-2.6-.6h0c1,.8,1.8,1.7,2.5,2.7-2.4-.9-4.5-1.2-5.6-.7.2,0,.4.1.6.2,1,.5,2,.8,2.9,1.4,1.6.9,2.7,2.2,4,3.5,1.2,1.2,2.5,2.3,3.8,3.4,1.1.9,1.9.7,2.7-.5.2-.2.3-.4.4-.7.2-.4.5-.9.7-1.4h-.1ZM424.2,191c.6.1,1.1.2,1.6.4,1.5.5,3,.9,4.5,1.4,1.1.4,2.2.5,3.3,0,.5-.2,1.1-.4,1.6-.6,1.5-.4,3-.9,4.4-1.3-2.9-2.5-11.8-2.5-15.4,0h0ZM415.4,138.1c-.4-.3-.8-.6-1.2-.9-.2-.2-.4-.2-.6,0-1.1,1.1-1.4,2.8-.6,4.2,1.2,2.3,4.5,2.5,6,.4.2-.2.2-.4,0-.6-.4-.3-.7-.7-1.1-1-.5,1-1.1,1.4-2,1.3-.7,0-1.2-.6-1.4-1.3-.2-.8,0-1.4,1-2h0ZM446.1,140.1c-.4.4-.7.7-1.1,1-.3.2-.2.4,0,.7,1.1,1.5,3,1.9,4.6,1,2-1.1,2.3-4,.7-5.5-.1,0-.3-.2-.4-.2-.5.3-.9.7-1.4,1,.9.7,1.2,1.3,1,2.1-.2.7-.8,1.2-1.4,1.2-.9,0-1.5-.4-1.9-1.3h-.1Z"/>
          <path class="st15" d="M431.9,201.8c-1.7,0-3.4-.3-5.2-.8-1.4-.4-2.6-1-3.8-1.9h-3.8c-2,0-3.7-.7-4.9-2-.8-.9-1.7-1.8-2.5-2.7-.8-.9-1.7-1.8-2.5-2.7-.1-.1-.3-.4-.5-.6-.1-.1-.2-.3-.3-.4,0,0,0,0,0,0-1.3-1.4-2.1-2.9-2.4-4.4-1.8-1.8-3.6-3.6-5.4-5.2-.7-.6-1.4-1.3-2.2-1.9-2.2-1.9-4.5-3.9-6.6-6.1-2.7-2.8-4.7-5.6-6.1-8.6-.7,0-1.4-.2-2-.7l-.2-.2c-.2-.2-.3-.4-.4-.6-1.4-2.8-2.2-5.7-2.5-8.9-.2-2.7,0-5.3.6-8-.8-.4-1.4-1.3-1.4-2.2v-.6c.1-4.3,1.4-8.4,4.2-12.7,1-1.6,2.2-3.2,3.3-4.7.5-.8,1.1-1.5,1.6-2.3.6-1,1.3-2.1,2-3.4-.5-2-.9-4.2-1.2-6.7-.3-2.6-.5-5.7-.4-9,0-3.5.5-6.9.9-9.5.8-4.8,2-9.1,3.7-12.9,2.1-5,4.7-8.9,8-11.9.7-.7,1.5-1.3,2.3-1.9,2.5-1.7,5-1.3,6.8.9.8,1,1.3,2,1.8,3,1.3,2.7,2.6,5.5,4,8.3,1.3,2.8,2.7,5.6,4,8.4l2.1,4.5s0,0,0,0c.1,0,.3,0,.4-.1.9-.3,1.9-.5,3-.6,1.3-.1,2.7-.1,4,0,.6,0,1.2.2,1.8.5,1-.4,2-.6,3.2-.6,2.2,0,4.2.3,6.1.9,1.2-2.5,2.3-4.9,3.4-7.3,1.1-2.5,2.3-5,3.4-7.4,1.3-2.8,2.8-5.5,4.1-8.2.2-.5.6-.9.8-1.2,0,0,.1-.2.2-.3,0,0,0-.1.1-.2,1.8-2,4.2-2.3,6.3-.8,1,.6,1.9,1.4,2.7,2.1h.1c0,.2,0,.2,0,.2,2.7,2.6,4.9,5.8,7,10.1,1.9,3.9,3.2,8.2,4.1,13,.8,3.9,1.1,7.7,1.1,11.5,0,5.9-.5,10.8-1.7,15.3,1,1.9,2.3,3.7,3.6,5.6,1.7,2.3,3.2,4.5,4.6,7,1.6,2.9,2.5,5.7,2.8,8.5,0,0,0,.2,0,.3,0,.6,0,1.2,0,1.7.1.7-.1,1.4-.6,2-.3.3-.6.6-1,.7.2,1.2.4,2.4.5,3.6.4,3.8,0,7.2-1.2,10.4-.2.5-.4.9-.6,1.3-.1.3-.3.6-.4.9-.2.7-.7,1.2-.9,1.5-.5.5-1.3.8-2,.7-1.1,2.5-2.7,4.8-4.8,7.2-2.6,3-5.6,5.6-8.3,7.9l-1,.8c-2.1,1.9-4.1,3.6-5.9,5.6-.3,1.5-.9,2.8-1.9,4,0,0,0,.1-.1.1-2,2.1-4,4.4-6,6.7,0,0,0,0-.1.1-1.5,1.5-3.3,2.2-5.4,2.2h-3.5c-1.7,1.2-3.8,2-6.2,2.4-.9.2-1.8.2-2.7.2ZM441.6,198.6s0,0,0,0h0ZM441.6,198.6s0,0,0,0c0,0,0,0,0,0ZM411.9,187.2c.2.2.4.4.5.6.1.1.2.3.3.4.9,1,1.8,1.9,2.6,2.8.8.9,1.7,1.8,2.5,2.7.1.1.4.4,1.2.4h4.3c.8,0,1.4.3,1.7.5s.3.2.4.3c.8.6,1.6,1.1,2.6,1.4,2,.6,3.8.7,5.6.4,1.9-.3,3.3-.8,4.4-1.7.8-.7,1.8-.7,2.1-.7h4c.8,0,1.2-.2,1.8-.7,2-2.3,4-4.5,5.9-6.6.5-.6.7-1.2.9-1.9,0,0,0,0,0,0,0,0-.2.2-.3.3-.5.5-1,1-1.5,1.6-1,1-2,2.1-3,3.2-1.2,1.3-3.1,2.5-6.1,1.5-.2.8-.9,1.5-1.7,1.7-.6.2-1.1.3-1.7.5-.8.3-1.7.5-2.6.8-.2,0-.5.2-.7.3-.2,0-.5.2-.7.3-1.6.7-3.3.7-5.1,0-.7-.2-1.4-.4-2.1-.7-.8-.2-1.5-.5-2.3-.7,0,0,0,0-.1,0-.3-.1-.6-.2-1.1-.3-1.2-.2-2-1.2-2.1-2.3-.3.1-.6.2-.9.3-1.5.4-3.1.1-4.3-.9,0,0-.1-.1-.2-.2-.3-.3-.6-.6-.9-.9-.6-.6-1.3-1.3-2-2-.4-.4-.7-.7-1-1.1-.3-.3-.6-.6-.9-.9-.4-.3-.7-.7-1-1.1,0,.2,0,.4,0,.5.1.7.5,1.5,1.2,2.2ZM439.1,185.5c1.4.4,2.9.9,4.4,1.4.5.2.6.2.8-.1,1-1.1,2.1-2.3,3.1-3.3.5-.5,1-1.1,1.5-1.6,0,0,.1-.1.1-.4,0-3,.5-5.8.9-8.5.9-4.6,2.5-9.2,4.6-13.5.6-1.2,1.2-2.3,1.8-3.4.4-.7.8-1.4,1.2-2.2.5-1,1.7-1.5,2.8-1.3,1.1.3,1.9,1.3,1.9,2.4v.5c0,.3,0,.6-.1.8-.2.7-.5,1.4-.7,2.1-.2.7-.5,1.4-.7,2.1-.6,1.9-1,3.9-1.4,5.7,1.8-1.6,3.2-3.4,4.3-5.5,0,0,0,0,0-.1,0-.2.2-.4.3-.7.1-.3.2-.6.4-.9.4-.8,1.3-1.4,2.2-1.4,0,0,0,0,0,0,.1-2.4-.2-4.8-1-7.1-.3-1,0-2.1.8-2.7.6-.5,1.3-.6,2-.5-.7-2.2-1.8-4.4-3.4-6.4-.5-.6-.7-1.4-.5-2.1-.5,0-1.1,0-1.8.3,0,1-.2,2-.3,3-.4,2.6-1.2,4.8-2.5,6.7-.5.7-1,1.3-1.6,1.9-1,1-2.8.9-3.7-.1-.5-.5-.7-1.3-.7-2v-.2c0-.2,0-.4,0-.6,0,0,0,0,0,0-2.1,2.1-4.6,3-7.2,2.7.2.9.4,1.8.7,2.7.3,1,0,2.1-.8,2.8-.8.6-2,.7-2.9.1-1.9-1.3-3.6-2.5-5-3.9-.4,4.8,0,9.2,1.5,13.3.1.4.2.7.1,1.1,3,1.5,4.2,3.9,4.6,5.7.3,1,1.1,4.1-1.2,6.9,0,0,0,0,0,.1,0,.7-.2,1.3-.5,1.8-1,1.8-2.5,3.2-4.2,4.2ZM406.8,186.9s0,0,0,0c0,0,0,0,0,0ZM403.6,152.2c.8,0,1.6.4,2.1,1.1.9,1.3,1.6,2.7,2.3,4,2.8,5.2,4.6,10.5,5.7,16.1.5,2.7.7,4.9.7,7s.2,1.1.6,1.4c0,0,0,0,0,0,.4.4.7.7,1.1,1.1.3.3.6.7.9,1,0,0,0,0,0,0,.5.6,1.2,1.2,1.8,1.8.2.2.4.4.7.6.3,0,.6-.2.8-.3.4-.1.8-.3,1.1-.4,1-.3,1.9-.7,3-1-1.7-.9-3.1-2.2-4.2-3.9,0,0,0-.2-.1-.2l-.3-.6c-.2-.3-.3-.7-.3-1.1,0,0-.1-.2-.2-.3-.6-.8-1-1.6-1.1-2.5-.5-2.2,0-4.4,1.3-6.5.9-1.4,2.1-2.3,3.3-3,0-.4,0-.8.1-1.2,1.4-4.1,1.9-8.5,1.5-13.3-1.4,1.3-3,2.6-4.9,3.8-.9.6-2,.5-2.8,0-.8-.6-1.2-1.6-1-2.6.2-1,.5-1.9.7-2.9-3,.4-5.7-.9-7.3-2.9,0,.3,0,.6.1.9v.2c.2,1.1-.4,2.1-1.4,2.6-1,.5-2.1.3-2.9-.5-.2-.2-.5-.5-.8-.9-1.1-1.3-1.9-2.8-2.5-4.5-.7-2-1.1-4.1-1.2-6.3-.6-.2-1.1-.3-1.6-.3.1.7,0,1.4-.6,2-1.7,2-2.7,4.3-3.3,6.3.8-.1,1.6.2,2.2.8.6.7.8,1.6.5,2.5-.8,2.4-1,4.8-.9,7,.2,0,.4,0,.5,0,1,.2,1.7,1,1.9,2,0,0,0,.2,0,.3.8,1.9,2.1,3.7,3.9,5.5.3.3.5.5.8.8-.7-3.8-1.7-7.3-2.9-10.4-.5-1.2,0-2.5,1.2-3.1.4-.2.8-.3,1.1-.3ZM409.5,182.8c.1.1.3.2.4.4-.3-.8-.5-1.7-.5-2.7,0-1.6-.2-3.4-.6-5.6-.3.2-.7.3-1.1.3h-.2c-.6,0-1.3-.2-1.7-.7-.7-.6-1.4-1.3-2-1.9-1.3-1.2-2.6-2.5-3.9-3.7-.9-.9-1.7-1.8-2.4-2.7-.3.3-.7.5-1.2.6-1.1.2-2.2-.3-2.7-1.3-1-1.9-1.8-5.7-1.6-9.8-.2,0-.3,0-.5,0-.9-.3-1.7-1.1-1.8-2-.3-2-.1-6,1.6-10.2-.3-.1-.5-.3-.8-.5-.8-.9-.9-2.2-.2-3.2.1-.2.3-.4.4-.6.4-.6.7-1.2,1.3-1.8,1.3-1.4,3-2.5,5-3,3-.8,5.4.2,7,1,.7.3,1.5.9,1.7,2,.2,0,.5-.1.8-.1h.1c.6,0,1.2.2,1.6.6.6.5,1.3,1.1,1.9,1.6.1-1.2.6-2.4,1.4-3.3,0,0,0,0-.1,0-.4-.2-.8-.3-1.2-.5-1-.2-1.7-.9-2-1.9-.2-1.2.3-2.3,1.4-2.8.5-.2,1.1-.4,1.7-.4.1-.5.4-.9.8-1.2.4-.3.9-.5,1.5-.5,0,0,0,0,0-.1,0-.7.1-1.4.2-2,0-.2,0-.5.1-.7,0-.2,0-.3.1-.5.2-.8,1-2,2.9-2s.1,0,.2,0c.5,0,.9,0,1.4.1.4-.8,1.3-1.2,2.2-1.2s.9,0,1.4.1c.5-.7,1.2-1.3,2-1.7.6-.3,1.4-.4,2.1-.1.7.3,1.2.8,1.5,1.5l.9,2.4c1.1,3.2,1.8,5.9,2,8.6,0,0,0,.2,0,.3,0,.5,0,.9,0,1.4,0,1.1.1,2.3,0,3.6-.3,2.4-1.5,4.3-3.4,5.5-.6.4-1.2.5-1.9.3-.5.3-1,.5-1.5.6-1,.1-2-.1-2.9-.7-.3.3-.6.6-.9.9.2,0,.3.1.5.2.8.4,1.3,1.2,1.4,2,0,.4,0,.9,0,1.4.9-.9,1.6-1.9,2.2-2.9.5-.9,1.6-1.3,2.6-1.1,1,.2,1.8,1,2,2,1.3,6.3,1.4,12,.3,17.3,1.9-.2,3.7-.2,5.6,0-1.1-5.3-1.1-11,.3-17.3.2-1,1-1.8,2-1.9,1-.2,2,.3,2.6,1.1.6,1,1.4,2,2.3,2.9,0-.4,0-.7,0-1.1,0-.9.5-1.8,1.3-2.2.4-.2.9-.3,1.3-.3-.4-.3-.8-.7-1.2-1.2-.2.1-.5.3-.8.4-1.3.7-2.7.6-3.8-.2-.6.2-1.5,0-2.1-.4-.7-.4-1.2-.9-1.5-1.4-1.3-1.6-1.9-3.3-1.9-5.1-.1-3.8.5-7.6,1.9-11.7.2-.6.4-1.2.7-1.9.2-.5.4-1.1.6-1.6.2-.7.7-1.2,1.4-1.5.7-.3,1.4-.3,2.1,0,.9.5,1.7,1.1,2.2,1.8.2,0,.4,0,.6,0h.9c.9,0,1.8.5,2.2,1.4.4,0,.7,0,1.1-.1.9-.2,1.7,0,2.4.6.6.5,1,1.2,1.1,2,.2.9.3,1.9.3,2.8.5,0,1,.2,1.5.5.4.3.7.8.8,1.2.3,0,.6,0,.9.2,1.2.3,2.1,1.4,1.9,2.7-.1,1.2-1.1,2.1-2.3,2.2-.4.1-.8.3-1.1.4.9.9,1.4,2,1.6,3.2.6-.5,1.2-.9,1.8-1.3.7-.5,1.6-.6,2.4-.2.2-.9.8-1.8,1.7-2.1,3-1.4,5.7-1.5,8.2-.5,0,0,0,0,.1,0,2.3,1.1,4.1,2.8,5.4,5.1.6,1,.4,2.2-.5,3-.2.2-.5.4-.7.5.9,2.1,1.5,4.4,1.8,6.7,0,0,0,.2,0,.2,0,.3,0,.5,0,.8,0,.7.1,1.7,0,2.7-.2,1-.9,1.7-1.9,2-.2,0-.3,0-.5,0,.1,3.2-.4,6.3-1.5,9.4-.4,1.1-1.5,1.8-2.6,1.7-.6,0-1.1-.3-1.5-.7-1.1,1.5-2.3,2.8-3.7,4-1,.9-2,1.8-3,2.8-.5.5-1,1-1.5,1.5l-.3.3c-.7.7-1.9.9-2.8.5,0,0,0,0,0,0-.4,2.1-.6,4.1-.6,6.1s0,.9-.1,1.3c2-2.3,4.2-4.2,6.4-6.1l1-.9c2.7-2.3,5.5-4.8,7.9-7.5,2.2-2.5,3.7-5,4.6-7.5.1-.4.3-1,.4-1.6.1-.4.2-.8.3-1.3.3-1.1,1.3-1.8,2.4-1.8.2,0,.4,0,.6,0,.4-1.9.5-3.9.3-6-.3-2.8-.9-5.4-1.9-8-.2-.4-.5-1-.5-1.7s.6-1.9,1.5-2.3c.3-.1.6-.2.9-.2-.3-.9-.7-1.8-1.2-2.7-1.2-2.2-2.6-4.2-4.2-6.4-1.6-2.2-3.1-4.4-4.3-6.9-.2-.3-.2-.7-.2-1.1v-.8c0-.2,0-.4,0-.6.6-2.4,1.1-5,1.3-7.9-1.2-.1-2.2-1.1-2.3-2.3l-.3-3.7-.3-2.1c-1.2-.1-2.1-1.1-2.2-2.4-.2-3.9-.6-8-2.1-11.9-.7,1.2-1.4,2.7-2,4,.5.1.9.3,1.2.7.8.8,1,1.9.5,2.9-.2.4-.4.8-.6,1.2-.4.7-.7,1.4-1,2-.3.9-.6,1.7-1,2.6-.2.5-.3,1-.5,1.4,2.7,2.5,5,5.5,6.9,8.9,0,.1.1.3.2.4.3.4.4.9.4,1.4v.2c0,1.2-.9,2.3-2.1,2.5-1.1.2-2.2-.4-2.7-1.4-.2-.2-.4-.4-.6-.6-.7-.7-1.3-1.4-2-2-3.7-3.4-7.2-6.1-10.6-8.2-.1,0-.3-.2-.5-.3-.4-.3-.8-.5-1.2-.6-1.6-.7-2.5-2.1-2.5-3.9s0-.3,0-.4c0-.3.1-.7.2-1,0-.5.2-1.1.3-1.6-1.2,1.4-2.9,1.8-5.1.9-1.3-.4-2.8-.6-4.5-.6s-1.1.1-1.5.3c-1.1.7-2.5.7-3.6,0,0,0,0,0-.1,0,0,0-.1,0-.2-.1-1,0-2.2,0-3.2,0-.6,0-1.3.2-2,.4-.3,0-.7.2-1.1.3,0,0,0,0-.1,0-1.8.4-3-.2-3.9-.9.2.9.4,1.9.5,2.9.1.9,0,2.8-2.2,4.1,0,0-.1,0-.2,0-2,1-4,2.3-6.6,4.2-2.7,2-5.4,4.4-8.7,7.7-.3.3-.7.5-.9.7-1,.5-2.3.3-3-.6-.7-.9-.8-2.1-.1-3.1.2-.2.3-.5.5-.8.2-.4.5-.8.8-1.3,1.7-2.7,3.7-5.2,6-7.3-.7-2.4-1.7-4.5-2.8-6.5,0,0-.1-.2-.2-.3,0,0,0-.1-.1-.2-.4-.9-.3-1.9.3-2.7.4-.5.9-.8,1.5-.9-.6-1.5-1.2-2.9-2.1-4.2-.6,1.6-1.1,3.5-1.5,5.7-.4,2.1-.6,4.1-.6,6.2s-1.1,2.5-2.5,2.5c-.3,1.7-.4,3.6-.5,5.5,0,1.2-1,2.2-2.2,2.3-.1,0-.3,0-.4,0,0,.5,0,1,.1,1.4.3,2.3.7,4.5,1.2,6.4.2.7.2,1.3.1,1.5,0,.3-.1.7-.3,1-.9,1.7-1.7,3.1-2.6,4.5-.6.8-1.1,1.6-1.7,2.4-1.1,1.5-2.1,3-3.1,4.5-1,1.7-1.8,3.3-2.4,4.8,1,0,1.9.7,2.3,1.7s0,1.9-.6,2.6c-1.5,3.9-2.1,7.7-1.9,11.4,0,.9.2,1.8.4,2.6.2,0,.4,0,.5,0h.1c1.3,0,2.3.9,2.5,2.2.2,1.2.5,2.4,1,3.6,1.2,2.6,2.9,5,5.3,7.6,2,2,4.1,4,6.3,5.8.7.6,1.5,1.3,2.2,1.9,2,1.8,3.9,3.7,5.7,5.5ZM430.4,181.6c.2,0,.3,0,.5,0,.6,0,1.2.2,1.6.6.3,0,.6-.1.9-.2-.8-1.5-.8-3.3,0-5,.2-.5.6-1.3,1.4-1.9.4-.3.8-.6,1.3-.7-2.7-.5-5.5-.5-8.7,0,.5.1.9.4,1.3.7,1.8,1.5,2.6,4.3,1.7,6.5ZM423.2,173.9c-.1.5-.2,1,0,1.4,0,0,0,.1,0,.2,0,0,0,0,0,.2.3-.4.7-.7,1.2-1-.5-.1-.9-.4-1.3-.8ZM439.7,174.9c.3.2.5.5.7.7.1-.3.1-.6,0-1.1-.2.2-.5.3-.8.4ZM399.4,159.9h0s0,0,0,0ZM398.9,158.8s0,0,0,0c0,0,0,0,0,0ZM396.4,151.9h0ZM408.6,147.3s0,0,0,0c0,0,0,0,0,0ZM460.6,140h0,0ZM460.6,140h0,0ZM403,139.9h0,0ZM403,139.9h0,0ZM441.4,139.6s0,0,0,0c0,0,0,0,0,0ZM415.5,139.3h0ZM418.4,134.7c.3.3.5.5.8.8.2.2.4.5.7.7.9.9,1.9,1.8,3,2.7,0,0,.1-.2.2-.3,0,0,.1-.2.2-.3.1-.4.3-.8.7-1.2h.1c.5-.6,1-.8,1.7-.8,0-.5,0-1.1,0-1.7,0-.5,0-1,0-1.5-.2-1.7-.6-3.5-1.2-5.5-.1,0-.3.1-.5.1-.2.4-.5.7-.8,1-.8.5-1.8.6-2.6.1-.6-.3-1.2-.5-1.8-.6,0,1,0,2,.2,3,0,.5,0,1-.3,1.4.3.7.2,1.4,0,2.1ZM440.3,137.9c.2.3.4.5.5.8.2-.2.4-.3.6-.5,1-.9,1.9-1.8,2.8-2.7,0,0,0,0,0,0,.3-.3.7-.7,1.1-1-.4-.7-.4-1.4-.1-2.2,0,0,0,0,0,0,0-.2-.1-.5-.1-.7v-.3c0-.2,0-.4,0-.5.2-.8.3-1.6.2-2.4-.7.1-1.4.3-2,.6-.8.4-1.7.3-2.4-.2-.5-.3-.9-.8-1-1.4-.2,0-.4,0-.5-.2-1,3.1-1.5,6-1.5,8.9.6,0,1.2.3,1.7.7.4.4.6.7.7,1ZM462.9,137.9h0s0,0,0,0ZM410.6,135.3h0,0ZM447.6,127.9s0,0,0,0c0,0,0,0,0,0ZM395.8,120.5h0s0,0,0,0ZM395.8,120.5s0,0,0,0c0,0,0,0,0,0ZM395.8,120.5h0s0,0,0,0ZM458.1,105.4s0,0,0,0c0,0,0,0,0,0ZM409.1,99.5c.4,1.1.8,2.2,1.2,3.3,1.3-.9,2.9-1.9,4.5-2.7-.1-.8-.3-1.6-.5-2.3-.3-1.3-.7-2.5-1.1-3.8,0,0-.2,0-.3,0-1.2,0-2.2-.7-2.5-1.8-1-3.7-1.7-5.6-3-8.3-.7-1.4-1.5-3-2.5-4.5-.7.8-1.3,1.6-1.7,2.4,0,.2-.2.3-.3.5.2.1.3.3.5.4,3.5,3.9,5.8,8.6,6.8,14.3.2,1-.2,2-1.1,2.5ZM449.2,99.8c.4.2.8.4,1.1.6.2,0,.3.2.5.3,1,.6,2,1.3,3,2,.2-.6.5-1.3.7-1.9.2-.5.3-.9.5-1.4-.8-.5-1.2-1.4-1.1-2.3.4-4.3,3.9-11.9,7-14.7,0,0,.1,0,.2-.1-.7-1.1-1.3-2.1-2-2.9-2.1,3.2-3.8,6.8-4.9,11,0,.3-.1.6-.2.9,0,.2-.1.4-.1.5-.2,1.2-1.3,2-2.5,2h-.2c-.1,0-.2,0-.3,0-.4,1.2-.8,2.4-1.1,3.7-.2.7-.3,1.3-.4,2,0,.1,0,.2,0,.3ZM414.8,100.7s0,0,0,0c0,0,0,0,0,0ZM429.9,97.5h0,0ZM402.2,96.1h0s0,0,0,0ZM402.2,96.1h0s0,0,0,0ZM430.9,93.5s0,0,0,0c0,0,0,0,0,0ZM456.8,72.2s0,0-.1.1c0,.1-.2.2-.2.3-1.4,2.6-2.8,5.4-4.1,8.1-.6,1.3-1.2,2.6-1.8,3.9,0,0,.1,0,.2,0,0,0,0,0,0,0,1.4-3.5,3.1-6.7,5.2-9.5.4-.5,1.1-1.4,2.2-1.7-.5-.4-1-.8-1.4-1.2ZM407.8,74.8c.5.7,1,1.4,1.5,2.1-.4-.9-.9-1.9-1.3-2.8-.3-.7-.7-1.3-1.1-1.9-.4.3-.9.7-1.4,1.1,1.3.2,2,1.1,2.3,1.5ZM406.6,71.9h0,0Z"/>
        </g>
        <polygon points="409.3 143 409.3 143 409.3 143 409.3 143"/>
        <path d="M459.9,155.2h0Z"/>
        <path d="M441.5,179.5h0Z"/>
        <path d="M422.4,179.6h0Z"/>
        <path d="M447.8,133.5h0Z"/>
      </g>
    </g>
    <g>
      <path class="st9" d="M398.8,78.9s5.8-4.6,6.2-4.7,1.1-.4,1.7.2,3.5,5.3,3.7,5.8,3.3,5.3,3.3,5.3l6,11.4s3.1,3.2,6.6,3.2,11.7.4,12.4.2,5.3-3,5.5-3.3,3.5-7.3,3.5-7.3c0,0,4.7-11.1,4.9-11.4s4-4.3,4-4.3c0,0,3.7.6,4.1,1.1s1.8,2,1.8,2l4.4,7.6,4,11.7.5,5-.5,9.2-2.4,9s-.4,2.5.4,3.4,6.5,8.3,6.5,8.3l.7,8.4.5,8.9-2.7,13.2-2.9,3.9-13.2,13.5-4,4.7s-1.2,2.1-1.4,2.5-4,4.4-4,4.4c0,0-4.6,3-5.1,3.2s-7.7,2.3-8.3,2.4-3.1.5-3.6.5-9.7-2.7-9.7-2.7l-4.8-2.6-8.6-9.9-13.9-14.7-6.5-12.3s1.5-16,2.4-17.7,4.3-15.3,4.4-15.6-.4-6.9-.6-7.6-1.8-9.5-1.8-9.5c0,0,.8-8.1.9-8.4s1.3-5.8,1.9-6.8,2.5-6,2.8-6.7.9-3.5.9-3.5h0Z"/>
      <path class="st7" d="M399.8,136.7s-2.8,1.6-3.2,2.7c0,0,1-.7,1.8-.5,0,0-3,4.3-2.7,7.5,0,0,1.4-1.2,2.5-1.5,0,0-1.8,6-.9,8.7l1-1.4s1.5,7.4,5.1,9.6c0,0-1.2-6.7-3-12,0,0,12.6,12,14.7,27.1v4l3.8,4.7s2.8.4,4.2-.2c0,0-3.6-5.7-2.2-9l4.2-.5s3.5-1,3.7-1.1,2.8,0,2.8,0l1.5,3.5v2.7l1.8,3.7,1.4,3,.4,1,4,2s-2.5,3.4-3,3.5-14.9-.2-16.4-.6-7.1-1.4-7.1-1.4c0,0-5-9.6-6-10.7s-16.2-18.4-17.1-19.8-3.6-13.2-3.6-14.3,0-5.2.3-6.1.6-2.6,1.2-3.7.8-1.8,1.4-2.2,5-.6,5-.6c0,0,3.1-.2,3.4,0s.9,2,.9,2h.1Z"/>
      <path class="st7" d="M464.1,136.7s2.8,1.6,3.2,2.7c0,0-1-.7-1.8-.5,0,0,3,4.3,2.7,7.5,0,0-1.4-1.2-2.5-1.5,0,0,1.8,6,.9,8.7l-1-1.4s-1.5,7.4-5.1,9.6c0,0,1.2-6.7,3-12,0,0-12.6,12-14.7,27.1v4l-3.8,4.7s-2.8.4-4.2-.2c0,0,3.6-5.7,2.2-9l-4.2-.5s-3.5-1-3.7-1.1-2.8,0-2.8,0l-1.5,3.5v2.7l-1.8,3.7-1.4,3-.4,1-4,2s2.5,3.4,3,3.5,14.9-.2,16.4-.6,7.1-1.4,7.1-1.4c0,0,5-9.6,6-10.7s16.2-18.4,17.1-19.8,3.6-13.2,3.6-14.3,0-5.2-.3-6.1-.6-2.6-1.2-3.7-.8-1.8-1.4-2.2-5-.6-5-.6c0,0-3.1-.2-3.4,0s-.9,2-.9,2h-.1Z"/>
      <path class="st9" d="M412.2,134.9l3.3,1.9s1.6,1.6,2.2,2,1.2,1.4,1.6,1.7,4.1,2.6,1.4,3-3.3.5-3.3.5c0,0-3,.2-3.8-.6s-2-1.4-2.2-2.1-.8-3.6-.8-3.6v-1.1l1.5-1.8h0Z"/>
      <path class="st9" d="M443,142.1l1.9-2.1,4.1-3.5s1.2-1.2,1.6-.8.7,1.3.8,1.6.2.8.4,1.5.2,2.7.2,2.7l-1.4,1.4-1.7,1.1-2.4,1-2.2-.2-1-1.5-.3-1.2Z"/>
      <path class="st7" d="M423.8,171.4s1.7-1.9,2-2,.8,0,1.7-.2,1.2,0,2.6-.3,2.1-.2,2.8,0,3.2,0,3.6.2.8,0,1.1.4,1.9,2,2.3,2.3.4,1,.4,1l-2.9.8h-3.8c-.3,0-9,.3-9,.3l-.7-2.4h-.1Z"/>
      <path class="st7" d="M392.4,109.4s1.4-21.9,9.4-27.5c0,0,7,9.3,7.7,18.2l-1.8-1.2s2.2,4.1,1.8,5.6c0,0-7.3,7.7-8,9.7l-3.8,3.8-5.3-8.6h0Z"/>
      <path class="st7" d="M411.6,86.4l2,9.9s.8-4.4-.9-9.5l-1.2-.4h.1Z"/>
      <path class="st7" d="M452.1,86.4l-2,9.9s-.8-4.4.9-9.5l1.2-.4h-.1Z"/>
      <path class="st7" d="M470.7,109.4s-1.4-21.9-9.4-27.5c0,0-7,9.3-7.7,18.2l1.8-1.2s-2.2,4.1-1.8,5.6c0,0,7.3,7.7,8,9.7l3.8,3.8,5.3-8.6h0Z"/>
      <g>
        <path d="M385.6,140.4c-.4.3-.8.6-1.2,1-.6.6-1.2,1.3-1.8,1.9-.1.1-.2.2-.4.4v-.6c.1-4.2,1.6-7.9,3.8-11.4,1.5-2.3,3.2-4.6,4.8-6.9.9-1.4,1.7-2.8,2.5-4.3,0-.2.1-.4,0-.6-.6-2.3-1-4.6-1.3-6.9-.3-2.9-.5-5.7-.4-8.6,0-3.1.4-6.2.9-9.2.7-4.2,1.8-8.4,3.5-12.3,1.8-4.2,4.1-8,7.4-11.1.6-.6,1.3-1.2,2-1.7,1.3-.9,2.4-.8,3.3.4.6.8,1.1,1.6,1.5,2.5,2.7,5.6,5.3,11.1,8,16.7.7,1.5,1.4,3,2.1,4.5.1.2.2.5.3.7.5.9,1.1,1.1,2.1.9,1.2-.3,2.3-.7,3.5-.8,1.2,0,2.5,0,3.7,0,.5,0,1,.3,1.4.6.3.2.6.2.9,0,.8-.5,1.8-.7,2.8-.7,1.8,0,3.6.2,5.4.8,1.6.6,2.2.3,2.9-1.3,2.3-4.9,4.5-9.9,6.8-14.8,1.3-2.7,2.7-5.4,4.1-8.1.2-.4.5-.7.8-1.1.9-1,1.9-1.2,3-.4.9.6,1.8,1.4,2.6,2.1,2.8,2.7,4.8,5.9,6.5,9.4,1.9,4,3.1,8.1,3.9,12.4.7,3.6,1.1,7.3,1.1,11s-.4,10.1-1.7,15v.8c1.1,2.3,2.6,4.4,4.1,6.5,1.6,2.2,3.1,4.3,4.4,6.7s2.2,4.9,2.5,7.6c0,.7,0,1.4.1,2.1h-.2c-1.1-1.1-2.2-2.2-3.3-3.3h0c0,.2.2.5.3.7,1.1,2.8,1.8,5.7,2.1,8.8.3,3.2,0,6.3-1.1,9.3-.3.8-.7,1.6-1,2.4,0,.1-.1.2-.3.4-.4-1.1-.7-2.2-1-3.4-.3,1.1-.5,2.1-.8,3-1.1,3.2-2.9,5.9-5.1,8.4-2.5,2.8-5.3,5.3-8.1,7.7-2.5,2.2-5,4.3-7.2,6.8-.3.3-.4.6-.5,1-.2,1.2-.7,2.2-1.4,3.1-2,2.2-4,4.4-6,6.7-1,1-2.1,1.5-3.6,1.5h-4c-.2,0-.4,0-.5.1-1.6,1.3-3.5,2-5.6,2.3-2.3.4-4.5.2-6.8-.5-1.3-.4-2.4-1-3.4-1.8-.2-.1-.4-.2-.6-.2h-4.3c-1.1,0-2.2-.3-3-1.2-1.7-1.8-3.4-3.7-5.1-5.5-.3-.3-.6-.7-.9-1-1-1.1-1.7-2.3-1.9-3.7,0-.2-.1-.4-.3-.5-1.9-1.9-3.8-3.8-5.8-5.6-2.9-2.6-5.9-5.1-8.6-7.9-2.4-2.5-4.4-5.2-5.8-8.3-.6-1.4-1-2.8-1.2-4.3h-.1c-.3,1.1-.7,2.1-1,3.2,0,0-.1-.1-.2-.2-1.3-2.5-2-5.1-2.2-7.9-.3-4.6.6-8.9,2.3-13.1v-.2h.3ZM439,172.4h0c-.8-.6-1.7-1.2-2.8-1.4-2.6-.7-5.2-.7-7.8-.2-1.2.2-2.4.7-3.3,1.5,4.6-.9,9.2-1.1,13.9.2h0ZM447.8,133.5h0c.7-.9,1.4-1.9,2.5-2.5v-.2c-.9.2-1.8.4-2.7.7v-.3c.4-1.8.4-3.5,0-5.3,0-.3-.2-.5-.6-.4-1.6.2-3.2.4-4.7,1.1,0-.9.4-1.6,1-2.3h-.9c-.7.2-1.3.4-2,.6-.1-1.1-.7-2-1.9-2.6-.4,1.2-.9,2.3-1.3,3.5-1.2,3.5-1.9,7.1-1.8,10.9,0,1.4.6,2.6,1.4,3.6.2.3.6.6.9.8h.1v-2.5c.2.2.2.3.3.5.5.7.9,1.5,1.4,2.1.4.5,1,.6,1.6.3s.7-.4,1-.6c1.3-1.2,2.7-2.4,3.9-3.7,2-2,4.1-3.7,6.9-4.5h.2c-1.8-.4-3.6-.2-5.2.5h-.4l.3.3ZM400.1,114.7s.2,0,.3-.2c2.8-2.8,5.7-5.5,8.9-7.9,2.2-1.7,4.5-3.3,7-4.5.7-.4,1.1-.9,1-1.7-.1-1.1-.3-2.2-.6-3.3-.8-3.4-2.2-6.6-3.6-9.8v-.2c-.1.6-.1,1-.1,1.5v1.5c0,.5-.1.9-.2,1.4-1-3.7-1.8-5.8-3.1-8.7-1.1-2.3-2.3-4.5-3.9-6.5-.5-.7-.8-.7-1.4,0-1.3,1.3-2.5,2.7-3.4,4.3-3.1,5.2-5.4,10.7-6.6,16.6-.6,3.3-.8,6.6-.4,10,0,.3,0,.6.2.9,0,.3.1.5.2.8.2-3.9.7-7.6,1.8-11.4.4,1.3.7,2.4,1.1,3.5h.1c0-2.2.2-4.4.6-6.6.5-2.8,1.2-5.5,2.4-8,.3-.7.7-1.3,1.1-2,3.4,3.8,5.3,8.2,6.2,13.1-.9-.8-1.9-1.4-3.2-1.7.1.2.2.3.2.4,1.5,2.6,2.6,5.4,3.4,8.3,0,0,0,.3-.1.4-2.6,2.2-4.8,4.8-6.6,7.7-.5.7-.8,1.5-1.3,2.2h0ZM463.8,114.8h0c-.1-.3-.2-.5-.3-.8-2-3.5-4.5-6.6-7.5-9.2-.2-.2-.2-.3-.1-.5.7-1.8,1.3-3.6,2-5.4.5-1.1,1.1-2.2,1.7-3.4-.6.3-1.2.5-1.7.8s-1,.7-1.5,1c.3-3.7,3.6-10.7,6.2-13.1,3,5.2,3.8,10.8,4.1,16.6.3-1.1.7-2.3,1-3.4h.1c.3,1.3.6,2.5.8,3.8.2,1.3.4,2.6.6,3.9.1,1.3.2,2.5.3,3.8h.1c.2-1.3.4-2.5.5-3.8.2-3.2-.1-6.5-.9-9.6-1.1-4.6-2.9-9-5.2-13.2-1.2-2.1-2.5-4.1-4.2-5.9-.9-.9-1.1-.8-1.8,0-3,4-5,8.5-6.3,13.3-.1.5-.3,1-.4,1.5h-.2c0-1.5-.2-2.9-.3-4.3h0c-1.4,3.3-2.8,6.5-3.6,9.9-.3,1.1-.4,2.2-.6,3.3,0,.8.3,1.3,1,1.6.7.3,1.3.7,2,1.1,4,2.5,7.6,5.4,11,8.5,1.1,1,2.1,2.1,3.2,3.2v.2ZM422.4,179.6c1,.8,2.1,1.4,3.3,1.6,0,0,.2,0,.2.1.7.6,1.7.4,2.1-.4.6-1.1.2-3-.8-3.8-.8-.6-1.8-.4-2.2.5-.1.3-.2.6-.3.9-.1.5-.2,1.1-.3,1.6-1.2-.7-2.2-1.6-3-2.7-.3-.4-.6-.9-.7-1.5-.4-1.7.1-3.3,1-4.7.9-1.5,2.4-2.2,3.9-2.7,1.7-.6,3.5-.8,5.3-.8s4.8,0,7.1.8c2.3.7,4.1,2.1,4.7,4.6.5,1.8.5,3.4-.9,4.9-.4.4-.7.8-1.1,1.1-.5.4-1,.7-1.6,1.1v-.6c-.1-.7-.2-1.4-.5-2.1-.3-.9-1.4-1.1-2.2-.4-.3.2-.5.6-.6.9-.5,1-.6,2.1,0,3.1.5.7,1.3.8,2,.3.1-.1.3-.2.5-.2,1.2-.3,2.3-.7,3.1-1.7h0c0,.1,0,.3-.1.4-1.3,2.3-3.3,3.7-5.8,4.3-.9.2-1.9.3-2.8.5v.9c0,.9.2,1.2,1.1,1.3s1.9.2,2.8.4c2,.6,4.1,1.2,6.1,1.9,1.4.5,2.5.3,3.5-.8,1.5-1.7,3.1-3.3,4.6-4.9.6-.6.8-1.3.8-2.1,0-2.7.4-5.3.9-8,.9-4.5,2.4-8.8,4.4-12.9.9-1.9,2-3.6,3-5.5h0v.5c-.5,1.4-1,2.9-1.5,4.3-1,3.5-1.7,7.1-2.3,10.7-.1.8-.2,1.6-.3,2.6.2-.2.3-.3.4-.4,1.5-1.4,3-2.9,4.6-4.3,2.1-1.8,3.8-3.9,5.1-6.4.3-.5.5-1.1.8-1.7.7,1.3,1,2.7,1.2,4.2,1.7-4.8,1.8-9.7.2-14.6,1.6.9,2.5,2.2,3.5,3.5.2-1.1,0-2.1,0-3.1-.4-4-2-7.6-4.6-10.8,1.6.2,3,.8,4.3,1.6-1-1.8-2.4-3.2-4.3-4.1-2.2-.9-4.3-.5-6.4.5-.1,0-.2.3-.2.4-.1,1.3-.2,2.7-.4,4-.3,2-.9,3.9-2.1,5.6-.4.6-.8,1.1-1.3,1.6h-.1c.4-3.2.8-6.3.5-9.5-1.6,1.1-3.1,2.2-4.4,3.5v.2c.7-.2,1.3-.3,1.9-.5-1.2,1.8-2.9,2.8-4.8,3.4h0c0,.1,2.6.1,2.6.1-2.5,2.5-5.2,2.6-8.2.7,0,2.5.3,4.8,1.1,7.2-3.2-2.1-6-4.5-8-7.7-1.4,6.7-1.5,13.4.8,20-4.2-1.2-8.4-1.2-12.6,0,2.3-6.6,2.2-13.3.8-20-2,3.2-4.8,5.6-7.9,7.6.3-1.2.6-2.4.8-3.6.2-1.2.3-2.4.2-3.6-3.6,2.4-6.8.9-8.1-.8h2.6c-.2-.1-.4-.3-.7-.3-1.5-.6-2.9-1.4-3.9-2.7,0-.1-.1-.3-.2-.5h0c.6.3,1.1.5,1.8.5v-.2c-1.4-1.1-2.9-2.2-4.3-3.4h-.1c-.3,3.2.1,6.3.5,9.5-.2-.2-.4-.4-.5-.6-1-1.2-1.7-2.5-2.2-3.9-.8-2.2-1.1-4.4-1-6.7,0-.2,0-.4-.2-.4-1.7-.9-3.4-1.4-5.4-.9-1.5.4-2.8,1.2-3.8,2.3-.6.6-1,1.4-1.5,2.1h0c.6-.4,1.2-.7,1.8-1,.8-.3,1.6-.6,2.5-.7-4.2,5-4.9,11.1-4.5,13.8.5-.6,1-1.3,1.5-1.9.7-.8,1.5-1.4,1.9-1.5-2,6-.8,12.4.3,14.6.1-1.5.4-2.9,1.1-4.3,0,.2.1.3.1.4s0,.2.1.3c1,2.4,2.6,4.5,4.5,6.4s3.9,3.7,5.9,5.6h.2c-.7-6.1-1.9-12.1-4.1-17.9.8,1.2,1.5,2.5,2.2,3.8,2.6,4.9,4.4,10,5.4,15.4.4,2.1.7,4.3.7,6.5s.4,2.4,1.4,3.3c.7.7,1.3,1.4,2,2.1.9,1,1.9,1.9,2.8,2.8.6.5,1.3.6,2,.4.7-.2,1.5-.5,2.2-.7,1.7-.6,3.5-1.2,5.3-1.6.8-.1,1.7-.2,2.6-.4.4,0,.6-.3.7-.7v-1.5c-.8,0-1.5-.2-2.1-.3-2.7-.5-4.9-1.8-6.4-4.1-.1-.2-.2-.4-.3-.6h0l.3.5ZM425.6,138.8h.1v2.5c1.4-.9,2.1-2.2,2.3-3.7.2-1.6,0-3.2,0-4.7-.3-2.8-1-5.4-1.9-8-.3-.8-.6-1.6-.9-2.4-1.1.6-1.7,1.5-1.8,2.7-.9-.5-1.8-.8-2.8-.8.6.7.9,1.4,1,2.2-1.5-.8-3.1-1-4.7-1.1-.3,0-.4,0-.5.3-.1.8-.3,1.6-.3,2.4s.1,2.2.2,3.2c-.8-.2-1.7-.4-2.6-.6h0c1,.8,1.8,1.7,2.5,2.7-2.4-.9-4.5-1.2-5.6-.7.2,0,.4.1.6.2,1,.5,2,.8,2.9,1.4,1.6.9,2.7,2.2,4,3.5,1.2,1.2,2.5,2.3,3.8,3.4,1.1.9,1.9.7,2.7-.5.2-.2.3-.4.4-.7.2-.4.5-.9.7-1.4h-.1ZM424.2,191c.6.1,1.1.2,1.6.4,1.5.5,3,.9,4.5,1.4,1.1.4,2.2.5,3.3,0,.5-.2,1.1-.4,1.6-.6,1.5-.4,3-.9,4.4-1.3-2.9-2.5-11.8-2.5-15.4,0h0ZM415.4,138.1c-.4-.3-.8-.6-1.2-.9-.2-.2-.4-.2-.6,0-1.1,1.1-1.4,2.8-.6,4.2,1.2,2.3,4.5,2.5,6,.4.2-.2.2-.4,0-.6-.4-.3-.7-.7-1.1-1-.5,1-1.1,1.4-2,1.3-.7,0-1.2-.6-1.4-1.3-.2-.8,0-1.4,1-2h0ZM446.1,140.1c-.4.4-.7.7-1.1,1-.3.2-.2.4,0,.7,1.1,1.5,3,1.9,4.6,1,2-1.1,2.3-4,.7-5.5-.1,0-.3-.2-.4-.2-.5.3-.9.7-1.4,1,.9.7,1.2,1.3,1,2.1-.2.7-.8,1.2-1.4,1.2-.9,0-1.5-.4-1.9-1.3h-.1Z"/>
        <polygon points="409.3 143 409.3 143 409.3 143 409.3 143"/>
        <path d="M459.9,155.2h0Z"/>
        <path d="M441.5,179.5h0Z"/>
        <path d="M422.4,179.6h0Z"/>
        <path d="M447.8,133.5h0Z"/>
      </g>
    </g>
  </g>
</svg>