<?xml version="1.0" encoding="UTF-8"?>
<svg xmlns="http://www.w3.org/2000/svg" version="1.1" viewBox="0 0 864 864">
  <!-- Generator: Adobe Illustrator 30.1.0, SVG Export Plug-In . SVG Version: 2.1.1 Build 136)  -->
  <defs>
    <style>
      .st0 {
        fill: #000104;
      }

      .st1 {
        fill: #ecdfd0;
      }

      .st2 {
        fill: #7e6f96;
      }

      .st2, .st3 {
        display: none;
      }

      .st4 {
        fill: #d6c8bf;
      }

      .st5 {
        fill: #fff;
      }

      .st6 {
        fill: #f1f1f2;
      }

      .st7 {
        fill: #c7c8ca;
      }

      .st8 {
        fill: #808285;
      }

      .st9 {
        fill: #3b3b3c;
      }

      .st10 {
        fill: #ffc629;
      }

      .st11 {
        font-family: ArenoRegular, Areno;
        font-size: 81.4px;
        letter-spacing: .2em;
      }

      .st11, .st12 {
        fill: #ff4713;
      }

      .st13 {
        fill: #d6006d;
      }

      .st14 {
        fill: #4d5a31;
      }

      .st15 {
        fill: #eb80a8;
      }
    </style>
  </defs>
  <g id="Background_Colors">
    <g id="Military_Green" class="st3">
      <rect id="Team_Color__x28_change_as_needed_x29_" class="st14" x="1" width="863" height="864"/>
    </g>
    <g id="Bright_Pink" class="st3">
      <rect id="Team_Color__x28_change_as_needed_x29_1" data-name="Team_Color__x28_change_as_needed_x29_" class="st13" x="1" width="863" height="864"/>
    </g>
    <g id="Pink" class="st3">
      <rect id="Team_Color__x28_change_as_needed_x29_2" data-name="Team_Color__x28_change_as_needed_x29_" class="st15" x="1" width="863" height="864"/>
    </g>
    <g id="Natural" class="st3">
      <rect id="Team_Color__x28_change_as_needed_x29_3" data-name="Team_Color__x28_change_as_needed_x29_" class="st1" x="1" width="863" height="864"/>
    </g>
    <g id="Heather_Dust" class="st3">
      <rect id="Team_Color__x28_change_as_needed_x29_4" data-name="Team_Color__x28_change_as_needed_x29_" class="st4" x="1" width="863" height="864"/>
    </g>
    <g id="Grey__x28_Dark_x29__copy" class="st3">
      <rect id="Team_Color__x28_change_as_needed_x29_5" data-name="Team_Color__x28_change_as_needed_x29_" class="st9" x="1" width="863" height="864"/>
    </g>
    <g id="Grey__x28_Mid_x29_" class="st3">
      <rect id="Team_Color__x28_change_as_needed_x29_6" data-name="Team_Color__x28_change_as_needed_x29_" class="st8" x="1" width="863" height="864"/>
    </g>
    <g id="Grey__x28_Light_x29_" class="st3">
      <rect id="Team_Color__x28_change_as_needed_x29_7" data-name="Team_Color__x28_change_as_needed_x29_" class="st7" x="1" width="863" height="864"/>
    </g>
    <g id="White" class="st3">
      <rect id="Team_Color__x28_change_as_needed_x29_8" data-name="Team_Color__x28_change_as_needed_x29_" class="st6" x="1" width="863" height="864"/>
    </g>
    <g id="Black" class="st3">
      <rect id="Team_Color__x28_change_as_needed_x29_9" data-name="Team_Color__x28_change_as_needed_x29_" class="st0" x="1" width="863" height="864"/>
      <rect id="Team_Color__x28_change_as_needed_x29_10" data-name="Team_Color__x28_change_as_needed_x29_" class="st0" x="1" width="863" height="864"/>
      <text/>
    </g>
    <rect id="Team_Color__x28_change_as_needed_x29_11" data-name="Team_Color__x28_change_as_needed_x29_" class="st2" x="1" width="863" height="864"/>
  </g>
  <g id="Lines">
    <g>
      <g>
        <path class="st12" d="M193.3,377.3c4-37.4,16.6-72.3,35.6-102.7h-27.8c-17.1,31-28.3,65.8-31.9,102.7h24.1Z"/>
        <path class="st12" d="M168.9,426.3c3.2,38.2,14.5,74.2,32.2,106.2h27.8c-19.6-31.4-32.3-67.5-35.9-106.2h-24.1Z"/>
      </g>
      <g>
        <path class="st12" d="M702.3,376.8c-3.7-36.7-14.8-71.3-31.8-102.2h-27.8c18.9,30.3,31.4,65,35.5,102.2h24.1Z"/>
        <path class="st12" d="M678.7,425.2c-3.5,39.1-16.2,75.6-36,107.3h27.8c17.8-32.3,29.1-68.6,32.3-107.3h-24Z"/>
      </g>
      <g>
        <g>
          <polygon class="st7" points="232.2 386.4 39.8 386.4 72.5 372 227.4 372 232.2 386.4"/>
          <polygon class="st7" points="248.3 435.1 93.4 435.1 51.2 420.7 243.6 420.7 248.3 435.1"/>
          <polygon class="st7" points="63.6 396.4 68.4 410.7 240.3 410.7 235.5 396.4 63.6 396.4"/>
        </g>
        <g>
          <polygon class="st7" points="642 386.4 834.4 386.4 801.7 372 646.8 372 642 386.4"/>
          <polygon class="st7" points="625.8 435.1 780.7 435.1 823 420.7 630.6 420.7 625.8 435.1"/>
          <polygon class="st7" points="810.6 396.4 805.8 410.7 633.9 410.7 638.7 396.4 810.6 396.4"/>
        </g>
      </g>
    </g>
  </g>
  <g id="Logo">
    <g>
      <path class="st7" d="M435.8,577.1c28.8-.2,41.4-8.3,44.9-20.2,3.4,0,12.3-3.4,12.3-3.4,0,0-15.2-19.1-11.4-31.4,4.7-13.3,26.8-23.4,45.5-27.1,10.7-2.1,32.6-3,32.6-3,0,0-3.1-7.7-5.3-10.6,1.6,0,11.8.8,11.8.8,0,0-3.2-7.9-3.7-8.7,1.5.1,14.6.5,14.6.5l-4.5-6.8,9.7.3s-7.6-8.9-10.1-12.4c3.1.5,10.1.6,10.1.6l-6.6-7.7c-3.3-3.8-3.2-15.3-3.1-25.5,0-3.9,0-7.9,0-11.8-.2-6-1-10.9-1.9-14.8l8.7,7.9s-5-33.3-14.9-46c.3.1.6.2.9.3l11.7,4.8s-8.7-19.4-20.5-26.4l10.2-1.8s-10.8-7-15.9-8.7c13.4-13.3,22.2-34.4,12.7-54.3-3.4-7.1-8.9-8.6-12.9-8.6-9.9,0-34.7,19.1-35.2,19.4,0,0-18.4-15-53.6-13.7l2.5-3.6s-19.4-1.4-28.3,5.9c-8.9-7.3-28.3-5.9-28.3-5.9l2.5,3.6c-35.2-1.3-53.6,13.7-53.6,13.7-.4-.3-25.3-19.4-35.2-19.4s-9.5,1.5-12.9,8.6c-9.5,19.9-.6,40.9,12.7,54.3-5.1,1.7-15.9,8.7-15.9,8.7l10.2,1.8c-11.8,7-20.5,26.4-20.5,26.4l11.7-4.8c.3-.1.6-.2.9-.3-9.9,12.6-14.9,46-14.9,46l8.7-7.9c-.9,3.8-1.7,8.7-1.9,14.8-.1,3.9-.1,7.9,0,11.8,0,10.2.1,21.7-3.1,25.5l-6.6,7.7s7-.2,10.1-.6c-2.6,3.5-10.1,12.4-10.1,12.4l9.7-.3-4.5,6.8s13-.4,14.6-.5c-.5.8-3.7,8.7-3.7,8.7,0,0,10.3-.8,11.8-.8-2.2,3-5.3,10.6-5.3,10.6,0,0,22,.8,32.6,3,18.6,3.7,40.8,13.8,45.5,27.1,3.8,12.3-11.4,31.4-11.4,31.4,0,0,8.9,3.3,12.3,3.4,3.5,11.8,16.1,20.4,44.9,20.2Z"/>
      <path class="st0" d="M435.8,572.8c9.2,0,16.1-.4,21.6-1.8,18.3-4.6,20-18.3,20.2-18.7,3.6,1.1,8.3-.6,8.3-.6-7.3-9-10.9-23.8-8.4-30.9,5.7-16.1,31-26.3,48.7-29.9,11.1-2.2,27.2-2.8,27.2-2.8-1-2.4-4-6.7-7.9-10.2,4.8-.6,8.6-.9,14.3-.4-1.2-3-5.9-8.2-5.9-8.2,5.7-.4,13.7.6,14.6.6-1.4-1.8-2.8-4-4-6l9.3.5c-4.8-4.5-10.6-15.1-10.6-15.1,0,0,5.2,1.5,9.1,1.8-5.7-6.7-3.7-24.4-4.2-40-.5-15.6-5.1-22.9-5.1-22.9,5.1,0,9.2,3.9,9.2,3.9-3.5-16.6-13.8-37.7-17.8-40.8,3-.6,12.2,3.2,12.2,3.2-6.7-11.4-15-15.9-21.8-18.9,4.1-1.8,8.9-2.6,8.9-2.6-1.8-1-6.4-3.4-10.9-5.3.1-.1.2-.3.3-.4,14.5-11.8,25.5-33.3,16.1-53.2-7-14.8-25.5,0-40.4,11.4-2.1,1.6-4.3,3.2-6.6,4.7-1.6-1-4.9-2.8-9.4-4.9,2.7-.7,5.1-1.1,5.1-1.1-29.3-15.6-52.6-10.2-59.3-8,.6-2.3,3.5-4.6,3.5-4.6-9.7-1.5-14.5,3.6-16.5,6.8h0c-2-3.1-6.7-8.2-16.5-6.8,0,0,2.9,2.3,3.5,4.6-6.8-2.2-30-7.6-59.3,8,0,0,2.4.5,5.1,1.1-4.4,2.1-7.7,4-9.4,4.9-2.3-1.5-4.5-3-6.6-4.7-14.8-11.4-33.3-26.2-40.4-11.4-9.6,20.1,1.8,41.9,16.5,53.6-4.6,2-9.2,4.4-11,5.4,0,0,4.8.8,8.9,2.6-6.8,2.9-15.1,7.5-21.8,18.9,0,0,9.3-3.8,12.2-3.2-4,3-14.3,24.2-17.8,40.8,0,0,4.1-3.9,9.2-3.9,0,0-4.6,7.3-5.1,22.9-.5,15.5,1.5,33.3-4.2,40,3.9-.2,9.1-1.8,9.1-1.8,0,0-5.8,10.6-10.6,15.1l9.3-.5c-1.2,2-2.7,4.2-4,6,.9,0,9-1,14.7-.6,0,0-4.7,5.2-5.9,8.2,5.7-.5,9.5-.2,14.3.4-4,3.5-6.9,7.8-7.9,10.2,0,0,16,.6,27.2,2.8,17.7,3.5,43,13.8,48.7,29.9,2.5,7.2-1.1,21.9-8.4,30.9,0,0,4.7,1.8,8.3.6.2.4,1.9,14.1,20.2,18.7,5.6,1.4,12.4,1.8,21.6,1.8h0Z"/>
      <path class="st12" d="M479.2,475.7c1.1-1.3,13.3-7.3,13.3-7.3-4.4,7.8-9.8,22.3-9.2,21.6,17.2-20.8,46.2-34.1,58.7-76.7-2.3,2.3-5.8,5.4-9.5,6.5,3.4-7.7,19.6-53.2-11.9-86.4h0s1.7-.2,4.9.2c.9-.3,1.9-.5,2.9-.7,0,0,0,0,0,0,0,0,0,0,0,0,1.7-.3,3.5-.6,5-.7-1.8-1.6-9.8-8.8-18.7-12.2,13-5.9,22.5-18.4,25.6-19.8,5.7-2.4,3.7,9.4,1.1,19.2.7-.9,1.5-1.9,2.2-2.9,13.3-16.9,13.2-38.1,3.9-36.7-11,1.5-23.3,16.6-35.9,21.3-10,3.7-24.9,1.1-25.1-.7,5.6-.6,11.7-2.8,17.6-5.8-4.3-2.6-14.4-8.2-26.9-11.4,1.7-.6,4-1.2,7.1-1.6h0,0s0,0,0,0c0,0,0,0,0,0-.5-.2-11.4-3.9-24.3-2.1-11.2,1.6-24.5,11.3-24.5,11.3,0,0-13.3-9.7-24.5-11.3-12.9-1.9-23.8,1.9-24.3,2.1,0,0,0,0,0,0,0,0,0,0,0,0h0s0,0,0,0c3.1.5,5.4,1.1,7.1,1.6-12.5,3.2-22.6,8.8-26.9,11.4,5.9,3,12,5.2,17.6,5.8-.2,1.8-15.1,4.4-25.1.7-12.6-4.7-24.9-19.8-35.9-21.3-9.3-1.4-9.4,19.8,3.9,36.7.8,1,1.5,1.9,2.2,2.9-2.6-9.8-4.6-21.6,1.1-19.2,3.1,1.4,12.7,13.9,25.6,19.8-8.8,3.4-16.9,10.6-18.7,12.2,1.6.2,3.3.4,5,.7,0,0,0,0,0,0,0,0,0,0,0,0,1,.2,2,.4,2.9.7,3.2-.4,4.9-.2,4.9-.2h0c-31.4,33.2-15.2,78.6-11.9,86.4-3.7-1.1-7.2-4.2-9.5-6.5,12.5,42.7,41.5,56,58.7,76.7.5.6-4.8-13.8-9.2-21.6,0,0,12.2,6,13.3,7.3h86.6Z"/>
      <g>
        <path class="st5" d="M511.1,318.7c12.5-7.6,26.8-26.3,32.5-28.1,7.5-2.4,6.2,11.2,4.8,19-1.3,2.3-2.9,4.6-4.6,6.8-.8,1-1.5,1.9-2.2,2.9,2.6-9.8,4.6-21.6-1.1-19.2-3.1,1.4-12.7,13.9-25.6,19.8-1.2-.5-2.5-.9-3.7-1.2Z"/>
        <path class="st5" d="M360.6,318.7c-12.5-7.6-26.8-26.3-32.5-28.1-7.5-2.4-6.2,11.2-4.8,19,1.3,2.3,2.9,4.6,4.6,6.8.8,1,1.5,1.9,2.2,2.9-2.6-9.8-4.6-21.6,1.1-19.2,3.1,1.4,12.7,13.9,25.6,19.8,1.2-.5,2.5-.9,3.7-1.2Z"/>
        <path class="st5" d="M359.4,418.9c.7-1.4,1.5-2.8,2.5-4.1-9.2-5.5-12.2-16.1-13.2-21-.9,15.7,6.5,22.5,10.7,25.1Z"/>
        <path class="st5" d="M512.2,418.9c-.7-1.4-1.5-2.8-2.5-4.1,9.2-5.5,12.2-16.1,13.2-21,.9,15.7-6.5,22.5-10.7,25.1Z"/>
      </g>
      <path class="st0" d="M532.9,331.7c27.1-21.8,28.1-46.5,24.3-52.8s-11.9-6.6-17-1.9c-14.6,13.7-30.4,16.6-30.4,16.6,0,0-10.5-12.4-21.6-15-37-8.8-51.9,7.7-51.9,7.7,0,0,17.6-.1,36.3,5.2,14.9,4.3,19.1,15.3,12.4,19.2,0,0-5-3.4-10.6-4,11.2,8.6-5.7,14.8-21.2,17.8,7.1.7,9.1,1.9,10.9,8.4,7-4.8,19.7,1,17.6,11.6-.9,4.4-3.9,7-7.1,8.5.5,2.4,4.3,15.4,30.7,21.1,21.3,3.2,24.2,40,4.7,45.1,2.6,6.9,7.1,40-22.1,51.5-6.8,13.2-13.9,31.9-13.9,31.9,0,0,35.4-43.9,68.2-41,21.2-80.3,8.8-117.2-9.2-130Z"/>
      <g>
        <path class="st0" d="M462.5,321.3c-6.8-3-15-1.5-21.2.3-1.9.3-3.3-.4-4.1-1.2l-1.4-1.4-1.4,1.4c-.8.8-2.2,1.5-4.1,1.2-6.2-1.8-14.4-3.3-21.2-.3-9,4-6.4,16.6,4.9,18.1-1.5-2.2-3.4-8.6,1.9-11.5,2.1-1.1,5.8-1.5,9.2-.8,2.8.6,7.2,2.2,8.4,3.1,1.2.9,2.2,1.2,2.2,1.2,0,0,1-.3,2.2-1.2,1.2-.9,5.7-2.5,8.4-3.1,3.4-.7,7.1-.4,9.2.8,5.3,2.9,3.4,9.3,1.9,11.5,11.2-1.5,13.9-14,4.9-18.1Z"/>
        <path class="st0" d="M485.8,306.4c-3.2-3.6-11.6-9.6-23.3-10.1-5.1-.2-8.6.1-11.6.9-3.1.1-7.5.6-10.4-1.5-.6-.4-1.2-.9-1.7-1.4,2.6-.7,5.6-1.5,8.2-2.3,12.2-3.7,25.1-.4,26.9,0-1.4-1.4-6.5-5.9-22.7-7.2-8.4-.6-13,2.3-15.4,5.3-2.4-3-7-5.9-15.4-5.3-16.2,1.2-21.3,5.7-22.7,7.2,1.8-.4,14.7-3.7,26.9,0,2.6.8,5.7,1.6,8.2,2.3-.5.5-1.1,1-1.7,1.4-2.9,2.1-7.3,1.7-10.4,1.5-3-.8-6.4-1.1-11.6-.9-11.8.6-20.2,6.5-23.3,10.1-6,6.8-5.6,14.4,4.2,16.1-1.7-5.2,3.5-20.2,21.6-17.9,5.5.7,3.4,6.8,6.5,5.2,4-2.2,8.3-1.3,10.6-.3,4.5,3.2,4.1,7.4,7.1,8.6,3-1.2,2.5-5.4,7.1-8.6,2.3-1,6.7-1.9,10.6.3,3,1.7,1-4.5,6.5-5.2,18.1-2.3,23.4,12.7,21.6,17.9,9.8-1.8,10.3-9.3,4.2-16.1Z"/>
        <path class="st0" d="M425.4,339.4c6.1-.7,9.7-2.1,10.4-3.5.7,1.5,4.3,2.8,10.4,3.5,4.6.5-2.8,3.5-5.3,4.1-2.8.7-5.1,3.8-5.1,3.8,0,0-2.3-3.1-5.1-3.8-2.4-.6-9.9-3.6-5.3-4.1Z"/>
        <path class="st0" d="M521.9,386.2c4.1,21.3-4.9,29.8-9.7,32.7-.9-1.8-2-3.5-3.3-5.1-7.8-8.5-20.5-8.7-29.6-6.2-4.2,1.2-7.7,3.1-10.4,5.1-1.2-2.2-3.3-4-6.2-5.4-5.7-2.7-8.7-.6-8.7-.6,0,0,8,.5,11.2,9-1.3,1.3-2.3,2.4-2.9,3.2-1.3-2-3.1-3.9-5.8-5.1,0,0,6.2,8.4,3.7,23.2-1,6,4.3-4.6,4.6-7.7,0-.8,0-1.9,0-3.3,7.9-12.8,36.6-20.8,41.3-1.5-1.4,4.8-10.6,17.5-27.2,25.9,0,0,20.7-5.3,27.7-15.9-.2,3.2-.7,6.1-1.4,8.8-3.7,4.2-13,13-29.1,15.9,0,0,5.7,1.2,12.4,0,1.9-.4,7.3-1.8,11.7-4.3-2.1,3.3-4.2,5.7-5.6,7.2-.4.3-.7.6-1,.9-2.6.9-10,3-19,2.9,0,0,2.6,1.1,8.1,2.3.9.2,2,.3,2.9.4-.6.3-1.3.5-2,.8-6.4,2.2-18.5,7.4-37,2.5-2.6-.7-5-2.4-6.9-4,1.6-3.6,6.1-11.6,14.5-13.3,1.2-.2,2.7-1.2,4-3.4,2.1-3.5-6.3-8.5-8.5-7.8-2.3.8-5.8,3-13.9,3.6-8.2-.6-11.7-2.8-13.9-3.6s-10.6,4.3-8.5,7.8c1.3,2.2,2.8,3.2,4,3.4,8.4,1.7,12.9,9.7,14.5,13.2-1.9,1.7-4.4,3.4-6.9,4.1-18.5,5-30.5-.2-37-2.5-.7-.3-1.4-.5-2-.8,1,0,2-.2,2.9-.4,5.5-1.2,8.1-2.3,8.1-2.3-9,0-16.4-2.1-19-2.9-.3-.3-.7-.6-1-.9-1.5-1.5-3.6-3.8-5.6-7.2,4.4,2.5,9.9,3.9,11.7,4.3,6.7,1.3,12.4,0,12.4,0-16-2.9-25.3-11.6-29.1-15.9-.7-2.7-1.2-5.6-1.4-8.8,7,10.6,27.7,15.9,27.7,15.9-16.6-8.4-25.8-21.1-27.2-25.9,4.7-19.3,33.4-11.3,41.3,1.5-.2,1.3-.2,2.5,0,3.3.3,3.1,5.7,13.8,4.6,7.7-2.5-14.9,3.7-23.2,3.7-23.2-2.7,1.2-4.5,3-5.8,5.1-.6-.7-1.6-1.9-2.9-3.2,3.2-8.6,11.2-9,11.2-9,0,0-3-2-8.7.6-2.9,1.3-5,3.2-6.2,5.4-2.7-2-6.2-3.9-10.4-5.1-9.1-2.5-21.8-2.4-29.6,6.2-1.4,1.5-2.5,3.2-3.3,5.1-4.8-2.9-13.8-11.4-9.7-32.7,0,0-13.1,16.1-1.8,38.3,2.9,4.4,6.7,8.6,9.3,11.3,1,9.2,3.8,17.2,8.8,24.2,9.2,12.6,23.7,18.1,48.2,22.2,13,2.1,21.6,1,21.6,1,0,0,8.6,1.1,21.6-1,24.5-4,39-9.6,48.2-22.2,5.1-6.9,7.9-15,8.8-24.2,2.6-2.7,6.4-6.9,9.3-11.3,11.3-22.2-1.8-38.3-1.8-38.3Z"/>
        <path class="st0" d="M443.7,388.1c-2.7,1.1-6.1,5.2-7.6,8.4-.1.2-.2.5-.3.8,0-.3-.1-.5-.3-.8-1.4-3.2-4.8-7.3-7.6-8.4,0,0-3.3,1.5-6.1,4.4,0,0,5.7-1.2,9.8,2.4,1.6,1.4,3.7,4.4,4.1,5h0s0,0,0,0c0,0,0,0,0,0h0c.4-.6,2.5-3.6,4.1-5,4.2-3.6,9.8-2.4,9.8-2.4-2.7-2.9-6.1-4.4-6.1-4.4Z"/>
      </g>
      <g>
        <path class="st0" d="M415.6,380.2c.4-7.6,9.7-10.5,11-10.7-1-.8-2.9-1.3-4.7-1.7,5.7-6.5,2.2-14.3-4.1-16.4-4.5-1.5-11.1.2-11.1.2,0,0,2.3,25.8,2.2,28.4-.4,10.6,10.8,10,10.8,10,0,0-4.3-4.9-4-9.8Z"/>
        <path class="st0" d="M370.5,341.8h0c-2.9,1.1-1.8-2.7-1.5-3.8.9-1.8,2.3-3.7,4.4-6-5.9.6-15.7,11.7-14.5,23.2.3-1.6.8-3.5,3.1-4.9-1.6,5.8,2.5,13.9,2.5,13.9,0,0,7.7-15.5,15.9-23.1-3.1-.7-6.7-.6-9.9.6Z"/>
        <path class="st5" d="M415.2,395s-7.6-9.7-4.6-20c0,0,14.2-9.4,7.8-21.4-3.1-5.8-13.7-7.3-20.5-4.2-7.4,3.4-8.7,9.6-8.7,9.6,0,0-14.6-3.2-7-19.2-12.5,3.8-25.7,19.2-14.6,32.7-5.1-2.2-7.5,4.2-7.5,4.2l10.9,20.6s12.6,6.5,21.4,5.2c9.9-1.4,9.6-12.9,9.6-12.9l5.2,10.5s5.1-3.6,7.9-5.3Z"/>
        <path class="st0" d="M501.2,341.8h0c2.9,1.1,1.8-2.7,1.5-3.8-.9-1.8-2.3-3.7-4.4-6,5.9.6,15.7,11.7,14.5,23.2-.3-1.6-.8-3.5-3.1-4.9,1.6,5.8-2.5,13.9-2.5,13.9,0,0-7.7-15.5-15.9-23.1,3.1-.7,6.7-.6,9.9.6Z"/>
        <path class="st0" d="M456.1,380.2c-.4-7.6-9.7-10.5-11-10.7,1-.8,2.9-1.3,4.7-1.7-5.7-6.5-2.2-14.3,4.1-16.4,4.5-1.5,11.1.2,11.1.2,0,0-2.3,25.8-2.2,28.4.4,10.6-10.8,10-10.8,10,0,0,4.3-4.9,4-9.8Z"/>
        <path class="st5" d="M456.5,395s7.6-9.7,4.6-20c0,0-14.2-9.4-7.8-21.4,3.1-5.8,13.7-7.3,20.5-4.2,7.4,3.4,8.7,9.6,8.7,9.6,0,0,14.6-3.2,7-19.2,12.5,3.8,25.7,19.2,14.6,32.7,5.1-2.2,7.5,4.2,7.5,4.2l-10.9,20.6s-12.6,6.5-21.4,5.2c-9.9-1.4-9.6-12.9-9.6-12.9l-5.2,10.5s-5.1-3.6-7.9-5.3Z"/>
        <path class="st0" d="M371.3,393.6c-4.6-7-2.6-11.1-1.2-12.8-2.8-1.6-6.5-6.5-7.2-7.7,0,0-7.7,3.3-4.4,20.6,0,0,1.2-3.2,3.4-6,.2.8.5,1.6.8,2.5,1.3,3.6,6.1,9.5,14.2,12.6,8.1,3.1,17.9-.7,17.9-.7-12.6.5-20.2-3.8-23.3-8.6Z"/>
        <path class="st0" d="M413.4,401.2s-4.4-6.2-5.6-11.2c-1.2-5-2.4-6.7-2.4-6.7,0,0-8.1-5.6-13.9-7.3-2.9-.9-7.8-1.2-12-1.2-6.2-.8-11.8-4.4-13.7-6-3.6-3-6.1-7.3-6.1-7.3-1.7,2.9.7,7.8,4,11.6,2.8,3.3,9.7,6.5,12.9,7.9,1.1,1.7,2.2,3.5,2.9,5.3,2.1,4.8,6.9,10.1,14.2,10.8,2.4.2,4,0,5.3-.3.6,1.7,1.4,4,1.5,5.9.2,3.3,0,4.8,0,4.8,0,0,6.2-6.1,13-6.1Z"/>
        <path class="st0" d="M405.3,372.9c-2.7-2.6-3.3-6.6-1.3-10.5,2-4,9.8-6.1,9.8-6.1,0,0-8.8-2.3-16.6,2.2-5.1,2.9-5.3,4.6-5.3,4.6,0,0,3.6-1.3,6.3-1.5-.5.7-.9,1.4-1.2,2.3-2.8,6.3,4.1,10.1,4.1,10.1,1.5,5.7,5,7.9,5,7.9-1.8-3.6-.8-9-.8-9Z"/>
        <path class="st0" d="M392.9,368.5c-3.6-4.7-9.7-5.2-15.5-6-5.7-1.5-5-6.5-4.5-8.1,1.2-2.6,2.5-4.3,2.5-4.3,0,0-4.9.6-7,7.6-.9,3.1-1.7,7.9,3.8,11.4,0,0-.4-1.6-.7-3.8,2.6,2.1,7.8,2.4,12.8,2.8,6.6.6,12.3,8.1,12.3,8.1,0,0-.2-2.9-3.8-7.7Z"/>
        <path class="st10" d="M394.6,386.6c-.5.7-1.2,1.4-2,1.5-1.4,0-3.7-1.5-4-4.5-2.7-.8-5.2-1-5.2-1,.7,4.6,4.8,9.6,9.8,10.3,3.8.5,5.8-2.6,5.8-2.6,0,0-1.9-1.8-4.4-3.6Z"/>
        <path class="st0" d="M458.3,401.2s4.4-6.2,5.6-11.2c1.2-5,2.4-6.7,2.4-6.7,0,0,8.1-5.6,13.9-7.3,2.9-.9,7.8-1.2,12-1.2,6.2-.8,11.8-4.4,13.7-6,3.6-3,6.1-7.3,6.1-7.3,1.7,2.9-.7,7.8-4,11.6-2.8,3.3-9.7,6.5-12.9,7.9-1.1,1.7-2.2,3.5-2.9,5.3-2.1,4.8-6.9,10.1-14.2,10.8-2.4.2-4,0-5.3-.3-.6,1.7-1.4,4-1.5,5.9-.2,3.3,0,4.8,0,4.8,0,0-6.2-6.1-13-6.1Z"/>
        <path class="st0" d="M466.4,372.9c2.7-2.6,3.3-6.6,1.3-10.5-2-4-9.8-6.1-9.8-6.1,0,0,8.8-2.3,16.6,2.2,5.1,2.9,5.3,4.6,5.3,4.6,0,0-3.6-1.3-6.3-1.5.5.7.9,1.4,1.2,2.3,2.8,6.3-4.1,10.1-4.1,10.1-1.5,5.7-5,7.9-5,7.9,1.8-3.6.8-9,.8-9Z"/>
        <path class="st0" d="M478.8,368.5c3.6-4.7,9.7-5.2,15.5-6,5.7-1.5,5-6.5,4.5-8.1-1.2-2.6-2.5-4.3-2.5-4.3,0,0,4.9.6,7,7.6.9,3.1,1.7,7.9-3.8,11.4,0,0,.4-1.6.7-3.8-2.6,2.1-7.8,2.4-12.8,2.8-6.6.6-12.3,8.1-12.3,8.1,0,0,.2-2.9,3.8-7.7Z"/>
        <path class="st10" d="M477.1,386.6c.5.7,1.2,1.4,2,1.5,1.4,0,3.7-1.5,4-4.5,2.7-.8,5.2-1,5.2-1-.7,4.6-4.8,9.6-9.8,10.3-3.8.5-5.8-2.6-5.8-2.6,0,0,1.9-1.8,4.4-3.6Z"/>
        <path class="st0" d="M500.4,393.6c4.6-7,2.6-11.1,1.2-12.8,2.8-1.6,6.5-6.5,7.2-7.7,0,0,7.7,3.3,4.4,20.6,0,0-1.2-3.2-3.4-6-.2.8-.5,1.6-.8,2.5-1.3,3.6-6.1,9.5-14.2,12.6-8.1,3.1-17.9-.7-17.9-.7,12.6.5,20.2-3.8,23.3-8.6Z"/>
      </g>
      <path class="st5" d="M435.8,542.2c2.8.2,9.2,1.3,16.6,3.2,3.8.9,7.3-.7,10.3-3.6,5.4-5.2,2.8-13.4,4.3-20.8,1.8-8.9,4.3-16.1,6.8-21.8,2.3-6.5,5.2-13.7,7.5-16.8,0,0-4.9,14.9-6.3,23.4,0,.3,0,.6,0,.9,0,0,0,0,0,0,0,0,0,0,0,0,13.2-15.3,29.8-32.1,61-38.9-2.6-4.1-8-6.7-7.9-6.8,5.5-1.5,13.5-1.5,13.5-1.5-1.9-2-3.6-5.2-4.7-7.7,7.3-.7,13.9.4,13.9.4-1.7-5-6.7-15.1-3.7-26.9,1.4-5.5,4.5-22.3,2.4-43.8-3.8-38.3-29-48.2-29-48.2,0,0,9.1-1,23.5,6.6,2.9,1.4,6.2,3.3,10.7,6.7,0,0-6.7-1.2-10.6,0,4.8,1.8,14.9,20.2,19.2,36.2,0,0-3.2-1.3-8.6-1.3,0,0,7.9,16.6,7.4,30.5-.5,13.4-.9,22.7,1.1,30.9-3.5-.2-6.7-2-10.1-4.5.8,5.6,4.3,14.2,7,19.6-2.4-.4-8.4-1.3-11.2-.7,2.7,3.7,6.4,7.2,6.4,7.2,0,0-9.3-.7-14.4.3,0,0,5,5,6.9,8.2-7.6-.1-15.1,2.3-15.1,2.3,0,0,6.2,5.9,7.2,7.8-40.6,5.1-61,22.8-65.3,32.9-1.4,3.3-2.6,9.6-1.1,19,.6,2.4,2.5,9.6,5.2,12.7,0,0-1.7.3-3.1-.5-.5,6.6-5.7,10.8-10.3,13-11.6,5.5-16.5-4.1-29.4-4.1s-17.7,9.7-29.4,4.1c-4.6-2.2-9.8-6.4-10.3-13-1.5.9-3.1.5-3.1.5,2.7-3.2,4.6-10.4,5.2-12.7,1.5-9.4.3-15.7-1.1-19-4.3-10.1-24.7-27.8-65.3-32.9,1-1.9,7.2-7.8,7.2-7.8,0,0-7.5-2.5-15.1-2.3,1.8-3.2,6.9-8.2,6.9-8.2-5-1-14.4-.3-14.4-.3,0,0,3.7-3.6,6.4-7.2-2.8-.6-8.7.3-11.2.7,2.7-5.4,6.2-14.1,7-19.6-3.5,2.4-6.6,4.2-10.1,4.5,2-8.2,1.6-17.5,1.1-30.9-.5-13.9,7.4-30.5,7.4-30.5-5.4,0-8.6,1.3-8.6,1.3,4.3-16,14.4-34.4,19.2-36.2-3.9-1.1-10.6,0-10.6,0,4.5-3.4,7.8-5.3,10.7-6.7,14.5-7.6,23.5-6.6,23.5-6.6,0,0-25.2,9.8-29,48.2-2.1,21.5.9,38.3,2.4,43.8,3,11.8-2,21.8-3.7,26.9,0,0,6.5-1.2,13.9-.4-1,2.4-2.8,5.6-4.7,7.7,0,0,8.1,0,13.5,1.5,0,.1-5.3,2.6-7.9,6.8,31.2,6.8,47.8,23.6,61,38.9,0,0,0,0,0,0,0,0,0,0,0,0,0-.2,0-.5,0-.9-1.5-8.5-6.3-23.4-6.3-23.4,2.3,3,5.2,10.2,7.5,16.8,2.5,5.7,5,12.9,6.8,21.8,1.5,7.4-1.1,15.6,4.3,20.8,3,3,6.5,4.5,10.3,3.6,7.4-1.8,13.8-3,16.6-3.2Z"/>
      <path class="st5" d="M411,481.5c-3.8-.7-7.4-1.4-10.7-2.2.2,2.1,1,9.2,4.4,14.9,2.6,4.3,6,7.4,5.9,6.3-.6-5.5-.6-10.5-.4-13.9.1-2.3.5-4,.8-5.1ZM460.7,481.5c.3,1.1.6,2.8.8,5.1.2,3.4.2,8.4-.4,13.9-.1,1.1,3.3-2,5.9-6.3,3.4-5.7,4.2-12.8,4.4-14.9-3.3.8-6.9,1.5-10.7,2.2ZM435.8,483.1s-8.3,1.1-20.9-.9c.9,3.6,3,8,6.3,9.2,1,.4.3-2.1.2-4.5,0-.9,0-1.9.2-2.7.2.6.4,1.1.7,1.4,1.1,1.4,3.2,4.1,4.1,3.2.9-.9,3.1-3.3,3.1-3.3,0,0,1.4,3.1,3.2,3.6,1.3-.7,2.9-3.3,3-3.4,0,0,1.7,2.7,3,3.4,1.8-.6,3.2-3.6,3.2-3.6,0,0,2.2,2.4,3.1,3.3.9.9,3-1.8,4.1-3.2.3-.3.5-.8.7-1.4.2.9.3,1.8.2,2.7,0,2.4-.8,4.9.2,4.5,3.4-1.2,5.5-5.7,6.3-9.2-12.6,2-20.9.9-20.9.9Z"/>
      <path class="st5" d="M388,469.6c-.7-.3-1.4-.5-2-.8,1,0,2-.2,2.9-.4,5.5-1.2,8.1-2.3,8.1-2.3-9,0-16.4-2.1-19-2.9-.3-.3-.7-.6-1-.9-1.5-1.5-3.6-3.8-5.6-7.2,4.4,2.5,9.9,3.9,11.7,4.3,6.7,1.3,12.4,0,12.4,0-16-2.9-25.3-11.6-29.1-15.9-.7-2.7-1.2-5.6-1.4-8.8,7,10.6,27.7,15.9,27.7,15.9-16.6-8.4-25.8-21.1-27.2-25.9,1.9-7.7,7.6-11.1,14.3-11.5-2.5,1.2-4.9,3.2-5.3,6.2-1,7.1,6.5,15.4,11,18,9.8,5.7,26.1,7.5,26.1,7.5,0,0,.7,1.6,2,3.4-.6,1-.8,2.1-.3,3,1.3,2.2,2.8,3.2,4,3.4,8.4,1.7,12.9,9.7,14.5,13.2-1.9,1.7-4.4,3.4-6.9,4.1-18.5,5-30.5-.2-37-2.5Z"/>
      <path class="st5" d="M446.8,472c-2.6-.7-5-2.4-6.9-4.1,1.6-3.6,6.1-11.6,14.5-13.2,1.2-.2,2.7-1.2,4-3.4.6-.9.4-2-.3-3,1.3-1.8,2-3.4,2-3.4,0,0,16.3-1.8,26.1-7.5,4.5-2.6,11.9-11,11-18-.4-3-2.7-5-5.3-6.2,6.7.4,12.4,3.8,14.3,11.5-1.4,4.8-10.5,17.5-27.2,25.9,0,0,20.7-5.3,27.7-15.9-.2,3.2-.7,6.1-1.4,8.8-3.7,4.2-13,13-29.1,15.9,0,0,5.7,1.2,12.4,0,1.9-.4,7.3-1.8,11.7-4.3-2.1,3.3-4.2,5.7-5.6,7.2-.4.3-.7.6-1,.9-2.6.9-10,3-19,2.9,0,0,2.6,1.1,8.1,2.3.9.2,2,.3,2.9.4-.6.3-1.3.5-2,.8-6.4,2.2-18.5,7.4-37,2.5Z"/>
      <path class="st5" d="M448.7,447.8c-2.3.6-9.2,2.1-12.9,2.1s-10.6-1.5-12.9-2.1c-2.4-.7-5.3,1.1-4.2,1.3,5.9.7,14,3.7,17.2,3.9,3.1-.2,11.3-3.2,17.2-3.9,1.1-.1-1.9-1.9-4.2-1.3Z"/>
      <path class="st12" d="M538.8,290.8c-12.9,11.7-28.1,12-31.3,11.8,1.8-.4,3.5-.9,5.1-1.4,12.7-4.4,27.8-21.4,35.9-21.3,5.4,0,6.4,8.1,3.9,17.1-.3-2.1-.7-4.7-1.4-6.5-2.5-6.6-7.2-4.3-12.3.4Z"/>
      <path class="st12" d="M460.3,279.4c-2.9.4-9.7,2.4-14.3,5.1,10.9-2.9,24-1.3,27.6.3,0,0,2.9-2,11-3.4,0,0-11.1-4-24.3-2.1Z"/>
    </g>
  </g>
  <g id="Text">
    <g>
      <path class="st12" d="M22.2,264.1v-30.4c7.7-2.5,15.4-4.9,23.1-7.3v2.4c0,5.9,1,9.9,2.9,12.1,2,2.2,5,2.6,9.1,1.4,3.2-.9,5.8-2.9,7.8-5.8,2-2.9,3-6.3,3-10,0-3.7-1.1-6.5-3.2-8.3-2.1-1.9-5.8-3.2-11.1-4-1.2-.2-2.9-.4-5.1-.7-8-1-13.7-2.4-17.1-4.5-3.5-2.1-6-4.9-7.6-8.3-1.6-3.4-2.4-7.9-2.4-13.5,0-10.9,3.1-20.5,9.3-28.8,6.2-8.3,14.7-14.1,25.4-17.2,6.3-1.9,12.2-2.5,17.8-1.8,5.6.6,10.9,2.5,16,5.6v28.5c-7.6,2-15.2,4.1-22.8,6.3v-2.2c0-5.2-1-8.9-2.8-11.1-1.9-2.2-4.7-2.7-8.3-1.7-3.4,1-6.1,2.8-8.1,5.5-2,2.7-3,5.7-3,9.1,0,3.2,1.1,5.5,3.4,7,2.3,1.5,7.5,2.6,15.7,3.5,10.8,1.2,18.1,4.1,22,8.4,3.9,4.3,5.9,11.3,5.9,21,0,11.5-3.1,21.6-9.4,30.2-6.3,8.6-14.7,14.4-25.4,17.6-6.7,2-13.1,2.7-19,2.2-6-.5-11.3-2.3-16.1-5.3Z"/>
      <path class="st12" d="M105.8,171c0-9.8.4-16.9,1.3-21.2.8-4.3,2.3-8.2,4.3-11.7,2.7-4.7,6.5-8.5,11.3-11.6,4.8-3.1,10.9-5.4,18.3-7.1,7.3-1.6,13.3-2,18.1-1.1,4.7.9,8.5,3.1,11.4,6.6,2,2.6,3.5,5.9,4.3,9.9.8,4.1,1.3,10.9,1.3,20.4,0,13.2,0,26.5,0,39.7,0,9.6-.4,16.6-1.3,21-.9,4.4-2.3,8.2-4.3,11.6-2.8,4.6-6.6,8.4-11.4,11.3-4.7,2.9-10.7,5.2-18.1,6.8-7.4,1.7-13.5,2.1-18.3,1.4-4.8-.8-8.5-2.8-11.3-6.2-2-2.5-3.4-5.6-4.3-9.5-.8-3.9-1.3-10.7-1.3-20.6v-39.7ZM129.7,164.2v41.6c0,6.4.9,10.7,2.6,13.1,1.7,2.4,4.6,3.1,8.5,2.2,3.8-.9,6.6-2.8,8.3-6,1.7-3.1,2.6-7.9,2.6-14.3v-41.6c0-6.4-.9-10.8-2.6-13.1-1.7-2.4-4.5-3.1-8.3-2.3-3.9.9-6.8,2.9-8.5,6.1-1.7,3.2-2.6,7.9-2.6,14.2Z"/>
      <path class="st12" d="M189.9,131.3c0-6.5,0-13.1,0-19.6,11.7-2.2,23.5-4.2,35.3-6.1v19.6c-2,1.1-3.4,2.6-4.2,4.6-.8,1.9-1.2,5.6-1.2,11,0,15.7,0,31.4,0,47,0,6.4.9,10.8,2.6,13.4,1.8,2.5,4.6,3.5,8.5,2.9,3.9-.6,6.8-2.5,8.7-5.6,1.9-3.2,2.8-7.7,2.8-13.6,0-17,0-34,0-51,0-3.6-.4-6.1-1.2-7.6-.8-1.5-2.3-2.5-4.3-2.8v-19.6c10.7-1.6,21.3-3,32-4.4v19.6c-2.1.8-3.6,2.1-4.4,3.9-.8,1.8-1.3,5-1.3,9.8,0,16.8,0,33.5,0,50.3,0,7.8-.5,13.8-1.5,18.1-1,4.2-2.7,8.1-5,11.7-2.9,4.3-6.6,7.8-11.1,10.5-4.5,2.7-9.6,4.5-15.2,5.4-12.4,1.9-21.2.2-26.6-5.5-5.3-5.6-8-16.2-8-31.7v-49c0-4.3-.4-7.1-1.2-8.4-.8-1.3-2.3-2.2-4.6-2.8Z"/>
      <path class="st12" d="M308.6,118.2c-3.4.4-5.9,1.8-7.4,4.1-1.5,2.3-2.3,5.9-2.3,10.7v12.3c-6.6.7-13.1,1.4-19.7,2.1v-49.2c27.7-3.2,55.5-5.5,83.4-7v49.2c-6.5.3-13,.7-19.5,1.2v-12.3c0-4.9-.8-8.3-2.3-10.4-1.5-2-4-3-7.5-2.8,0,21.8,0,43.5,0,65.3,0,5.1.4,8.3,1.1,9.6.7,1.4,2.1,2.2,4.2,2.6v20.4c-11.8.8-23.5,1.8-35.3,3v-20.4c2.1-.7,3.5-1.9,4.3-3.4.8-1.5,1.1-4.8,1.1-9.7v-65.3Z"/>
      <path class="st12" d="M404,178.1c0,5.1.4,8.3,1.1,9.7.7,1.4,2.1,2.3,4.2,2.8v20.4c-11.8.2-23.6.6-35.4,1.1v-20.4c2.1-.6,3.5-1.7,4.3-3.2.8-1.5,1.2-4.7,1.2-9.7v-56.1c0-4.9-.4-8.1-1.2-9.6-.8-1.4-2.2-2.4-4.3-2.8v-19.6c11.8-.5,23.6-.9,35.4-1.1v19.6c-2,.6-3.4,1.6-4.2,3-.8,1.5-1.2,4.7-1.2,9.7v16.2c7.5-.2,15.1-.3,22.7-.3,0-5.4,0-10.8,0-16.2,0-5.1-.4-8.3-1.1-9.7-.7-1.4-2.1-2.4-4.2-2.9v-19.6c11.8,0,23.6,0,35.4.2v19.6c-2.1.5-3.5,1.5-4.3,3-.8,1.5-1.2,4.7-1.2,9.6v56.1c0,4.9.4,8.2,1.2,9.6.8,1.5,2.2,2.5,4.3,3.1v20.4c-11.8-.2-23.6-.3-35.4-.2v-20.4c2.1-.5,3.4-1.5,4.2-2.9.7-1.4,1.1-4.6,1.1-9.7,0-6.5,0-12.9,0-19.4-7.6,0-15.1.1-22.7.3v19.4Z"/>
      <path class="st12" d="M486.2,211.9c-4.9-30.4-9.8-60.8-14.7-91.1-.6-3.3-1.3-5.8-2.3-7.6-1-1.7-2.3-2.9-4.1-3.6,0-6.6,0-13.2,0-19.8,11.7.3,23.5.7,35.2,1.3v19.8c-1.7.1-2.9.6-3.5,1.5-.7.8-1,2.3-1,4.4,0,.8,0,1.6,0,2.5,0,.9.1,1.7.2,2.6,2.7,18.9,5.4,37.9,8.2,56.8,4.3-28.8,8.6-57.7,12.8-86.5,6.2.4,12.5.8,18.7,1.3,4.7,29.3,9.3,58.6,14,87.9,2.1-18,4.2-36.1,6.3-54.1,0-.7.1-1.7.3-3.1.2-1.4.2-2.3.2-2.7,0-1.8-.3-3.2-1-4.2-.7-1-1.8-1.9-3.5-2.6v-19.8c10.2.9,20.4,2,30.6,3.1v19.8c-1.8.6-3.1,1.7-4,3.1-.9,1.4-1.6,4.2-2.2,8.5-4.1,29.3-8.3,58.7-12.4,88-9.6-1-19.1-1.8-28.7-2.6-3.6-22.5-7.3-44.9-10.9-67.3-3.1,22-6.2,43.9-9.3,65.9-9.7-.6-19.5-1.1-29.2-1.5Z"/>
      <path class="st12" d="M592.5,220.5v-20.4c2.1-.3,3.5-1.1,4.3-2.5.8-1.4,1.1-4.5,1.1-9.5v-56.1c0-4.9-.4-8.2-1.1-9.8-.8-1.6-2.2-2.7-4.3-3.5v-19.6c24.8,3,49.6,6.7,74.3,11.2v37.1c-7.6-1.4-15.2-2.7-22.8-3.9v-1.3c0-4.7-.9-8.1-2.8-10.3-1.8-2.2-5.1-3.6-9.8-4.3-3-.5-6-.9-9-1.3,0,8.5,0,16.9,0,25.4,9.6,1.4,19.2,2.9,28.8,4.5,0,6.8,0,13.6,0,20.4-9.6-1.6-19.2-3.1-28.8-4.5,0,9.7,0,19.5,0,29.2,3.6.5,7.1,1,10.7,1.6,4.1.6,7,.2,8.6-1.4,1.6-1.6,2.4-4.9,2.4-9.9v-4.4c7.6,1.2,15.2,2.5,22.8,3.9v40.7c-24.7-4.4-49.5-8.2-74.3-11.2Z"/>
      <path class="st12" d="M680.4,222.6c0-10.1,0-20.3,0-30.4,7.9,1.5,15.7,3.1,23.6,4.7v2.4c0,5.9,1,10.4,3,13.6,2,3.2,5.1,5.2,9.2,6.1,3.3.7,5.9.1,7.9-1.8,2-1.9,3-4.7,3-8.5,0-3.7-1.1-7-3.2-10-2.1-3-5.9-6.2-11.2-9.7-1.2-.8-2.9-1.9-5.2-3.3-8.2-5.1-14-9.5-17.4-13.3-3.5-3.9-6.1-8-7.8-12.2-1.6-4.3-2.4-9.2-2.4-14.7,0-10.9,3.2-18.9,9.5-23.9,6.4-5,15-6.4,25.8-4.1,6.4,1.4,12.4,3.8,18,7.3,5.6,3.5,11,8.1,16.1,13.8,0,9.5,0,19,0,28.5-7.7-1.9-15.3-3.7-23-5.4v-2.2c0-5.2-1-9.4-2.9-12.5-1.9-3.1-4.7-5.1-8.4-5.9-3.4-.7-6.2-.3-8.2,1.3-2.1,1.6-3.1,4.1-3.1,7.5,0,3.2,1.2,6.1,3.5,8.7,2.3,2.6,7.6,6.5,15.9,11.6,10.9,6.8,18.3,13.4,22.2,19.7,3.9,6.3,5.9,14.3,5.9,24,0,11.5-3.2,20-9.5,25.4-6.3,5.4-14.8,6.9-25.6,4.5-6.8-1.5-13.3-4-19.4-7.7-6.1-3.6-11.6-8.2-16.4-13.7Z"/>
      <path class="st12" d="M790.2,161.6c-3.4-.8-5.8-.4-7.2,1.4-1.5,1.7-2.2,5-2.2,9.9v12.3c-6.4-1.7-12.8-3.4-19.3-5.1v-49.2c27.2,7,54.3,14.8,81.1,23.5v49.2c-6.3-2-12.6-4-18.9-6,0-4.1,0-8.2,0-12.3,0-4.9-.7-8.6-2.2-11.2-1.5-2.6-3.9-4.4-7.3-5.6,0,21.8,0,43.5,0,65.3,0,5.1.4,8.4,1.1,10,.7,1.6,2.1,3,4.1,4.1v20.4c-11.4-3.5-22.8-6.8-34.3-10v-20.4c2,0,3.4-.6,4.2-1.8.7-1.3,1.1-4.4,1.1-9.3v-65.3Z"/>
    </g>
    <text class="st11" transform="translate(73.8 688) scale(1.4 1)"><tspan x="0" y="0">WRESTLING</tspan></text>
  </g>
</svg>