<?xml version="1.0" encoding="UTF-8"?>
<svg xmlns="http://www.w3.org/2000/svg" version="1.1" viewBox="0 0 864 864">
  <!-- Generator: Adobe Illustrator 30.1.0, SVG Export Plug-In . SVG Version: 2.1.1 Build 136)  -->
  <defs>
    <style>
      .st0, .st1, .st2 {
        fill: #000104;
      }

      .st3 {
        fill: none;
        stroke: #76bc21;
        stroke-miterlimit: 10;
      }

      .st1 {
        font-family: Arial-BoldMT, Arial;
        font-size: 62.8px;
        font-weight: 700;
        letter-spacing: .5em;
      }

      .st4, .st5, .st6 {
        fill: #ce0e2d;
      }

      .st7 {
        fill: #ecdfd0;
      }

      .st8 {
        fill: #7e6f96;
      }

      .st8, .st9 {
        display: none;
      }

      .st10 {
        fill: #d6c8bf;
      }

      .st11 {
        fill: #fff;
      }

      .st12 {
        fill: #f1f1f2;
      }

      .st13 {
        fill: #c7c8ca;
      }

      .st14 {
        fill: #808285;
      }

      .st15 {
        fill: #3b3b3c;
      }

      .st2, .st6 {
        fill-rule: evenodd;
      }

      .st5 {
        font-family: Amboy-Black, 'Amboy ';
        font-size: 161.2px;
        font-weight: 800;
        letter-spacing: 0em;
      }

      .st16 {
        fill: #d6006d;
      }

      .st17 {
        fill: #4d5a31;
      }

      .st18 {
        fill: #eb80a8;
      }

      .st19 {
        fill: #939598;
      }
    </style>
  </defs>
  <g id="Background_Colors">
    <g id="Military_Green" class="st9">
      <rect id="Team_Color__x28_change_as_needed_x29_" class="st17" x="1" width="863" height="864"/>
    </g>
    <g id="Bright_Pink" class="st9">
      <rect id="Team_Color__x28_change_as_needed_x29_1" data-name="Team_Color__x28_change_as_needed_x29_" class="st16" x="1" width="863" height="864"/>
    </g>
    <g id="Pink" class="st9">
      <rect id="Team_Color__x28_change_as_needed_x29_2" data-name="Team_Color__x28_change_as_needed_x29_" class="st18" x="1" width="863" height="864"/>
    </g>
    <g id="Natural" class="st9">
      <rect id="Team_Color__x28_change_as_needed_x29_3" data-name="Team_Color__x28_change_as_needed_x29_" class="st7" x="1" width="863" height="864"/>
    </g>
    <g id="Heather_Dust" class="st9">
      <rect id="Team_Color__x28_change_as_needed_x29_4" data-name="Team_Color__x28_change_as_needed_x29_" class="st10" x="1" width="863" height="864"/>
    </g>
    <g id="Grey__x28_Dark_x29__copy" class="st9">
      <rect id="Team_Color__x28_change_as_needed_x29_5" data-name="Team_Color__x28_change_as_needed_x29_" class="st15" x="1" width="863" height="864"/>
    </g>
    <g id="Grey__x28_Mid_x29_" class="st9">
      <rect id="Team_Color__x28_change_as_needed_x29_6" data-name="Team_Color__x28_change_as_needed_x29_" class="st14" x="1" width="863" height="864"/>
    </g>
    <g id="Grey__x28_Light_x29_" class="st9">
      <rect id="Team_Color__x28_change_as_needed_x29_7" data-name="Team_Color__x28_change_as_needed_x29_" class="st13" x="1" width="863" height="864"/>
    </g>
    <g id="White" class="st9">
      <rect id="Team_Color__x28_change_as_needed_x29_8" data-name="Team_Color__x28_change_as_needed_x29_" class="st12" x="1" width="863" height="864"/>
    </g>
    <g id="Black" class="st9">
      <rect id="Team_Color__x28_change_as_needed_x29_9" data-name="Team_Color__x28_change_as_needed_x29_" class="st0" x="1" width="863" height="864"/>
      <rect id="Team_Color__x28_change_as_needed_x29_10" data-name="Team_Color__x28_change_as_needed_x29_" class="st0" x="1" width="863" height="864"/>
      <text/>
    </g>
    <rect id="Team_Color__x28_change_as_needed_x29_11" data-name="Team_Color__x28_change_as_needed_x29_" class="st8" x="1" width="863" height="864"/>
  </g>
  <g id="Line_Pattern">
    <g>
      <g>
        <g>
          <path class="st2" d="M152.5,384.7l3.7,1.6,26.3,89.5c-1.2-.5-2.5-1-3.7-1.5l-26.3-89.6Z"/>
          <path class="st2" d="M190.8,479.3c-1.2-.5-2.5-1-3.7-1.5l-26.3-89.4,3.7,1.6,26.3,89.3Z"/>
          <path class="st2" d="M207.3,486.1c-1.2-.5-2.5-1-3.7-1.5l-26.2-88.9,3.7,1.6,26.1,88.8Z"/>
          <path class="st2" d="M199.1,482.7c-.6-.2-1.1-.5-1.7-.7-.7-.3-1.4-.6-2-.8l-26.2-89.1,3.8,1.7,26.2,89.1Z"/>
          <polygon class="st2" points="215.5 489.5 211.8 488 185.7 399.3 189.5 400.9 215.5 489.5"/>
        </g>
        <path class="st2" d="M101.1,438.7c3.6,12.2,13.6,28.7,24.9,34.9l106.5,57.9,6.1,20.6,15,7.8-28.2-95.2-111-60.3c-8.4-4.5-16.4-18.7-19.1-27.6l-27.6-93.4-14.7-6.5,47.9,161.9Z"/>
        <g>
          <path class="st6" d="M73.1,288.2l58.5,197.7,4.7,2.6-58.6-197.8c-1.6-.8-3.1-1.6-4.7-2.4h0ZM188.1,516.6l-47.7-161-4.7-2.4,47.6,160.9,4.7,2.6h0ZM179.5,511.9l-47.6-160.8-1.9-1c-.9-.5-1.9-1-2.8-1.5l47.5,160.6,4.7,2.6h0ZM170.8,507.2l-47.5-160.5c-1.6-.8-3.1-1.6-4.7-2.4l47.5,160.3,4.7,2.6h0ZM162.2,502.5l-47.4-160.2-4.7-2.4,47.4,160.1,4.7,2.6h0ZM153.6,497.8l-58.7-198.3c-1.6-.8-3.1-1.6-4.7-2.4l58.7,198.2,4.7,2.6h0ZM144.9,493.1l-58.6-198.1c-1.6-.8-3.1-1.6-4.7-2.4l58.6,197.9,4.7,2.6h0Z"/>
          <g>
            <path class="st2" d="M98.7,476.9c-2-1.3-4-2.5-6-3.9,2,1.4,4,2.6,6,3.9Z"/>
            <path class="st2" d="M31.8,267.3l-14.7-6.5,53.4,180.5c2.8,9.5,9.3,20.5,16.6,27.3,1.7,1.6,3.6,3,5.5,4.3l-60.9-205.6Z"/>
          </g>
        </g>
        <g>
          <path class="st6" d="M107.5,453.5c1.9,3.3,4.1,6.6,6.5,9.6-2.4-3-4.6-6.2-6.5-9.6Z"/>
          <path class="st6" d="M121.8,470.8c-2.7-2.1-5.3-4.8-7.7-7.7,2.4,3,5,5.6,7.7,7.7Z"/>
          <path class="st6" d="M232.5,531.4l6.1,20.6-10.4-5.4c-4.4-2.3-8.8-4.5-13.2-6.8-15.5-8-31.1-16.1-46.5-24.2-17-8.9-34-18-50.8-27.5-6.4-3.6-12.7-7.3-19-11.2-2-1.3-4.1-2.6-6.1-4l-53.7-181.2s0,0,0,0l60.6,204.7c2.2,7.4,7.5,16.5,13.2,21.8,2.7,2.5,6.7,5,9.8,6.9,6,3.8,12.2,7.4,18.5,10.9,16.6,9.4,33.5,18.4,50.4,27.3,15.5,8.1,31,16.1,46.5,24.2,4.4,2.3,8.8,4.5,13.2,6.8l-18.6-62.9Z"/>
        </g>
      </g>
      <g>
        <g>
          <path class="st2" d="M706,384.7l-3.7,1.6-26.3,89.5c1.2-.5,2.5-1,3.7-1.5l26.3-89.6Z"/>
          <path class="st2" d="M667.7,479.3c1.2-.5,2.5-1,3.7-1.5l26.3-89.4-3.7,1.6-26.3,89.3Z"/>
          <path class="st2" d="M651.2,486.1c1.2-.5,2.5-1,3.7-1.5l26.2-88.9-3.7,1.6-26.1,88.8Z"/>
          <path class="st2" d="M659.4,482.7c.6-.2,1.1-.5,1.7-.7.7-.3,1.4-.6,2-.8l26.2-89.1-3.8,1.7-26.2,89.1Z"/>
          <polygon class="st2" points="642.9 489.5 646.7 488 672.7 399.3 669 400.9 642.9 489.5"/>
        </g>
        <path class="st2" d="M757.4,438.7c-3.6,12.2-13.6,28.7-24.9,34.9l-106.5,57.9-6.1,20.6-15,7.8,28.2-95.2,111-60.3c8.4-4.5,16.4-18.7,19.1-27.6l27.6-93.4,14.7-6.5-47.9,161.9Z"/>
        <g>
          <path class="st6" d="M785.4,288.2c-1.6.8-3.1,1.6-4.7,2.4l-58.6,197.8,4.7-2.6,58.5-197.7h0ZM670.4,516.6l4.7-2.6,47.6-160.9-4.7,2.4-47.7,161h0ZM679,511.9l4.7-2.6,47.5-160.6c-.9.5-1.9,1-2.8,1.5l-1.9,1-47.6,160.8h0ZM687.6,507.2l4.7-2.6,47.5-160.3c-1.6.8-3.1,1.6-4.7,2.4l-47.5,160.5h0ZM696.3,502.5l4.7-2.6,47.4-160.1-4.7,2.4-47.4,160.2h0ZM704.9,497.8l4.7-2.6,58.7-198.2c-1.6.8-3.1,1.6-4.7,2.4l-58.7,198.3h0ZM713.5,493.1l4.7-2.6,58.6-197.9c-1.6.8-3.1,1.6-4.7,2.4l-58.6,198.1h0Z"/>
          <g>
            <path class="st2" d="M759.7,476.9c2-1.3,4-2.5,6-3.9-2,1.4-4,2.6-6,3.9Z"/>
            <path class="st2" d="M826.7,267.3l14.7-6.5-53.4,180.5c-2.8,9.5-9.3,20.5-16.6,27.3-1.7,1.6-3.6,3-5.5,4.3l60.9-205.6Z"/>
          </g>
        </g>
        <g>
          <path class="st6" d="M750.9,453.5c-1.9,3.3-4.1,6.6-6.5,9.6,2.4-3,4.6-6.2,6.5-9.6Z"/>
          <path class="st6" d="M736.7,470.8c2.7-2.1,5.3-4.8,7.7-7.7-2.4,3-5,5.6-7.7,7.7Z"/>
          <path class="st6" d="M626,531.4l-6.1,20.6,10.4-5.4c4.4-2.3,8.8-4.5,13.2-6.8,15.5-8,31.1-16.1,46.5-24.2,17-8.9,34-18,50.8-27.5,6.4-3.6,12.7-7.3,19-11.2,2-1.3,4.1-2.6,6.1-4l53.7-181.2s0,0,0,0l-60.6,204.7c-2.2,7.4-7.5,16.5-13.2,21.8-2.7,2.5-6.7,5-9.8,6.9-6,3.8-12.2,7.4-18.5,10.9-16.6,9.4-33.5,18.4-50.4,27.3-15.5,8.1-31,16.1-46.5,24.2-4.4,2.3-8.8,4.5-13.2,6.8l18.6-62.9Z"/>
        </g>
      </g>
    </g>
  </g>
  <g id="Text">
    <text class="st5" transform="translate(32.7 224.6) scale(1.1 1)"><tspan x="0" y="0">FALCONS</tspan></text>
    <text class="st1" transform="translate(124.1 299) scale(1 1)"><tspan x="0" y="0">WRESTLING</tspan></text>
  </g>
  <g id="Logo">
    <g>
      <path class="st13" d="M657,689.4c-11-53.8-15.5-92.5-17.4-112.7l17.2,14.2,1.1-13.3c4.7-55.9-11-103.4-25.1-133.5-12.8-27.2-26.2-45.1-30.7-50.7-1.4-17.3-7.4-30.6-17.9-39.5-12.3-10.5-27-11.6-33.1-11.6-39.5-27.3-99.7-28.4-111.5-28.4-11.8,0-72.1,1.1-111.5,28.4-6.1,0-20.8,1.1-33.1,11.6-10.4,8.9-16.4,22.2-17.9,39.5-4.4,5.6-17.9,23.5-30.7,50.7-14.1,30-29.8,77.5-25.1,133.5l1.1,13.3,17.2-14.2c-1.8,20.2-6.4,58.8-17.4,112.7l-2.2,10.6,10.5-2.3c1.3-.3,28.6-6.5,51.9-27.5,7.4,15.4,26.3,44.4,70.3,66.4l9.1,4.6,2.2-22.9c14.4,11.9,42.1,32.5,72.9,43.7l2.4.9,2.4-.9c30.8-11.2,58.5-31.8,72.9-43.7l2.2,22.9,9.1-4.6c44-22,62.9-51,70.3-66.4,23.3,21,50.7,27.2,51.9,27.5l10.5,2.3-2.2-10.6Z"/>
      <path d="M595.4,396.2c-3-50.9-46.3-46.7-46.3-46.7-37.6-27.3-97.1-28.5-109.4-28.5-12.3,0-71.8,1.2-109.4,28.5,0,0-43.3-4.2-46.3,46.7,0,0-64.5,75.6-55.6,180.8l19.5-16.1s-1.7,46.7-18.7,129.9c0,0,32.7-7.2,56-33.1,0,0,11.5,42.9,70.9,72.6l2.5-26.3s37.6,35.7,80.9,51.4c43.3-15.7,80.9-51.4,80.9-51.4l2.5,26.3c59.4-29.7,70.9-72.6,70.9-72.6,23.3,25.9,56,33.1,56,33.1-17-83.2-18.7-129.9-18.7-129.9l19.5,16.1c8.9-105.3-55.6-180.8-55.6-180.8Z"/>
      <path class="st4" d="M522.2,366.1l5.5-5.1c-38.2-21.9-81.8-21.1-88-20.9-6.2-.2-49.8-1-88,20.9l5.5,5.1s-42-9.8-43.7,17c0,0,17-12.9,40.8,5l.7-6c0-.6.6-.9,1.2-.7,4.1,1.6,19.3,8,27,20.4,8.9,14.4,15.7,23.3,22.1,23.3s8.9-22.9-1.3-34c0,0,22.9,4.7,29.7,25.5,0,0,2.4-.7,6-.7,3.7,0,6,.7,6,.7,6.8-20.8,29.7-25.5,29.7-25.5-10.2,11-7.6,34-1.3,34s13.2-8.9,22.1-23.3c7.7-12.4,22.9-18.9,27-20.4.5-.2,1.1.2,1.2.7l.7,6c23.8-17.8,40.8-5,40.8-5-1.7-26.7-43.7-17-43.7-17Z"/>
      <g>
        <path class="st11" d="M342.4,410s10,3.5,13.6,11.7c0,0-2.4,1-6.8-3,0,0-5.5,19,19,19.1l8.8,8.8s-28.2,5.8-37.2-9.5,2.7-27.2,2.7-27.2Z"/>
        <path class="st11" d="M537.1,410s-10,3.5-13.6,11.7c0,0,2.4,1,6.8-3,0,0,5.5,19-19,19.1l-8.8,8.8s28.2,5.8,37.2-9.5c9.1-15.3-2.7-27.2-2.7-27.2Z"/>
      </g>
      <path class="st19" d="M545.3,489.9c-22.4-35.1-78.6-18.5-78.6-18.5l8.6-10.8c-9.6-29.4-33.3-30.5-35.5-30.6h0s0,0,0,0c0,0,0,0,0,0h0c-2.2,0-26,1.2-35.5,30.6l8.6,10.8s-56.2-16.6-78.6,18.5c-.3.4.2.9.7.7,5.5-3.3,23.7-12.5,44.7-7.6,25.2,5.9,39.1,17,44.4,32.7,5.3,15.6,12.6,27.6,15.8,27.9h0s0,0,0,0c0,0,0,0,0,0h0c3.2-.2,10.4-12.3,15.8-27.9,5.4-15.7,19.2-26.7,44.4-32.7,20.9-4.9,39.2,4.3,44.7,7.6.4.3.9-.3.7-.7Z"/>
      <path class="st4" d="M462.7,547.7l-23,18.8-23-18.8c-.2-.2-.5,0-.4.3l23.4,37.2,23.4-37.2c.1-.2-.1-.5-.4-.3Z"/>
      <path class="st19" d="M473.5,551.7c-29.5,46.1-25.3,51.4-33.8,51.5-8.5,0-4.3-5.4-33.8-51.5-29.7-46.4-61.4-46.7-61.4-46.7,49.4,25.4,75.5,109.2,95.2,114.2h0c19.7-5,45.8-88.8,95.2-114.2,0,0-31.7.3-61.4,46.7Z"/>
      <path class="st4" d="M323.8,409.2s-15.1,37.6,23.1,49.7c0,0-24.6,9.8-29.5,39.9,0,0,7.2,14.4,33.7,29.5,33.7,21.4,55.6,94.2,88.5,104.4v67.9s-48.6-15.7-97-72.6c0,0-3,20,.4,36.5,0,0-33.1-16.6-43.3-88.1,0,0-5.3,27-31.2,40.8,0,0,15.9-86.8,15.3-125.4,0,0-4.9,8.9-20.6,18.9,0,0,17.6-84.7,60.5-101.5Z"/>
      <path class="st13" d="M439.6,430.1h0c-2.2,0-26,1.2-35.5,30.6l8.5,10.6c1.8,1,23.2,14.2,27.1,36.4v-77.6s0,0,0,0Z"/>
      <path class="st3" d="M276.7,372.5"/>
    </g>
  </g>
</svg>