<?xml version="1.0" encoding="UTF-8"?>
<svg xmlns="http://www.w3.org/2000/svg" version="1.1" viewBox="0 0 864 864">
  <!-- Generator: Adobe Illustrator 30.1.0, SVG Export Plug-In . SVG Version: 2.1.1 Build 136)  -->
  <defs>
    <style>
      .st0 {
        fill: #000104;
      }

      .st1 {
        font-family: AkzidenzGrotConBQ-Bold, 'Akzidenz-Grotesk Condensed BQ';
        font-size: 138px;
        font-weight: 700;
        letter-spacing: 0em;
      }

      .st1, .st2 {
        fill: #0033a1;
      }

      .st3, .st4, .st5 {
        fill: #fff;
      }

      .st3, .st6 {
        font-family: CoffeeService, 'Coffee Service';
        font-size: 162.4px;
      }

      .st7 {
        fill: #c08963;
      }

      .st8 {
        fill: #af7c58;
      }

      .st9 {
        fill: #ecdfd0;
      }

      .st10 {
        fill: #7e6f96;
      }

      .st10, .st11 {
        display: none;
      }

      .st12 {
        fill: #15221b;
      }

      .st13 {
        fill: #d6c8bf;
      }

      .st5 {
        font-family: ArialMT, Arial;
        font-size: 52.4px;
        letter-spacing: 0em;
      }

      .st14 {
        fill: #f1f1f2;
      }

      .st6 {
        fill: none;
        stroke: #939598;
        stroke-width: 10px;
      }

      .st15 {
        fill: #c7c8ca;
      }

      .st16 {
        fill: #808285;
      }

      .st17 {
        fill: #3b3b3c;
      }

      .st18 {
        fill: #0a2240;
      }

      .st19 {
        fill: #ffc629;
      }

      .st20 {
        fill: #805b3e;
      }

      .st21 {
        fill: #d6006d;
      }

      .st22 {
        fill: #4d4d4f;
      }

      .st23 {
        fill: #4d5a31;
      }

      .st24 {
        fill: #eba900;
      }

      .st25 {
        fill: #eb80a8;
      }

      .st26 {
        letter-spacing: .1em;
      }
    </style>
  </defs>
  <g id="Background_Colors">
    <g id="Military_Green" class="st11">
      <rect id="Team_Color__x28_change_as_needed_x29_" class="st23" x="1" width="863" height="864"/>
    </g>
    <g id="Bright_Pink" class="st11">
      <rect id="Team_Color__x28_change_as_needed_x29_1" data-name="Team_Color__x28_change_as_needed_x29_" class="st21" x="1" width="863" height="864"/>
    </g>
    <g id="Pink" class="st11">
      <rect id="Team_Color__x28_change_as_needed_x29_2" data-name="Team_Color__x28_change_as_needed_x29_" class="st25" x="1" width="863" height="864"/>
    </g>
    <g id="Natural" class="st11">
      <rect id="Team_Color__x28_change_as_needed_x29_3" data-name="Team_Color__x28_change_as_needed_x29_" class="st9" x="1" width="863" height="864"/>
    </g>
    <g id="Heather_Dust" class="st11">
      <rect id="Team_Color__x28_change_as_needed_x29_4" data-name="Team_Color__x28_change_as_needed_x29_" class="st13" x="1" width="863" height="864"/>
    </g>
    <g id="Grey__x28_Dark_x29__copy" class="st11">
      <rect id="Team_Color__x28_change_as_needed_x29_5" data-name="Team_Color__x28_change_as_needed_x29_" class="st17" x="1" width="863" height="864"/>
    </g>
    <g id="Grey__x28_Mid_x29_">
      <rect id="Team_Color__x28_change_as_needed_x29_6" data-name="Team_Color__x28_change_as_needed_x29_" class="st16" x="1" width="863" height="864"/>
    </g>
    <g id="Grey__x28_Light_x29_" class="st11">
      <rect id="Team_Color__x28_change_as_needed_x29_7" data-name="Team_Color__x28_change_as_needed_x29_" class="st15" x="1" width="863" height="864"/>
    </g>
    <g id="White" class="st11">
      <rect id="Team_Color__x28_change_as_needed_x29_8" data-name="Team_Color__x28_change_as_needed_x29_" class="st14" x="1" width="863" height="864"/>
    </g>
    <g id="Black" class="st11">
      <rect id="Team_Color__x28_change_as_needed_x29_9" data-name="Team_Color__x28_change_as_needed_x29_" class="st0" x="1" width="863" height="864"/>
      <rect id="Team_Color__x28_change_as_needed_x29_10" data-name="Team_Color__x28_change_as_needed_x29_" class="st0" x="1" width="863" height="864"/>
      <text/>
    </g>
    <rect id="Team_Color__x28_change_as_needed_x29_11" data-name="Team_Color__x28_change_as_needed_x29_" class="st10" x="1" width="863" height="864"/>
  </g>
  <g id="Pattern">
    <g>
      <path class="st2" d="M461.1,291.4H10.1v37h423.7c7.4-13.6,16.6-26,27.3-37Z"/>
      <path class="st2" d="M705.4,291.4c10.7,11,19.9,23.4,27.3,37h120.5v-37h-147.8Z"/>
    </g>
    <path class="st18" d="M705.9,278.8h-30c41,29.1,67.9,77,67.9,131,0,88.5-72,160.6-160.6,160.6s-160.6-72-160.6-160.6,26.9-101.9,67.9-131h-30c-35,32.8-56.9,79.4-56.9,131,0,99,80.6,179.6,179.6,179.6s179.6-80.6,179.6-179.6-21.9-98.2-56.9-131Z"/>
    <rect class="st2" x="10.1" y="258.1" width="127.8" height="6.6"/>
  </g>
  <g id="Logo">
    <g>
      <path class="st4" d="M716.8,338.8c-3.7-8.7-7.9-15.5-12.5-20.2-3.9-4-8-6.4-12.2-7.2-.9-.9-1.9-1.7-2.9-2.4-2.4-1.7-5.6-3.7-9.5-4-2.8-2.4-6.5-4-11.3-5-3-.6-6.3-.9-9.7-.9-.2,0-.4,0-.5,0-.7-.3-1.4-.6-2.2-.8-1.2-.3-2.5-.4-4.1-.4-3.9,0-8.5.8-11.7,1.6-1.3-.5-2.8-.7-4.4-.7-4.4,0-9,1.5-12.5,2.9-1.9.7-3.6,1.5-4.7,2-.2,0-.5,0-.8,0h0c-2.7,0-5.1,1-7.3,2.1-4.2,2.1-8.5,5.3-11.6,7.8,0,0-.2,0-.2,0,0,0,0,0-.2,0-1.3,0-2.7.4-4,1-1,.5-1.9,1.1-3,2-2.6,2.2-5.3,5.4-8,9.6-.4.2-.8.4-1.1.6-.9.5-1.7,1.3-2.6,2.3-1.2,1.3-2.4,2.9-3.7,5-3-.5-6.1-.7-9.7-.7-3.7,0-7.3.2-10.7.5-1.3,0-2.6.2-3.8.2-5.7-11-12.1-19.7-18.8-25.6-5.7-5-11.7-8-17.2-8.6-1.6-.6-3.3-.9-5-.9h-1.4c-2.7.3-4.9,1.2-6.5,2-2.6,0-5.2.9-7.5,1.7-4.3,1.6-8.9,3.9-12.5,6.4-2.1,1.5-3.8,2.9-5.1,4.3-.9,1-2,2.5-2.6,4.5-.2.2-.4.3-.6.5-3.7,3.2-5.7,8.1-5.7,13.7,0,1.5.2,3,.5,4.4-.4,1.3-.6,2.8-.6,4.4,0,3.6,1,7.7,2.8,11.8-.2.7-.3,1.5-.3,2.3s0,0,0,.1c0,3.5,1.7,6.4,3.2,8.8,3.4,5.1,8.5,10.1,12.4,13.4.4,1.6,1.1,3.2,2.3,4.8,1.9,2.7,4.8,5.3,8.8,8.2.5,1,1.1,1.9,1.8,2.8-.6.6-1.1,1.2-1.7,1.8-.4.5-.9,1-1.2,1.5-5.2,1.7-13.4,1.7-13.5,1.7-21,0-34.9-11.9-35-12l-3.3-2.9.9,4.2c0,.3,1.4,6.5,6.4,13.5,4.5,6.4,13,14.8,27.9,18.1.9.8,1.9,1.5,3.1,2.2-2.6,2.7-4.1,5.8-4.9,8-.6,1.6-1,3.2-1.3,5-2.1.8-4,2-5.7,3.5-3.7,3.1-6.7,7.7-8.9,13.5l-.8,2.1,1.1,1.9c0,0,0,0,0,.1h0c.4.7,2.5,4,7.2,8.1,0,.3,0,.6,0,.9,0,0,0,0,0,0,0,5.5,1.4,10.2,4.3,14.1,1.8,2.4,5.7,6.7,12.7,9.5-.2,1-.3,2.1-.3,3.1h0c0,3.8,1.3,11.3,10,18.6,5.4,4.5,19,12.9,50.2,18.8l8.3,1.6-7.3-4.3c-1.5-.9-3.1-1.9-4.3-2.8,14.4-1.5,19.9-12.3,20.2-12.8l.7-1.5c2.1,2.2,4.1,4.5,5.9,7,10.9,15.3,8,28.5,8,28.7l-.6,2.6,2.5-.9c.3-.1,8.6-3.2,19.5-10.3,10-6.6,24.2-18,34.9-35.2,8.3-13.4,12.6-28.5,12.7-44.8v-.7c0-22.8-8.1-42.3-13.6-52.9.3,0,.6,0,.9,0l2.5-.3c.2,2.3,1.7,13.4,13.4,19.9,2.9,1.6,5.9,2.5,8.8,2.7,2.2,1,7.2,3.1,12.2,3.2h0c1.4,0,2.6-.2,3.7-.6,2.1.3,4.1.4,6,.4,2.9,0,5.4-.3,7.5-1,2.4-.8,4.3-2,5.7-3.6.4-.2.9-.3,1.3-.5,2.5-1,5.4-2.1,8.1-3.7,2.1-1.2,3.7-2.6,5-4.1,1.4-1.7,2.4-3.6,2.9-5.6,7.5-9.8,12.3-23.5,12.7-36.8,0-.3,0-2.9,0-3.3,0-11.4-3-22.6-8-30ZM654.6,395.7c4.2-2.6,7.5-6,9.8-9.9,2.6-4.4,3.9-9.4,3.9-14.9s-1.7-11-1.8-11.3l-1.2-3.9-1.5,3.8c-.1.3-3.3,8-15,7.4,0,0,0,0,0,0-.6,0-6.8-.5-11.7-1,5.5-7.2,15.2-11.9,24.7-11.9h0c6.7,0,12.7,2.3,17,6.4,5,4.9,7.5,12.1,7.6,21.4,0,8.3-2.5,14.3-7.6,18.5-4.3,3.5-10.5,5.4-17.5,5.4h0s-.1,0-.1,0c-7.8,0-15.8-2.9-19.7-4.6,4.9-1.1,9.3-2.9,13.2-5.3ZM562,508.2s-1.3.5-3,.7c0,0,0,0,0-.1l.8-1.1-1.1-.9c-.2-.2-.5-.3-.9-.6-2.8-1.7-4.5-3.3-3.9-5.8,3.2,1.8,6.5,4.3,9.5,7.2l-1.4.5Z"/>
      <path class="st0" d="M651.3,420.4c2.5,1.4,5.3,2.4,8.5,2.5,3.2,1.6,7.7,3.1,11.9,3.2h0c1.1,0,2.3-.1,3.5-.6,1.9.3,4,.5,6.1.5,2.4,0,4.8-.2,7.1-1,1.9-.6,3.9-1.7,5.3-3.4,3-1.2,6.4-2.4,9.6-4.3,1.7-1,3.3-2.2,4.7-3.8,1.2-1.5,2.2-3.2,2.7-5.3,8.7-11.3,12.2-25.4,12.5-36.2,0,0,0-2.9,0-3.3h0c0-11.5-3.1-22.3-7.9-29.3-3.9-9.3-8.1-15.7-12.3-19.9-4-4.1-8-6.3-11.8-6.9-.9-.9-2-1.8-3-2.6-2.7-1.9-5.7-3.6-9.2-3.7,0,0,0,0,0,0-3.2-2.9-7.3-4.3-11-5-3.7-.8-7.2-.9-9.4-.9-.3,0-.6,0-.9,0-.7-.4-1.5-.7-2.2-.9-1.2-.3-2.5-.4-3.8-.4-4.4,0-9.5,1.1-11.8,1.6-1.4-.6-2.9-.7-4.3-.8-4.1,0-8.5,1.4-12,2.8-2.1.8-3.9,1.6-5,2.1-.3,0-.7,0-1,0-2.4,0-4.6.9-6.7,2-4.6,2.3-9.4,6.1-11.8,8-.2,0-.5,0-.7,0h0s0,0,0,0c-1.2,0-2.4.4-3.4.9-1,.5-1.9,1.1-2.7,1.8-3.5,3-6.5,7.4-8,9.7-.4.2-.9.4-1.3.6-.8.5-1.5,1.2-2.3,2-1.2,1.3-2.5,3.1-4,5.6-3.5-.7-7-.9-10.4-.9-5.6,0-10.9.5-15.4.8-6.2-12.1-12.7-20.5-18.9-26-5.8-5.1-11.5-7.7-16.6-8.3-1.6-.6-3.2-.9-4.6-.9h0s0,0,0,0c0,0,0,0,0,0-3.4,0-6,1.2-7.4,2,0,0,0,0,0,0-2.2,0-4.6.7-7.3,1.6-4,1.4-8.5,3.7-12.2,6.2-1.8,1.3-3.5,2.6-4.8,4.1-1,1.2-2,2.6-2.4,4.3-.3.3-.6.5-.9.8-3.7,3.3-5.2,8.1-5.2,12.6,0,1.5.2,3,.5,4.5-.4,1.4-.6,2.9-.6,4.3,0,4.9,1.9,9.4,2.9,11.7-.3.8-.4,1.6-.4,2.4h0s0,0,0,.1c0,3,1.4,5.6,3,8.1,3.8,5.8,9.9,11.2,12.5,13.5.2,1.3.8,2.9,2.1,4.7,1.6,2.3,4.3,4.9,8.7,8,.7,1.3,1.5,2.7,2.6,4-.8.7-1.6,1.6-2.5,2.6-.5.6-1,1.2-1.5,1.8-5.5,1.9-14.4,1.9-14.4,1.9-21.9,0-36-12.4-36-12.4,0,0,5.1,24.4,33.5,30.6,1.4,1.3,3.1,2.3,5,3.1-3.2,2.7-5.1,6-6.1,8.9-.8,2.1-1.1,4-1.4,5.4,0,0,0,.1,0,.2-1.5.5-3.8,1.6-6.1,3.5-3,2.5-6.1,6.6-8.4,12.9l-.6,1.5.8,1.4c0,0,0,0,0,.1.4.7,2.5,4,7.4,8.1,0,.5,0,1.1,0,1.6,0,0,0,0,0,0,0,5,1.2,9.4,4,13.2,2.5,3.4,6.8,7.1,13.2,9.5-.3,1.1-.5,2.5-.5,4h0c0,4.9,2.2,11.4,9.5,17.5,7.3,6.1,22.6,13.4,49.6,18.5,0,0-6.4-3.7-7-5.3,16.2,0,22.3-12.2,22.3-12.2,0,0-5.2,2-9.4.3,0,0,3.4,0,4.8-1.9-1.1-.8-7.8-3.6-4.7-9.6,6.8,3.5,13.5,9.6,18.4,16.5,11.4,16,8.2,29.8,8.2,29.8,0,0,33.3-12.2,53.7-44.9,9.3-14.9,12.5-30.3,12.5-44.4h0v-.3c0-24.4-9.4-44.9-14.5-54.2,1,0,2.1-.1,3.1-.2l2.8-.4c5.8-.9,11.5-2.7,16.5-5.9,3.7-2.3,7-5.5,9.4-9.4,2.3-4,3.7-8.8,3.7-14.2s-1.7-10.8-1.7-10.8c0,0-3.4,9-16.4,8.3h0s0,0,0,0c0,0-8.9-.7-14.3-1.3,5.7-9.1,16.8-14.5,27.3-14.5h0c6.8,0,13.2,2.2,18,6.8,4.7,4.6,8,11.7,8,22.4,0,9.7-3.3,15.7-8.1,19.6-4.8,3.9-11.6,5.7-18.5,5.7h0s0,0,0,0c-10.8,0-22-5.5-22.5-5.7,0,0,.4,12.2,12.7,19.1Z"/>
      <g>
        <path class="st20" d="M604.6,433.2c1.6,3.5,1.8,6.9,1.8,6.9-3.8-5-11.5-8.9-11.5-8.9,0,0,12.2,8.6,12.2,19.6,0,16.6-23.5,33.8-23.5,33.8,1.3-1.6,3.5-11.6.5-13.9-1-.8-3-1-5.2-1-5.4,0-13,2-19.5,6.1,0,1,.3,1.8.6,2.3.3.5.6.6,1.1.6.4,0,1.1-.2,1.9-.8l2.2-1.6s2,6.6-1.3,12.7c6.9,3.7,11.1,12.3,12.5,15.4,12.4-6,13.6-18.7,13.6-18.7,0,0,1.9,5.3,1.7,10.1,0,0,0,.1,0,.2.6-.8,1.2-1.8,1.9-2.9,2.4-4,5.1-9.9,6.3-17.4l.5-3.5,1.8,3c0,0,1.8,3.1,2.3,7.4,7.6-15.3,6.6-33.4,6.5-34.4,0,0,6.3,10.8,6.3,25.2s-.4,7.7-1.4,12.1c6.4-17.9.6-41.5-11.4-52.2Z"/>
        <path class="st8" d="M598.9,380.1c-.2,1.3-.4,2.4-.4,2.4-2.6-11.6-7.6-30.9-21.8-30.9h0s13.7-5.6,23.2,21.5c1.4-.8,2.8-1.4,4.2-2-2.8-1.2-3.9-2.8-4-2.9h0c0-.1,0-.3,0-.3-2.8-8.6-13.9-24.4-31-25.3,1.9-.7,3.3-1,5-1.1-10.8-2.3-29,4.6-35.8-2.6,1.4,6.8,9.3,8.3,9.3,8.3l-4.5.8c-9.8,1.9-14.8,5.8-17.9,10.3-3.1,4.5-4.3,9.8-5.9,14.3-1.1,3-2.4,5.7-4.9,7.4h0c0,0-.2,0-.4.1-.4.2-.9.5-1.4.8-1.1.7-2.4,1.7-3.2,2.8-.5.7-.8,1.4-.9,2,0,0,0,0,0,.1,0,.1,0,.2,0,.3,1,2.8,5.9,6.3,5.9,6.3,0,0,.6-1,2.6-1.7,0,5.8,2.7,6.3,5.8,5.2-.7-1.7-.6-3.5-.3-4.1,0,0,2.6,5.1,9.6,4.9,7-.2,15.7-8.2,19.5-11.9,3.7-3.7,17.9-20.7,25.5-11,.5-1.7.5-4.1-.7-7.6,5.9,7,2.2,12.8,2.3,12.8,0,0-2.5-.4-4.5.5,2.5,4.3,1.4,8.3.9,9.7.3.4.6.8.9,1.1.7,1,1.1,2.1,1.1,3.2,0,.9-.3,1.9-.8,2.7-.5.8-1.3,1.6-2.3,2.3,0,0,3.9-5.5-.8-7.8.6,3.6-2,4.5-2,4.5-.1,0-7.7,3.6-19.3,3.6-2.8,0-5.8-.2-8.9-.7-.5,0-3.5,1-2.6,1.5,3.5,2,9,2.9,14.5,2.9-3.6.7-10.2,1.3-15.5-.9-2.2-.9-3.1,1-2.2,3.2.6,1.5,1.7,3,3.6,4.2,0,0-2.3-.2-4.3-1.6-4.7,3.3,2.9,10.2,2.9,10.2-3.9-.2-8.4,2.9-6,8.9,1.7-.7,3.9-1,6.8-.4,0,0-3.5,0-4.6,3,0,0,9.4-4.9,16,6.8,1.9,1.9,4.5,5.6,5.9,10.9-1.5-6.6-4.6-12.5-6.6-17.2-2.4-5.4,1.2-6.8,1.2-6.8,0,.2-.3,1.2-.1,2.7,1.5-3.7,6-5.3,9.5-5.4-.8-.6-2.1-1.1-4-1.5,1.3,0,2.4,0,3.6,0,5.5,0,9.5.8,12.6,3.2,3.1,2.4,5.2,6,7.7,11.3,0,0-2.3-2.4-3.7-1.9.3,1,.6,2.1.8,3.3.6-1.1,1.1-.1,1.1-.1.9,1.9,2,9.5-1.7,16.1,2.8,1.6,3.1,3.9,3.1,3.9-3.3-1.9-8.3-3.3-12.9-3.3-2.7,0-5.3.5-7.2,1.6,0,.4,0,.8,0,1.2,0,.7,0,1.5,0,2.2,1.8-1.7,5.8-2.6,8.6-1.7-7.8,1.5-9.2,6.2-9.5,6.8-.1.5-.4,1.5-.8,2.7,3.3-4.2,9.1-4.8,9.1-4.8,0,0-8.2,2.4-10.5,13.1,1.5-4.2,5.6-8.7,13.3-10.9,8.3-2.8,16.9-2.9,20.2,1.8,9.6-5.2,10.6-18.1,3.9-32,0,0,7.6,3.9,11.5,8.9,0,0-.2-3.4-1.8-6.9,12,10.7,17.8,34.3,11.4,52.2,6.1-4.5,6.2-12.8,6.2-12.8,0,0,3.8,10.6.3,20.2,4.3-1.8,6-6.4,6-6.4,6.7-54.3-17.4-71.9-17.4-71.9,0,0,4.6-3,1.8-12.7-2.3-7.7-9.2-11.8-9.9-12.2,0,0,0,0,0,0h0s1.9-.7,5.5.9c1-2.3,2.6-4,4.6-5.4h0s0,0,0,0c.2-.1.4-.3.6-.4,2.9-1.8,6.5-2.7,10.4-3.4,7.8-1.3,16.8-1.3,24-2.9,4.8-1,8.7-2.7,10.8-5.6.6-.8,1.1-1.6,1.4-2.6-8.7,11.9-41.4-5-61.3,10Z"/>
      </g>
      <path class="st20" d="M574.1,379.5c-.4.2-.7.4-1,.6,1.1,2.2.8,5.9.3,7.4.6.6,1.1,1.1,1.6,1.6.5-1.4,1.6-5.4-.9-9.7Z"/>
      <path class="st20" d="M568,459.1s-5.8.6-9.1,4.8c-2.7,7.6-12,26.2-38.2,26.2s-13.4-1.5-14.7-1.9c-3.5.8-6.8,1.5-12.9.1-.2.8-.3,1.8-.3,2.8,0,3.5,1.4,8.5,7.9,13.9,5.5,4.6,14.8,9.6,29.9,13.9-.3-.3-.6-.6-.8-.8l-2.8-3.2,4.1,1.1c3,.8,5.7,1.1,8.1,1.1,5.4,0,9.2-1.7,11.5-3-.1,0-.3,0-.4-.1-1.9-.6-4.3-1.7-5.9-3.9-1.1-1.5-1.8-3.5-1.8-5.9,0-1.9.4-4,1.3-6.5,0,0,0,6.8,4.4,7.9-.4-1-.7-2.4-.7-4,0-2.3.8-5.1,3.2-7.4,2.8-2.7,11.8-4.3,11.5-13.1-1.1.7-4.5,2.6-7.9-1.6,2.4,1.3,4.3,1,3.6,0-.7-1-1-2.3-1-3.7,0-1.1.2-2.3.6-3.5,2.3-10.8,10.5-13.1,10.5-13.1Z"/>
      <g>
        <path class="st8" d="M515,463c5.6-11.1-.6-10.5-2.3-8.9-6.1,6.2-13.2,22.8-13.2,22.8,10.4-18,14.4-22.5,15.5-13.9Z"/>
        <path class="st8" d="M558.2,453.9c0-2.4-.3-4.7-.8-6.9-1.4-5.4-4-9-5.9-10.9-8.1-7.6-15.9-5.8-17.1.6,0,0-2.6-3-1.6-7.1-3.2,4.9-2.5,10.8-2.5,11.6,0,5.1-3.4,9.9-6.7,13.5-3.3,3.6-8.7,8.4-8.7,8.3-1.1-8.6-5.1-4.1-15.5,13.9,0,0-15.6-4.9-23.6-13.2,0,.2,0,.5,0,.7,0,4.3,1,7.5,3.1,10.4,2.1,2.9,7.6,8.8,21.9,8.8-1-.7-1.3-3.2-1.3-3.2.3.8,10,4.6,21,4.6s22.1-2.6,31.1-13.9c2.9-3.7,4.7-7.3,5.6-10.7h0s0,0,0-.1c.5-2.1.8-4.3.8-6.3Z"/>
      </g>
      <path class="st7" d="M579.4,434.5s-.5-1-1.1.1c.2,1.4.4,2.8.4,4.3,0,3.4-.7,7.1-2.5,10.9.6.2,1.1.5,1.5.7,3.7-6.6,2.7-14.2,1.7-16.1Z"/>
      <path class="st20" d="M551.5,384.8c-3.8,3.8-12.5,11.7-19.5,11.9-7,.2-9.6-4.9-9.6-4.9,0,0,1.9,6.5,8.2,6.5s5.9-1,10-3.5c3.2-2,6.3-4.5,9.4-7,0,0,0,0,0,0h0c2-1.6,3.9-3.3,5.8-4.9,4.8-3.9,9.5-7.2,14.6-7.3,1.6,0,3.2.3,4.7,1.1,0,0,1.2-.8,1.8-3-7.6-9.6-21.8,7.4-25.5,11Z"/>
      <g>
        <path class="st7" d="M563,467.5c-.7.7-1.3,1.5-1.8,2.3,5.3-2.3,18.7-5.4,24.9-1-3.1-5.9-14.8-5.2-23.1-1.3Z"/>
        <path class="st7" d="M574,341.3c.4,0,.8,0,1.2,0l.5-1.3c-3.1-.6-6.3-.8-9.4-.8-6.6,0-13.1.9-18.8.9-3.4,0-6.5-.3-9.2-1.4,6.7,7.2,25,.3,35.8,2.6Z"/>
        <path class="st20" d="M516.9,390.8c-2.1.7-2.6,1.7-2.6,1.7,0,0-4.9-3.5-5.9-6.3.1,1.9,1.5,4,3.3,5.8,1,1,2.2,2,3.1,2.6.1-1.2.5-2.1,1.4-2.7,0,0-.6,6.2,3.6,6.1.9,0,2.2-.2,3.8-.6-.4-.4-.7-.9-.9-1.5-3,1.1-5.8.6-5.8-5.2Z"/>
        <path class="st7" d="M563.9,489c-1.3,2.4-3.3,4.7-6.5,6.5,4.8,2.8,9.3,6.6,13.2,11,2.1-.5,4-1.2,5.7-2-1.3-3.1-5.6-11.7-12.5-15.4Z"/>
        <path class="st20" d="M591,463.1c-3.3-4.7-11.9-4.6-20.2-1.8,0,0-4.7,2.7-7.8,6.2,8.3-3.8,20-4.5,23.1,1.3,1.3-1.1-.5-4.3-2.3-5.8,9.4,4.4,4.5,10.1,4.4,10.4,5.9-3.9,15.2-15.3,15.2-22.7s-4.9-13.8-8.5-19.6c6.7,13.9,5.7,26.7-3.9,32Z"/>
      </g>
      <g>
        <path class="st7" d="M660.2,370.1c-.7.6-1.6,1-2.4,1.4-2.7,1.2-5.7,1.5-9,1.6-8.2,0-18.2-2.3-28.1-2.3-7.4,0-14.7,1.3-21.3,5.5,0,.2-.2,2.1-.5,3.8,19.9-15,52.6,1.9,61.3-10Z"/>
        <path class="st7" d="M527.5,421.1c1.8-3.3.9-6,.9-6l.3-.4s0,0,0-.1c0,0,.1-.2.3-.4.2-.3.5-.9.8-1.4,2.3-4.2,0-6.2,0-6.2,0,0,3.4-1,1-3.3,1.4-.8,0-2.2-1.3-2.3-.2,0-.4,0-.6,0-.7.9-.4,2.5-.4,2.5,1.1,2.1-1.9,3.5-1.9,3.5,1.4,3-2.6,7.5-2.6,7.5,3.8,4.2-1.6,13.3-1.6,13.3,2.2,4,.3,7.7.3,7.7-18.8-.4-36.9,13.5-41.4,17.3,0,2.1.4,3.9.7,5.1,5.1-4.7,22.6-19.4,45.1-20.5,0,0,0-.1,0-.2,1.4-3.2.1-8.6-.5-9.8,0,0,.9-2.3.8-6Z"/>
        <path class="st8" d="M653.8,379.8c-.2,2.1-2,6.8-13.5,9.4-15.1,3.4-18.6-3.9-23.7-3.3,1.7.6,3.8,1.7,5.7,3.4,0,0-2.8-.5-5.5,0,7.1,3.5,21.9,3.4,21.9,3.4,7-1.5,11-4,11-4,3.2-3.5,5.1-7.8,4-8.9Z"/>
        <path class="st20" d="M640.4,389.2c11.5-2.6,13.3-7.3,13.5-9.4,0,0,0,0-.1-.1-10.6,5.2-25.3,3.3-29.4,7.2-1.6-.7-5.1-2.2-7.6-1.1,5-.6,8.5,6.7,23.7,3.3Z"/>
        <path class="st20" d="M551.9,425.7c.1.9.4,1.9,1,3,2.5-2.9,5.8-5.2,9.4-6.1.7-.2.6-1.2-.8-2.2-3.5,0-8,1.7-9.5,5.4Z"/>
        <path class="st20" d="M649.8,388.7s-4,2.5-11,4c-8.1,2.8-22,0-25.9-.8-.4.7-.7,1.6-.8,2.6,1.5,3.7.8,7.2.8,7.2,2.9,9.7-1.8,12.7-1.8,12.7,0,0,24.1,17.6,17.4,71.9,0,0,.7,8.4-1.3,14.5.8-1.2,1.5-2.3,2.3-3.5,8.8-14.2,11.8-28.8,11.8-42.3,0-28.7-14-52.5-16.5-56.5,12,23.2,11.5,48.4,11.5,48.4-4.9-34.6-15.2-47.2-17-49.1-.8-.2-1.6-.4-2.4-.6,2-2.2,5.5-1.2,11.9-1,7.7.2,16.2-1.7,22.6-5.8,6.2-3.9,10.5-9.8,10.9-18.7-.8,1.5-3.6,11.8-12.5,16.9Z"/>
        <path class="st20" d="M539.3,417.7s-7.6-6.9-2.9-10.2c-.3-.3-.7-.6-1-.9-.4-.4-1.5-.5-2.1,1,0,0,0,0,0,0,.1.5.2.9.2,1.4,0,1.8-.7,3.5-1.4,4.8-.4.8-.8,1.4-1,1.8.2,2.2-1.5,4.4-3.6,5.5,0,3.6-.8,6-.8,6,0,0,1.4,1.1,2.4,3.3.5-.9,1.7-2.8,4.3-3.8-2.4-6,2.2-9.1,6-8.9Z"/>
      </g>
      <g>
        <path class="st22" d="M481.5,462.2c-2.5-1.2-7.7-3.9-10.8-6.6.9,1,2.1,2.2,3.6,3.4,2.6,2.2,6.2,4.7,10.9,7.1-1.7-1.6-2.9-3-3.7-4Z"/>
        <path class="st4" d="M481.3,461.9l-.8-1.2c-3.7-2.4-7.2-4.1-9.8-5.2,3.1,2.7,8.3,5.3,10.8,6.6,0,0-.1-.2-.2-.3Z"/>
        <path class="st22" d="M527.7,439.6c-5.8,1-32.3,8.8-42.6,23,.3.3.5.6.8.9,2.3,2.3,6.1,5.2,11.6,7.6.9-1.5,2.8-4.7,5-8.2,8.7-13.7,15-17.2,19.2-17.1-3.2,1.2-3.8,3.2-1.7,4.8.8.6.9,1.6.9,2.5,0,.3,0,.6,0,.9.3-.3.6-.7,1-1,3.1-3.4,6-7.8,6-11.8,0-.5,0-1.1-.2-1.6Z"/>
        <path class="st4" d="M527.7,439.6c-22.8.8-40.9,16.9-44.6,20.5,0,.1.2.2.3.4.4.6,1,1.3,1.8,2.2,10.3-14.2,36.8-22,42.6-23Z"/>
      </g>
      <g>
        <path class="st8" d="M496.1,417.1c1.1-.5,2.2-.9,3.2-1.3.4-1.2,1.2-3,2.6-4.6-2.6,1.6-4.5,3.6-5.8,6Z"/>
        <path class="st8" d="M491.2,422.8c-3.1,2.1-5.4,4.4-6.6,6.8-.9,1.8-1.3,3.7-1.6,5.1.9-.5,1.7-1.1,2.6-1.5.2-2.3,1.3-6.3,5.6-10.4Z"/>
        <path class="st8" d="M522.8,435.3s1.9-3.7-.3-7.7c0,0,5.4-9.1,1.6-13.3,0,0,4-4.5,2.6-7.5,0,0,3-1.4,1.9-3.5,0,0-.2-1.5.4-2.5-1.3-.2-2.4-.6-3.4-1.3-1.7.5-3.2.8-4.5.9,4,.3,6.4,2.5,6.4,2.5-2.7-.7-14.9-1.9-19.3,2.4,10.3-2.7,17.2,1.3,17.2,1.3-10.2-.8-18.2,1-23.5,4.4-1.4,1.7-2.2,3.5-2.6,4.6,13.6-5,23.2-1.4,23.2-1.4-.7,0-1.5,0-2.2,0-10.7,0-22,3.7-29.2,8.5-4.3,4.1-5.4,8.1-5.6,10.4,16.3-9.1,32-5.4,32-5.4-24.8.9-34.8,10.3-36.1,11.2-.1,0-6.7,1.4-11.3,9.5,1,1.1,3.7,3.5,8.7,4.7,0-10.8,8.9-16,8.9-16-5.2,4.5-6.4,11.1-6.4,15.2,0,0,0,.1,0,.2,4.5-3.8,22.6-17.7,41.4-17.3Z"/>
        <path class="st8" d="M470.2,448.4c-.6,1.1-1.2,2.3-1.7,3.6,2,.7,6.1,2.4,10.8,5.1-.3-1.4-.4-2.7-.4-4-5-1.2-7.7-3.6-8.7-4.7Z"/>
      </g>
      <path class="st2" d="M712,342.6s-.4-.6-.6-.9h0s0,0,0,0c-7.3-11.6-21.4-17.7-37.1-17.7-19.6,0-41.3,9.6-54.3,29.6.2.6.6,1.1.9,1.6,8.4-13.5,20.8-20.2,23.1-21.3,0,0-16.7,13.1-22.1,29.9.2.1.5.3.7.4,1.7-4.9,10.4-25.8,35-32.9,0,0-23.8,9.2-32.1,34.3.2,0,.5.2.7.3,2.2-5.5,15.8-36.1,49.9-34.2,0,0-22.8-.5-38.9,21.6,2.3-2.4,4.8-4.5,7.6-6.3,4.7-3.1,10-5.3,15.5-6.5,0,0,0,0,.1,0h0c3.6-.8,7.2-1.2,10.8-1.2,6.4,0,12.9,1.3,18.7,4,.2,0,.5.2.5.2,5.2,2.5,10,6.1,13.8,10.9,5.2,6.5,7.6,14.3,7.6,22,0,9.3-3.5,18.6-10,25.5-2,2.2-4.4,4.1-6.9,5.8,6.1-2.4,10.9-5.9,14.4-10.1,6.7-7.9,9.3-18.4,9.3-28.5,0-10.3-2.8-20.2-6.7-26.2Z"/>
      <polygon class="st4" points="482.1 438.6 482.1 438.6 482.1 438.6 482.1 438.6"/>
      <path class="st24" d="M535.5,340.6c-2.4.2-4.1,1-5,1.6-1.1-1.7-2-3.2-2.7-4.6-.1-.2-.2-.4-.3-.6.2-.4.8-1.1,1.7-1.8,1.3-1,3.4-2,6.7-2,.5,0,.9,0,1.4,0,1,1,2.1,2.1,3.1,3.3-3.2-.9-5.6-2.1-5.6-2.1,0,0-.3,3,.7,6.2Z"/>
      <path class="st24" d="M536.5,343.1c.5,1,1.2,1.9,2,2.7,0,0-1.9.3-4.5,1.2-.8-.9-1.5-1.9-2.1-2.8.7-.5,2.1-1.1,4.5-1.2Z"/>
      <path class="st24" d="M527.5,333.3c-.4.3-.8.7-1.1,1-.5-1.4-.7-2.6-.7-3.6,0-1.1.3-1.8.6-2.1.3-.4.8-.6,1.7-.6,1.4,0,3.6.8,6.1,2.6,0,0,.1,0,.2.1-3.1.3-5.3,1.4-6.8,2.6Z"/>
      <path class="st4" d="M508.1,396.4c.4.3.8.6,1.3.9-.2.3-.4.6-.6.9-.1.2-.2.5-.3.7-.3-.7-.4-1.4-.4-2,0-.2,0-.3,0-.5Z"/>
      <path class="st24" d="M483.2,404.1c5.9,0,10.8-.9,13.9-1.6-.7,1.5-1.1,3.1-1.2,4.8,0,.4,0,.9.1,1.3-1,0-2.1,0-3.1,0-13.1,0-22.9-3.9-29.4-7.7-.5-.3-.9-.6-1.4-.8,7.6,3,14.9,3.9,21,3.9Z"/>
      <path class="st19" d="M510.1,400.6c0-.5,0-1.1.3-1.6.1-.3.3-.5.6-.8.3.2.6.3.9.4-.4.3-.7.7-1,1-.3.4-.5.7-.7,1.1,0,0,0,0,0,0,0,0,0,0,0-.1Z"/>
      <path class="st8" d="M513.1,400.9c.7-.7,1.6-1.2,3.3-1.3.5.4,1,.7,1.7.8-2,0-3.7.2-4.9.5Z"/>
      <path class="st24" d="M645.2,351.7c-2.6,1.3-5.1,2.8-7.3,4.6,2.4-2.9,5.3-5.3,8.4-7.4.6-.4,1.3-.8,1.9-1.2-1.6,1.7-2.5,3.1-3,3.9Z"/>
      <path class="st24" d="M661.9,347.8c-4.1,0-8.3.7-12.3,2.1,2-2.2,5.5-4.9,11.4-7.1,3.4-.8,6.8-1.1,10.2-1.1,3.7,0,7.3.4,10.8,1.3-10.6.7-16.8,4.5-17.5,5-.9,0-1.8-.1-2.7-.1Z"/>
      <path class="st24" d="M679.1,352.8c-3.1-2.1-6.6-3.5-10.3-4.2,3.1-1.4,8.7-3.2,16.3-3.2,1.3,0,2.7,0,4.2.2,3.5,1.7,6.8,3.9,9.7,6.6-3.3-.9-6.4-1.2-9.1-1.2-5.6,0-9.6,1.3-10.8,1.8Z"/>
      <path class="st24" d="M683.1,356c-.5-.5-1-.9-1.5-1.4,1.8-.5,4.7-1.1,8.4-1.1,3.6,0,7.9.6,12.6,2.5,2,2.6,3.5,5.3,4.6,8.2-4.7-1.4-8.8-1.8-12-1.8-3.2,0-5.5.4-6.8.7-1.4-2.7-3.2-5.1-5.2-7.1Z"/>
      <path class="st24" d="M689.5,365.4c1.2-.2,3.1-.5,5.7-.5s7.9.5,13,2.3c.8,2.9,1.2,5.9,1.2,8.8-8.3-1.2-14.8-1.4-17.4-1.4-.5-3.4-1.4-6.5-2.5-9.2Z"/>
      <path class="st24" d="M704.2,385.9c-3.5,0-6.7-.4-9-.7-1.1-.2-2-.4-2.7-.5,0,0,0,0-.1,0,0-1,0-1.9,0-2.9,0-1.6,0-3.2-.2-4.7,2.7,0,9,.2,17,1.4-.2,2.5-.6,4.9-1.3,7.3-1.3.1-2.6.2-3.8.2Z"/>
      <path class="st24" d="M707.2,388.4c-.7,1.9-1.6,3.7-2.6,5.5-1.1,0-2.1.1-3,.1-3.5,0-6.3-.6-8.2-1.1-1-.3-1.7-.5-2.2-.7.5-1.5.8-3.2,1-4.9,2.1.4,6.6,1.2,12,1.2,1,0,2,0,3,0Z"/>
      <path class="st24" d="M690.3,394.5c1.8.7,5.8,2,11.3,2,.4,0,.9,0,1.3,0-.9,1.2-1.8,2.4-2.8,3.5-.4.5-.9.9-1.3,1.4,0,0-2.1,0-3,0-3.2,0-5.4-.6-7-1.1-.5-.2-.8-.3-1.2-.5,1.1-1.6,2-3.3,2.8-5.2Z"/>
      <path class="st24" d="M682.7,405c1.2-1,2.3-2,3.3-3.2.6.3,1.4.7,2.4,1,1.8.6,4.2,1.1,7.3,1.1s0,0,0,0c-1.1.8-3.5,1.8-3.5,1.8-2,.2-3.7.3-5.1.3-2.3,0-4-.2-5.1-.5.2-.2.5-.4.7-.5Z"/>
      <path class="st24" d="M679.2,407.3c1.2.5,3.6,1.2,7.8,1.2h0c0,0,.1,0,.2,0-3.8,1.4-8,2.2-12.5,2.2-.5,0-.9,0-1.4,0-.8,0-1.7,0-2.5,0,3-.7,5.8-1.8,8.4-3.3Z"/>
      <polygon class="st4" points="697.2 344 697.2 344 697.2 344 697.2 344"/>
      <polygon class="st4" points="494.4 495.3 494.4 495.3 494.4 495.3 494.4 495.3"/>
      <path class="st0" d="M523.5,384.3c-1-.4-2,0-2.4,0-1.6-3-4-1.7-4-1.7,0,0,2.3.6,1,5.7,2.3-1.9,4.4-2,5.9-.9,1.8-7.1,9.9-8.8,9.9-8.8-3.9,0-8.5,2.3-10.4,5.6Z"/>
      <path class="st0" d="M572.4,401.5c-2.6,2.2-10.7,6.3-20,6.3-3.3,0-9.3-.3-12.5-1.9,0,0,3.7,4.5,12.5,4.5,12.6,0,18.8-7.3,20-8.8Z"/>
      <path class="st0" d="M539,413.9c-1.1-1.9-3.8-1.8-3.8-1.8h0c1.7,6.4,9.1,8.2,9.1,8.2-3.3-2-4.4-4.8-5.3-6.4Z"/>
      <path class="st0" d="M687.4,339.6c15.2,5.7,27.4,14.7,25.9,39.7,0,0,4-11-.8-22.6-3.7-8.9-12.7-16.3-25.1-17.1Z"/>
      <path class="st8" d="M535.4,509.8c-32,.2-39.7-15.1-39.7-15.1,0,3.6,5.8,12.4,30.4,21.4-1.3-1.1-2.8-2.5-3.8-4.4,11.7,4.9,21.3,3.5,21.3,3.5l-1.6-2.1s0,0,0,0c-.3-.4-3.3-4.8-3.3-9.6,0-3.4,1.3-7,6.1-10.4-4.6,1.7-12.3,7.3-9.4,16.7Z"/>
      <path class="st0" d="M605.1,385.5c-1,2.5,2.8,2.2,2.8,2.2,5.5-9.8,19.2-9.7,19.2-9.7,0,0-13.1-3.1-21.9,7.6Z"/>
      <path class="st0" d="M579.9,448.4c6.2-4.8,1.6-12.8,1.6-12.8,0,0,.8,6-1.6,12.8Z"/>
      <path class="st8" d="M496.4,436.2s8.5-4.3,21.1-6.4c-17.7,1.6-27,6.8-27,6.8,0,0,3.3-1,5.9-.5Z"/>
      <path class="st0" d="M495.3,463.9s-3.7.4-8.9-1.8c0,0,4.3,4,10.2,7,0,0,11.4-21,21.7-23.7-11.5,0-23,18.6-23,18.6Z"/>
      <path class="st12" d="M521.9,451.4s6.2-7.3,4.7-10.7c-2.9,8.2-6.4,8.1-6.4,8.1,0,0,2,.7,1.7,2.6Z"/>
      <path class="st2" d="M532.7,324s4.6.9,10.5,7c-4.8-8.2-9.7-14.1-14.3-18.1-5.4-4.7-11.4-7.4-16.6-7.2-1.5,0-2.4,1.2-2.7,3.1,2.8-1.7,8.9-2.2,13.2,2-1.8-1.3-11.1-3.1-12.9,3.6,0,.5.2.9.3,1.4,2.5-5.2,10.6-8.7,21.1,3.9-5.1-4.4-16.8-10.9-18.9,2.5.4,1,.9,2,1.4,3,0-4.9,3.2-12.3,13.8-6.4-8.4-2.6-12.3,4.1-10.2,12.2.5.7,1,1.4,1.6,2-.5-1.8-.8-3.4-.8-4.8,0-2.2.7-4.1,1.9-5.3,1.2-1.3,2.9-1.8,4.6-1.8.7,0,1.4,0,2,.3,0,0-6,1.2-6,6.9s2.5,8.7,4.7,10.4c-1.6-3.2-2.4-5.8-2.4-8,0-1.5.4-2.9,1.3-3.8.9-1,2.2-1.4,3.5-1.4,2.2,0,4.8,1.1,7.6,3,2.8,2,5.8,4.9,8.8,8.8.4,0,.9.1,1.3.2-1.6-2.4-6.6-9.2-13-13.5Z"/>
      <path class="st0" d="M656.5,338.8c21.3-10.5,42-4.8,52.3,7.7-22.8-18.5-52.3-7.7-52.3-7.7Z"/>
      <path class="st0" d="M668.8,330.2c7.8-1.8,21.3,0,27.4,2.4-6.3-4.3-16.8-6.5-31.1-6.1,43.1-6.6,50.6,26.9,51.2,29.9-7.7-15.7-17-25.3-47.5-26.1Z"/>
      <path class="st0" d="M707.9,396.5c9.1-17.5,9.5-30.6,5.7-41.2,0,0,11.6,18.7-5.7,41.2Z"/>
      <path class="st22" d="M508.3,392.1c-12.8-13.7-7.7-22.1-2.2-18.8-5.5-.7-3.9,10.1,2.2,18.8Z"/>
      <g>
        <path class="st7" d="M502,401.2s-2.8,3.9,0,7.2c.8-.5,1.7-.9,2.6-1.3,0-.4.2-.9.5-1.4-3.5-1.2-3-4.5-3-4.5Z"/>
        <path class="st8" d="M505.7,395.6s0,0,0,0c-5.1,3.5-8.1,11.3-5.2,13.8.5-.3,1-.7,1.5-1-2.7-3.3,0-7.2,0-7.2,0,0-.4,3.4,3,4.5,0-.2.2-.3.2-.5,0-.1.1-.3.2-.4-.7-.7-1.1-1.4-1.4-2.1-.4-.9-.5-1.7-.6-1.8,0,0,1.5,1.7,3.7,2,0,0,.1,0,.2-.1-1.7-.5-4.6-3.3-1.7-7.2Z"/>
        <path class="st7" d="M506.5,400.5c-.7-1.2-.9-2.5-.9-3.6,0-.5,0-.9.1-1.3-2.9,3.9,0,6.7,1.7,7.2.2-.2.4-.3.7-.5-.7-.6-1.2-1.2-1.6-1.9Z"/>
      </g>
      <path class="st7" d="M506,474.8c.5,6.7,26.4,8.8,37.7-4.4,11.3-13.2,7.1-28.6-1.2-30.4,0,0,1.2,17.5-19,23.2,0,0,7.9,1.4,11.9-.3-3.1,12-21.6,14.9-29.5,11.8Z"/>
      <path class="st7" d="M570.9,412.8c14.7,2.5,22.6-1,16.2-11.2-1.6,10.4-16.2,11.2-16.2,11.2Z"/>
      <path class="st7" d="M545.6,399.5c-5,3,26.9,3.6,26.9-3.2-15.2,5.6-26.9,3.2-26.9,3.2Z"/>
      <path class="st7" d="M543.6,404.4c-3.2,1.6,14.1,4.5,20.2-1-7.5,3.1-20.2,1-20.2,1Z"/>
      <path class="st7" d="M478.3,468.3c1.5,9.5,10.1,11.9,17.2,11.4-13.3-3.8-17.2-11.4-17.2-11.4Z"/>
      <g>
        <path class="st4" d="M562.7,433.7s1.2,1.3,1.3,3.4c.3.2,1.3.9,1.3.9,0,0,3.4-1.2,3.7-9.3,0-.7,0-1.4,0-2-.9-2.8-3.3,5.6-6.1,5.9-2.1-6.1-5.9-3.1-6.8,2.6,0,.2.2.4.2.5.8,1.9,1.7,4,2.4,6.1.4-.3,3.9-2.6,4.1-8.2Z"/>
        <path class="st4" d="M562.8,432.7s-.9-4.2-3.3-5.7c-.4.3-.8.7-1.2,1-2,1.8-3.1,3.7-3.5,4.6.4.8.8,1.7,1.2,2.6,1-5.6,4.7-8.7,6.8-2.6Z"/>
        <path class="st4" d="M568.9,426.7c-.1-1.3-.4-2.5-.7-3-1.1,0-2.1.3-3,.5,0,.4,0,.8,0,1.2,0,2.8-1.1,4.7-1.2,4.8l-1.4,2.5c2.9-.3,5.3-8.8,6.1-5.9Z"/>
        <path class="st4" d="M563.7,439.5c-.1,0-.3-.2-.4-.3-.6,1.2-1.2,2.2-1.9,3-.8.9-1.6,1.5-2.2,1.9.2.6.3,1.3.5,1.9.9-.6,3.5-2.7,4-6.5Z"/>
        <path class="st4" d="M568.5,439.4c-.3-.2-.5-.3-.7-.5-.3.4-.7.7-1,.9.1.4.2.8.3,1.3.7-.5,1.2-1.1,1.5-1.7Z"/>
        <path class="st4" d="M570.7,443c0-.8-.2-1.4-.3-1.6-.3-.6-.9-1.3-1.6-1.8,0,0-.2-.1-.2-.2-.3.5-.8,1.2-1.5,1.7.3,2.1-.5,4.1-.5,4.1,0-.7-.9-4.4-2.8-5.7-.5,3.9-3.1,5.9-4,6.5.3,1.3.6,2.6.7,4,2.2-1,4.8-1.4,7.4-1.4.9,0,1.9,0,2.8.2,0-.8,0-2,0-3.2s0-1.8-.1-2.5Z"/>
      </g>
      <g>
        <path class="st20" d="M586.1,392.8c6.8,4.8,17.3,21.3,6.4,25.7-2.2.9-4.5,1.4-6.6,1.5,3.9,9.3.2,21.2.2,21.2,0,0-.4,3.3-1.5,5.9,0,0,8.2-9.3,7.2-22.9,18.7-.5,14.8-20.8-5.7-31.5Z"/>
        <path d="M585.9,420c2.1-.2,4.3-.6,6.6-1.5,10.9-4.4.5-20.9-6.4-25.7,4.8,6.6,10.4,17.9,3.8,21.9-6.3,3.8-16.6,1.9-20.6,1.2,0,0,4.9,3.2,11.6,4,1.6,2.1,5.8,8.9,5.2,21.3,0,0,3.7-12-.2-21.2Z"/>
      </g>
      <path class="st7" d="M525.2,387.6c2.6-7.2,9.3-8.5,14.2-8.3-7.7,2.2-10.3,3.5-14.2,8.3Z"/>
      <g>
        <path class="st19" d="M568.5,393.3c0,.1,0,.2,0,.3.4-.1.7-.3,1-.4,0-5.1-4.1-9.2-9.2-9.2-.8,0-1.6.1-2.3.3-.2.2-.4.3-.6.5-.3.3-.6.5-1,.8,1.1-.5,2.3-.8,3.6-.8,4.7,0,8.4,3.8,8.4,8.4Z"/>
        <path class="st19" d="M553.2,388.5c-.4.3-.8.7-1.2,1,0,.2-.1.3-.2.5-.4,1-.6,2.1-.6,3.3,0,1.1.2,2.2.6,3.1,0,0,0,0,.1,0,.1,0,.3,0,.4,0-.4-1-.6-2-.6-3.1,0-1.8.6-3.5,1.5-4.8Z"/>
        <path class="st19" d="M553.3,393.3c0-3.8,3.1-6.8,6.8-6.8s6.8,3.1,6.8,6.8,0,.6,0,.9c.6-.2,1.2-.4,1.7-.6,0-.1,0-.2,0-.3,0-4.7-3.8-8.4-8.4-8.4s-2.5.3-3.6.8c-1.1.9-2.2,1.8-3.3,2.8-1,1.4-1.5,3-1.5,4.8s.2,2.1.6,3.1c.6,0,1.2,0,1.7,0-.5-.9-.7-2-.7-3.1Z"/>
        <path class="st19" d="M560.1,386.5c-3.8,0-6.8,3.1-6.8,6.8s.3,2.1.7,3.1c.4,0,.7,0,1.1,0-.5-.9-.8-1.9-.8-3,0-3.3,2.7-6,6-6s6,2.7,6,6c0,.4,0,.8-.1,1.2.3,0,.5-.2.7-.2,0-.3,0-.6,0-.9,0-3.8-3.1-6.8-6.8-6.8Z"/>
      </g>
      <g>
        <path class="st4" d="M548.7,393.5c0,0,0-.1,0-.2,0-.4,0-.7,0-1.1-2.8,2.3-3.1,3.5-1.2,4-.8-1.1.3-2.2,1.2-2.6Z"/>
        <path class="st4" d="M548.7,393.5c-.8.4-2,1.5-1.2,2.6.4.1.9.2,1.6.2-.2-.9-.4-1.9-.4-2.8Z"/>
        <path class="st4" d="M569.4,382.2c-1.3-.9-3.1-.9-5.3,0,3,1,5.5,3.2,6.8,6.1,0-.2,0-.4,0-.6,0-1.7-.4-3.6-1.5-5.5Z"/>
        <path class="st4" d="M569.4,382.2c-.4-.6-.8-1.3-1.4-1.9-.4-.4-2.9-.9-6.3,1.4.8,0,1.6.3,2.4.5,2.2-1,4-.9,5.3,0Z"/>
      </g>
      <path class="st7" d="M509.9,384.1c2.6-3.2,5.7-3.4,7.3.3-3.5-1.7-7.3-.3-7.3-.3Z"/>
      <path class="st7" d="M541.6,380.1c8.3-22.5,16.1-29.5,20-31,3.9-1.5,8.9-.2,11.6,4.1,0,0-6.2-2.3-11.6,1.7-5.4,4-20,25.3-20,25.3Z"/>
      <path class="st8" d="M496.6,491.4c-.6,3.7,6.9,10.2,21.7,12,0,0-4,0-5.4-4.5,0,0,4.6,2.7,12.8,2.6,0,0-2.6-1-3.5-2.7,0,0,11,1.4,17.3-8.5-19,7-33.6,2.2-33.6,2.2,0,0-3.7,1.3-9.3-1.1Z"/>
      <path class="st7" d="M539.3,411.5c4.8,8.1,21.4,2.9,27.9-1.9-16.8,7.1-27.9,1.9-27.9,1.9Z"/>
      <path class="st7" d="M507.3,473.7c12.3,3.2,23.2-3.5,26-8-10,6.9-26,8-26,8Z"/>
      <path class="st7" d="M543.2,438.1s10.2,3.5,8.4,17.9c3.8-12.8-4.9-20.8-10.3-21.3,0,0,2.6,1.4,1.9,3.4Z"/>
      <circle class="st4" cx="563.5" cy="388.7" r="2.2"/>
      <circle class="st4" cx="560" cy="391.9" r="1.3"/>
      <path class="st0" d="M569.7,353c-6.8-4.6-17.4,6.7-24.8,20.7-7.4,14-10.3,19.4-17.1,14.7,0,0-.4,6.7,7.3,6.5,9.1-.3,24.3-26.7,29.6-28.9,5.3-2.2,7.8,2.9,7.8,2.9,0,0,4.1-11.4-2.8-15.9Z"/>
      <path class="st0" d="M571.3,351c-6.4-7-16.7-5.5-21.9,11.9,0,0,11.1-18.9,21.9-11.9Z"/>
      <path class="st22" d="M545.3,378.5c12-21.4,20.5-26.6,24.5-22.5-6.5-2.7-24.5,22.5-24.5,22.5Z"/>
      <g>
        <path class="st24" d="M664.2,319c29.4-2.6,42.8,13.8,42.8,13.8-2.4-4.3-4.9-7.6-7.2-9.9-2.3-2.4-4.5-3.9-6.5-4.7,0,0,0,0,0,0,1.6,2.8-.4,4.4-.4,4.4,0-.5-.7-1.7-1.6-2.9-.9-1.3-2.2-2.6-3.6-3.9-1.9-1.8-4.1-3.3-6.1-4,1.4,1.3,2.6,2.5,3.3,3.8,1.1,2.3-1.3,3.7-1.3,3.6,0-.3-.8-2.2-2.4-4.2-5-6-9.3-7.7-12.4-8.5,3.4,1.4,7.2,4,8.8,5.8,2,2.1-.6,1-.6,1,0,0-4-1.7-7.1-1.4,1.2,2.5-1.1,3.9-1.1,3.6,0-.8-.4-1.8-1.3-2.9-.9-1.1-2.2-2.1-3.5-3.1-2.8-1.9-6.9-4.9-9.6-5.3-.7-.1-1.6-.3-2.7-.3,0,0-.1,0-.2,0,4.3.8,9.1,4.3,10.9,5.8,2,1.6-.6,1.6-.6,1.6,0,0-5.4-.3-10,1.6,1.7,3.6-1,6.9-1,6.9,0-.5.1-1,.1-1.5,0-2.1-.6-4.1-2.7-6-5-4.5-9.5-6.8-9.5-6.8,0,0-1.2-.8-3.2-.7-.7,0-1.4,0-2.2.2,5.3.7,10.7,5.8,12.3,7.5,1.8,1.8-1.1,2.6-1.1,2.6,0,0-5.7,1.3-10.3,4.5,2.6,3.9.5,6.8.5,6.8-.3-3-3.4-6.8-6.9-9.9-3.5-3.1-7.4-5.5-8.9-6.4-.3-.2-.5-.3-.6-.4-.2,0-.5-.1-.8-.1-.6,0-1.4.2-2.3.5,5.8,2.5,10,6.5,12.2,9.1,1.3,1.6.8,2.9-1,3.8-2.7,1.2-6.9,3.7-11,8.4,3.3,4.2,4.2,6.7,4.2,6.7-8-8.4-15.6-14.6-18.8-17.1-.9-.7-1.5-1.1-1.6-1.2-.3-.2-.5-.2-.8-.2-.7,0-1.7.4-2.8,1.2,5.5,3.1,11.3,8.4,14.5,11.6,1.6,1.6,1.7,3.1.5,4.1-2.1,1.7-5.4,4.9-7.3,9.3,2.1,1.5,4.5,3.1,7.1,4.6,0,0-12.4-2.1-24.9-18.7,0,0,0,0,0,0-.3.2-.8.5-1.4,1.1,3.4,6.5,10.9,12.4,14.9,15.1,1.6,1.1,2,2.5,1.2,3.9-.6,1-1.3,2.4-2,4.2,1,1.4,2,2.8,2.8,4.4l6.7-8.1-4.5,13s0,0,0,0c0,0,.6.7,1.6,1.2,14.7-33.8,36-45.5,59.3-47.6Z"/>
        <path class="st2" d="M664.2,319c-23.3,2-44.6,13.7-59.3,47.6.8.4,1.8.8,3.1.8,12.8-34.3,40.4-46.6,65.1-46.5,12.6,0,25.6,4.5,33.9,12,0,0-13.4-16.4-42.8-13.8Z"/>
      </g>
      <path class="st7" d="M525.2,376.1c9.1-6.4,1.6-20.3,15.5-20.8-7.2,3-3.5,20.8-15.5,20.8Z"/>
      <path class="st0" d="M532,364.7c.5-6.2,3.8-8.2,5.5-8.9,0,0-6.4-1.2-8.3,11.3-.5,3.3-2.1,6.7-4,9.1,0,0,5.8.8,6.8-11.4Z"/>
      <g>
        <path class="st24" d="M521,348c-16.3-15-19.6-27.7-19.6-35.3,0-2.5.4-4.5.7-5.8-2,.3-5.3,1.3-8.6,2.8-3.9,1.8-7.8,4.1-10.3,6.4,0,0,0,0,0,0,1.9-1.2,3.8-2.2,5.6-3,3.9-1.8,8.7-2.8,10.1-.3-1.9,0-5.3.9-9,2.6-3.7,1.7-7.8,4.2-11.5,7.3-1.4,1.2-2.3,2.8-2.9,4.6,5.8-8,17.9-11.9,17.9-11.9,0,0,1.9-.7,1.3,1.8-.4,1.5-.4,3.1-.4,4.1,2.2-.3,4.2-.1,5.4,1-3.3,0-8.4,1.9-13,4.6-4.6,2.7-8.8,6.1-10.6,8.6-.8,1.1-1.2,2.5-1.4,4,3.5-5.9,13.1-11.6,17.2-13.4.5-.2,2.9-1.3,3.6,1.2.5,1.7.6,3.5,1.8,6.1,4-1.1,6.1,1.2,6.1,1.2-.3,0-3.6-.3-7.4,2.1-2.3,1.5-4.9,3.2-7.3,5.3-4.7,4-8.8,8.5-10.4,10.3-.3.4-.5.6-.6.7-.3.5-.5,1-.5,1.7,0,1,.3,2.2,1,3.5,3-5.9,17-17.2,19.3-18.4,2.5-1.3,3.6-1.4,4.9.4,1.2,1.8,2.5,4.4,6.1,8.8,1.8-1.3,3.5-2.4,4.8-3-8.7,7-24.5,25.7-19.4,32.3,0,0,.1.1.2.2,2.4-14.2,15.4-24.7,15.4-24.7,0,0,1.8-1.4,3.7,1.1,2.5,3.1,5.1,5.3,6.4,6.3.4-1,.8-1.9,1.2-2.8l-5-8.6,7,5c.2-.4.5-.7.8-1.1.6-.7,1.2-1.4,1.9-2.1-.9-.6-3-2.1-4.5-3.8Z"/>
        <path class="st2" d="M512.7,329.9c-4-7-5.8-13.6-5.8-18.5,0-2.2.4-4.1,1.2-5.5.1-.3.3-.5.5-.7-1.7.4-4.6,1.1-4.6,7.6,0,16.4,17.1,35.3,17.1,35.3,1.5,1.7,3.6,3.2,4.5,3.8,1.2-1,2.4-1.9,3.7-2.6-7.5-6-12.9-12.8-16.5-19.2Z"/>
      </g>
      <g>
        <path class="st24" d="M668.8,415.4s.4,1.7-.9,3.3c0,0,6.9,2.6,10.8-3.8,1.2,3.1.7,4.6.7,4.6,0,0,4.8,1.1,8.2-1s6-6.8,6-6.8c0,0,.9,1.6.9,2.7,0,0,4.6-1.5,7.1-3.4,2.6-1.9,3.4-4.7,3.4-4.7,0,0,1.6-1.9,2.6-3.5-7.2,6.4-17.7,10.6-32.2,10.6-.2,0-.5,0-.7,0-.1,0-.2,0-.3,0h0c-.4,0-.8,0-1.1,0-7.8-.2-17.7-.4-27.8-4.1,8.8,7.4,16.7,8.4,23.4,6.3Z"/>
        <path class="st2" d="M707.7,402.7c-1,1.6-2.6,3.5-2.6,3.5,0,0-.9,2.8-3.4,4.7-2.6,1.9-7.1,3.4-7.1,3.4,0-1.1-.9-2.7-.9-2.7,0,0-2.6,4.8-6,6.8s-8.2,1-8.2,1c0,0,.4-1.5-.7-4.6-3.8,6.4-10.8,3.8-10.8,3.8,1.3-1.6.9-3.3.9-3.3-6.7,2.1-14.6,1.1-23.4-6.3.7.9,1.6,1.9,2.6,2.9,9.3,9.7,19.7,4.7,19.7,4.7-.2,1-.9,1.7-1.6,2.2-.5.4-1.1.7-1.7.9,2.4.9,5.2,1.6,7.3,1.6,3.7,0,5.8-2.8,6.6-4.2,0,1.6-.5,2.9-1.1,3.8,1.4.1,2.8.2,4.1.2,2.1,0,4.1-.1,5.7-.7,5.1-1.9,6.2-6.9,6.2-6.9.1.7.2,2.8.1,3.1,2.7-1.1,5.4-2.1,7.6-3.4,2.9-1.7,4.8-3.7,5.3-6.8v-.3c0,0,.3-.3.3-.3,1.8-2.2,3.3-4.6,4.7-7-1.1,1.3-2.3,2.5-3.6,3.7Z"/>
        <path class="st2" d="M645.8,312.4c-1.7-1.7-7-6.8-12.3-7.5-2.2.3-4.6,1-6.9,1.8-1.9.7-3.6,1.4-4.9,2,3,1.9,8.9,5.7,12.4,10.4.1.1.2.3.3.4,4.6-3.2,10.3-4.5,10.3-4.5,0,0,2.9-.7,1.1-2.6Z"/>
        <path class="st2" d="M652,312.8c4.6-1.9,10-1.6,10-1.6,0,0,2.6,0,.6-1.6-1.9-1.5-6.7-5-10.9-5.8-2.8,0-6.2.6-8.7,1.1,3.1,1.9,5.4,3.8,7.3,5.6.8.8,1.3,1.6,1.7,2.3Z"/>
        <path class="st2" d="M669.1,310.3c.5.5.8,1,1,1.4,3-.4,7.1,1.4,7.1,1.4,0,0,2.6,1,.6-1-1.6-1.7-5.4-4.4-8.8-5.8-.6-.1-1.1-.3-1.6-.4-1.8-.4-3.6-.6-5.1-.7,2.3,1.3,5.1,3,7,5.1Z"/>
        <path class="st2" d="M615.5,310c-.5.2-1.1.4-1.6.7-1.6.7-3.3,1.8-4.9,2.8-2.8,1.8-5.3,3.9-6.8,5,6.7,5,10.9,9.4,13.6,12.7,4.1-4.7,8.3-7.2,11-8.4,1.9-.9,2.4-2.2,1-3.8-2.2-2.6-6.4-6.6-12.2-9.1Z"/>
        <path class="st2" d="M599.2,347.9c-4-2.8-11.5-8.6-14.9-15.1,0,0,0,0-.1.1-1.2,1.3-3,3.9-5.4,8.3,6.7,3.1,14.4,7.9,19.6,14.7.7-1.7,1.4-3.1,2-4.2.8-1.5.4-2.8-1.2-3.9Z"/>
        <path class="st2" d="M595.8,320.7s0,0,0,0c-1.1.8-2.3,2-3.3,3.3-2.1,2.4-3.8,5.1-4.6,6.3.2.3.5.7.8,1.2.9,1.2,2.2,2.9,4,4.8,2.5,2.7,6,6,10.7,9.3,1.9-4.4,5.2-7.5,7.3-9.3,1.3-1,1.1-2.6-.5-4.1-3.2-3.2-9-8.4-14.5-11.6Z"/>
        <path class="st2" d="M508.6,349.1c-3.6-4.4-4.9-7.1-6.1-8.8-1.3-1.8-2.5-1.7-4.9-.4-2.3,1.2-16.3,12.5-19.3,18.4.2.4.5.9.7,1.3,1.1,1.8,2.6,3.8,4.3,5.6,2.7,3,5.6,5.7,7.4,7.2,1.4-5.7,5.2-11.2,9.5-15.7,2.8-3,5.8-5.7,8.5-7.6Z"/>
        <path class="st2" d="M493.7,335.2c1.4-.9,2.6-1.5,3.7-1.8-1.2-2.6-1.3-4.4-1.8-6.1-.7-2.4-3.1-1.4-3.6-1.2-4.1,1.8-13.7,7.5-17.2,13.4,0,.3,0,.6,0,.9,0,3.5,1.4,7.3,2.3,9.4,2.8-3.1,9.9-10.3,16.7-14.8Z"/>
        <path class="st2" d="M485.5,324.8c2.7-1.6,6-3,8.8-3.4,0-1,0-2.6.4-4.1.6-2.6-1.3-1.8-1.3-1.8,0,0-12.1,3.9-17.9,11.9-.5,1.4-.7,2.9-.7,4.4,0,.4,0,.9,0,1.3,2.4-2.8,6.3-5.8,10.6-8.3Z"/>
        <path class="st2" d="M513.3,355c-1.9-2.4-3.7-1.1-3.7-1.1,0,0-13,10.5-15.4,24.7,1,1.2,2.4,2.8,4.7,4.6-.6-2.1-2.1-6.2.3-10.1,1.1-1.7,6.2-6.1,13.4,3.9,2.8-2.7,4.7-9.6,7.1-15.7-1.3-1-3.9-3.3-6.4-6.3Z"/>
      </g>
      <g>
        <path class="st20" d="M604.1,509.9c4.8-4.6,5.6-11.3,5.6-11.3-1.3,2.4-4.8,4.3-4.8,4.3,1.9-4.3,2.7-11.7,2.7-11.7-1.6,5.1-9.4,11.8-9.4,11.8.8-2.2.3-5.8.3-5.8-4,9-13.3,15.7-13.3,15.7,1-2.4.6-6.2.6-6.2,0,0-1.5,4.3-9.2,7.5,5.1,7.6,8.3,15.6,8.5,22.5,4.6-2.5,11.6-6.5,18.5-12,6.1-6.2,11-14.1,13.7-23.4-3.7,4.5-13.3,8.6-13.3,8.6Z"/>
        <path class="st7" d="M625.5,493.8c-.8.6-1.7,1.2-2.5,1.7-1.8,1-3.2,1.6-3.2,1.6l-4.1,1.6,2.7-3.5c2.7-3.5,3.4-7.8,3.4-11.3,0-.6,0-1.2,0-1.7-2.8,5.2-7.1,7.6-7.2,7.7l-2.7,1.5c1.9-4.2,4.9-21.5,1.4-31.2-1,21.2-11.6,30.2-11.6,30.2,0,0,1.2-5.4,0-10.2-3.8,16.3-13.4,23.6-13.4,23.6,0,0,1.4-4.2,1.1-8.1,0-.2-4.7,10-15.2,14.7.5.6.9,1.2,1.4,1.8.5.7.9,1.3,1.4,2,7.7-3.2,9.2-7.5,9.2-7.5,0,0,.3,3.8-.6,6.2,0,0,9.3-6.7,13.3-15.7,0,0,.5,3.5-.3,5.8,0,0,7.8-6.7,9.4-11.8,0,0-.8,7.4-2.7,11.7,0,0,3.5-1.9,4.8-4.3,0,0-.8,6.7-5.6,11.3,0,0,9.6-4.2,13.3-8.6-2.6,9.3-7.6,17.2-13.7,23.4,9.6-7.6,19-17.9,21.8-30.9Z"/>
      </g>
      <g>
        <path class="st2" d="M490,415.6s1-1.4.3-3.4c-4.9,2.7-16.2-2-27.6-8.8,9.2,7.5,18.4,9.5,19.8,9.8,5.4,1.3,7.2.1,7.2,0,0,0,1,2.1-2.1,3.1.8.3,1.7.5,2.7.8.4-.5.8-.9,1.2-1.4-1.1,0-1.5-.2-1.5-.2Z"/>
        <path class="st24" d="M496.8,411.1c-1.3,0-2.6.1-3.8.1h0c-13.4,0-23.4-3.9-30.2-7.8,11.4,6.8,22.6,11.5,27.6,8.8.7,2.1-.3,3.4-.3,3.4,0,0,.4.2,1.5.2,2-2.2,3.9-3.8,5.3-4.7Z"/>
      </g>
      <path class="st7" d="M473.9,446.4c2.4-4,6.2-4.3,6.2-4.3,0,0-2.6,3.5-2.2,6.1-2.9-.5-4-1.8-4-1.8Z"/>
      <path class="st7" d="M483.9,446.9s.3-3.7,3.2-6.7c0,0,4.3-2.9,12.8-2.1-10.1,2.4-16,8.8-16,8.8Z"/>
      <path class="st7" d="M488.3,429.3c3.8-6.7,10.7-9.6,17.6-10.5-7.8,3-10.1,7.5-10.1,7.5,0,0-4.3,1.1-7.5,3Z"/>
      <path class="st7" d="M501.7,413.2c2.1-2.7,6.9-4.3,11-4.5-4.5,1.3-6.2,3.4-6.2,3.4,0,0-2.2.2-4.8,1.1Z"/>
    </g>
  </g>
  <g id="Text">
    <text class="st1" transform="translate(23.9 171.4) scale(1.1 1)"><tspan x="0" y="0">AMBERSTONE</tspan></text>
    <g>
      <text class="st6" transform="translate(164.6 270.1) scale(1.2 1)"><tspan class="st26" x="0" y="0">W</tspan><tspan x="141.8" y="0">restling</tspan></text>
      <text class="st3" transform="translate(164.6 270.1) scale(1.2 1)"><tspan class="st26" x="0" y="0">W</tspan><tspan x="141.8" y="0">restling</tspan></text>
    </g>
    <text class="st5" transform="translate(8.8 240.1)"><tspan x="0" y="0">2024</tspan></text>
  </g>
</svg>