<?xml version="1.0" encoding="UTF-8"?>
<svg xmlns="http://www.w3.org/2000/svg" version="1.1" viewBox="0 0 864 864">
  <!-- Generator: Adobe Illustrator 30.1.0, SVG Export Plug-In . SVG Version: 2.1.1 Build 136)  -->
  <defs>
    <style>
      .st0 {
        fill: #adaa94;
      }

      .st1 {
        fill: #000104;
      }

      .st2 {
        fill: #c7c7c6;
      }

      .st3 {
        fill: #ffc809;
      }

      .st4 {
        fill: #909090;
      }

      .st5 {
        fill: #d4a72a;
      }

      .st6 {
        fill: #b48e2f;
      }

      .st7 {
        fill: #ecdfd0;
      }

      .st8 {
        stroke-width: 9px;
      }

      .st8, .st9 {
        font-family: RedDelicious, 'Red Delicious';
        font-size: 98.4px;
        letter-spacing: .2em;
      }

      .st8, .st10 {
        fill: none;
        stroke: #000104;
      }

      .st11 {
        fill: #7e6f96;
      }

      .st11, .st12 {
        display: none;
      }

      .st13 {
        fill: #f0efee;
      }

      .st14 {
        fill: #6cbe45;
      }

      .st15 {
        fill: #797979;
      }

      .st16 {
        fill: #e4ddbe;
      }

      .st17 {
        fill: #d6c8bf;
      }

      .st18 {
        fill: #fff;
      }

      .st19 {
        fill: #f1f1f2;
      }

      .st20 {
        fill: #c7c8ca;
      }

      .st21 {
        fill: #808285;
      }

      .st22 {
        fill: #3b3b3c;
      }

      .st9, .st23 {
        fill: #ffc629;
      }

      .st24 {
        fill: #d6006d;
      }

      .st25 {
        fill: #4d5a31;
      }

      .st26 {
        fill: #eb80a8;
      }

      .st27 {
        fill: #c2bea6;
      }

      .st10 {
        stroke-width: 11px;
      }

      .st28 {
        fill: #fede00;
      }
    </style>
  </defs>
  <g id="Background_Colors">
    <g id="Military_Green" class="st12">
      <rect id="Team_Color__x28_change_as_needed_x29_" class="st25" x="1" width="863" height="864"/>
    </g>
    <g id="Bright_Pink" class="st12">
      <rect id="Team_Color__x28_change_as_needed_x29_1" data-name="Team_Color__x28_change_as_needed_x29_" class="st24" x="1" width="863" height="864"/>
    </g>
    <g id="Pink" class="st12">
      <rect id="Team_Color__x28_change_as_needed_x29_2" data-name="Team_Color__x28_change_as_needed_x29_" class="st26" x="1" width="863" height="864"/>
    </g>
    <g id="Natural" class="st12">
      <rect id="Team_Color__x28_change_as_needed_x29_3" data-name="Team_Color__x28_change_as_needed_x29_" class="st7" x="1" width="863" height="864"/>
    </g>
    <g id="Heather_Dust" class="st12">
      <rect id="Team_Color__x28_change_as_needed_x29_4" data-name="Team_Color__x28_change_as_needed_x29_" class="st17" x="1" width="863" height="864"/>
    </g>
    <g id="Grey__x28_Dark_x29__copy" class="st12">
      <rect id="Team_Color__x28_change_as_needed_x29_5" data-name="Team_Color__x28_change_as_needed_x29_" class="st22" x="1" width="863" height="864"/>
    </g>
    <g id="Grey__x28_Mid_x29_">
      <rect id="Team_Color__x28_change_as_needed_x29_6" data-name="Team_Color__x28_change_as_needed_x29_" class="st21" x="1" width="863" height="864"/>
    </g>
    <g id="Grey__x28_Light_x29_" class="st12">
      <rect id="Team_Color__x28_change_as_needed_x29_7" data-name="Team_Color__x28_change_as_needed_x29_" class="st20" x="1" width="863" height="864"/>
    </g>
    <g id="White" class="st12">
      <rect id="Team_Color__x28_change_as_needed_x29_8" data-name="Team_Color__x28_change_as_needed_x29_" class="st19" x="1" width="863" height="864"/>
    </g>
    <g id="Black" class="st12">
      <rect id="Team_Color__x28_change_as_needed_x29_9" data-name="Team_Color__x28_change_as_needed_x29_" class="st1" x="1" width="863" height="864"/>
      <rect id="Team_Color__x28_change_as_needed_x29_10" data-name="Team_Color__x28_change_as_needed_x29_" class="st1" x="1" width="863" height="864"/>
      <text/>
    </g>
    <rect id="Team_Color__x28_change_as_needed_x29_11" data-name="Team_Color__x28_change_as_needed_x29_" class="st11" x="1" width="863" height="864"/>
  </g>
  <g id="Logo">
    <g>
      <path class="st3" d="M431.6,714.6c-17.9,0-33.5-5.9-45.1-17-8.4-8-14.4-18.6-16.8-29.4-3.4-2.9-9.6-9-13.8-18.7-3.2,1.3-7.5,2.9-12.4,4.6l-2.7.9-2.6-1.2c-11.8-5.6-21.3-12.6-28.3-20.9-9.4-11.1-7.2-21-6.2-25.8.4-2,1-4,1.5-5.6-1.4-.8-3-1.9-4.6-3.5-4.7-4.7-9.1-13.4-9.1-23-9.1-14.1-9.3-23.7-7.7-29.4-1.5-3.7-4-10.5-4.5-18.2l-.3-4.3,3.8-2.1c2.9-1.7,3.5-2.4,3.6-2.6,0,0,.3-.6,0-3.5-.5-3.3-.8-6.6-.7-9.9l-1.4-.2-11-9.5-4.7-67.4,3-2.2c.2-.2,4.6-3.4,9.7-6,8.8-29.1,22.7-44.4,33-55.6,2.6-2.9,5.1-5.6,7.1-8.1,4.2-5.3,4.2-10.2,3.5-13.5-.8-3.9-2.9-6.1-3.5-6.5l-13.5-5.8,13.2-6.6c13.7-6.8,27.7-12.4,41.7-16.4,17.5-5.1,34.4-7.7,50.2-7.7s17.6.8,25.8,2.5c3.6-3.2,10.5-10.7,10.5-22.3s-5.3-15.6-14.7-21.9c-10.7-7.2-24.9-11.1-40.1-11.1s-21.2,1.9-31.6,5.6l-19.7,7.1,11.8-17.3c6.6-9.7,16.3-18,28.1-23.8,12.6-6.2,27.4-9.5,42.7-9.5,16.1,0,31.7,3.4,46.3,10.2,14.1,6.5,26.5,15.8,37,27.5,15.9,17.8,25.4,42.9,25.4,67.1s-5.2,40.4-7.7,47.6c14.8,23.9,21.8,49.5,22.2,81.9,1.3,1.1,2.4,2,2.6,2.2l2.3,2v23.7c0,3.8-.4,6.9-1.1,9.6,1.5,1.3,4.6,3,10.4,3,14.2,0,22.7-13.7,24.1-18.7l5.7-19.1,7.2,18.6c.2.6,3.8,9.8,4.4,20.6,3.2-3.3,5.5-7.1,6.6-11l3.8-13.8,8.4,11.6c4.1,5.7,6.9,12,8.2,18.5l2.3-5.4,4.2,21.9c2.3,11.8,1.8,23.4-1.4,34.4-2.8,9.8-7.8,18.8-14.5,26.1-2.2,7.9-5.4,14.2-10,19.7-5.3,6.3-12.6,11.5-22.4,16-16.8,7.7-35.8,10.3-55.9,12.9-16.2,2.1-33,4.4-48.7,9.6-17.2,5.7-28,15.1-34,22.1-8.2,9.4-11.1,18-11.1,23s0,9.1,9.9,14.6c6.3,3.5,13.7,4.8,17.1,4.8s.4,0,.6,0l26.2-1.4-22.2,14c-.8.5-19.5,12.1-40.1,12.1Z"/>
      <path class="st18" d="M440.3,309.3c-41.6-9.7-87.1,5.8-116.2,20.4,6,2.6,13,17.3,2.6,30.5-10.4,13.2-29.3,27.1-39.7,64.4-5.6,2.2-11.3,6.5-11.3,6.5l4.2,60.8,7.4,6.4,6.5,1c-1.9,4.4-1.3,10.1-.7,14.6,1,6.9-.4,9.4-6.9,13,.7,10,5.1,18.5,5.1,18.5-2.5,4.7-2.2,14,7.2,27.7-.7,8,3,16.1,7,20,3.7,3.7,7.3,3.7,7.7,5,.3,1.1-1.6,5.6-2.6,10.4-1,4.8-2.2,11.7,4.7,19.9,6.9,8.2,16,14.4,26,19.2,11.1-3.9,18.8-7.2,18.8-7.2,4.3,16.3,15.9,23.9,15.9,23.9,2.8,17.6,19.3,43.3,55.6,43.3s36.5-11.1,36.5-11.1c-8.5.4-34.8-5.6-34.8-26.2s17.5-40.9,49.8-51.6c35.4-11.7,74.5-8.7,103.9-22.2,18.3-8.4,25.5-18.5,29.2-32.9,12.8-13.4,19.6-33.7,15.3-55.8-6.2,14.5-18.2,22.4-18.2,22.4,11.8-13.6,18.8-35.1,4.7-54.7-2.4,8.8-10.2,18.2-21.4,23.1,4.7-13.7-2.5-32.1-2.5-32.1-2.5,8.3-13.5,23.6-30.7,23.6s-18.1-8.9-18.1-8.9c1.3-2.3,1.9-6,1.9-10.6v-20.6s-2.9-2.6-4.8-4c0-36.3-8.2-61.7-23-84.4,0,0,8.4-20.5,8.4-48.4s-8.6-45.6-23.6-62.5c-19.4-21.7-47.3-35.5-78.2-35.5-30.4,0-53.7,13.3-65.2,30.2,50-17.9,95.4,7.3,95.4,33.8s-15.7,29.7-15.7,29.7Z"/>
      <path d="M623.1,532.9s-12,15.7-42.8,16.6c24.2-11,40.4-43.5,36.2-56-9.7,10.4-24.4,18.2-40.8,19.4,6.7-3.1,15.8-16,13.9-26,0,0-10,11.5-27.2,11.5s-25.2-11.5-26.2-18.1c0,0,2.8-1.7,2.8-8.4v-17.9s-1.7-1.4-4.9-3.7c1.3-24.6-3.8-60.6-23.8-87.1,6-15.5,9.4-31.9,9.4-47.9,0-73.6-79.8-108-127.2-84.3,47.5-2.7,74.4,29.3,71.3,52.3-2,14.8-7.5,24.2-21.6,34.6-32.5-8-68.5-2-105.1,14.6,3.8,4.4,5.5,22.2-3.9,32.4-8.9,9.7-32.5,32.2-39.3,65.2-6.5,3-10,5.2-10,5.2l3.7,52.8,3.1,2.7,8.7,1.4s2,3.8,4.3,6c-9.5,10.6,5.7,21.4-8.9,32.2,1.3,7.8,3.9,12.5,5.8,15.1-4,4-4.5,10.6,6.2,25.8-1.7,5.3,1.4,14.1,4.4,16.5,3.3,2.6,7.8,3.1,8.8,5.1,1,2,1.6,5.9,0,11-1.5,5.2-4.6,12,0,18.1,7.9,10.7,21.5,17.2,21.5,17.2,0,0,10.3-3.8,23.6-9.3,3.3,14.6,9.5,25,18.1,30.1,3.3,34.6,42,44.4,59.9,38.2,0,0-18.1-6.2-18.1-27.5s13.5-43,51.9-57.9c24.9-9.7,55.2-10.4,83.3-15.8,23.1-4.4,35.2-13.5,39.4-20.9,0,0-9.3,2.3-23.8,2.5,36.3-11.5,47.1-38.6,47.1-45.6ZM392.2,626.7c0-3,.3-6,.5-9.2,3.1-1.5,6.1-3.1,8.9-4.6-3.5,4.5-6.7,9.1-9.4,13.8Z"/>
      <path class="st3" d="M573.2,503.8c-5.4,7.5-18.8,7-18.8,7,0,0-13.7-.8-20.4-18.7,3.9,5.2,16.6,17.3,39.2,11.8ZM370.2,616.8c-1.3-13.4-.7-23-3.2-33.8,6.8,6.2,9.4,20.4,9.4,20.4-.3-25.8-14.4-41.2-38-41.2s-19.3,2.1-26.1,5.1c-6.7-10.7-8.2-15.1-3.6-18.6,5-3.7,20.5-9,34.8-9,24.1,0,43.3,16.4,43.3,59.4s-6.1,42.7,5.2,56.4c-13.1-3.8-19.9-20.2-21.7-38.7ZM492.1,542.9c15.3,40,44.3,43.9,44.3,43.9,0,0-27.8,8.5-53.8-3.7,0,0,6.5-26-8.5-43.4,8.1,48.2-16.2,56.8-43.3,91.1-19.2,24.4-21.4,39.2-15.7,52.4-8.3-1.2-17.5-8.9-20.5-19.7,4.4.4,9.2-.2,14.4-1.8-7-2-11.5-7.6-14.1-14.6,3.8-14.8,15.7-30.7,25-41.6,11.4-13.2,17.6-24.9,14.1-32.5,6.7,4.9,7.6,13.5,3.2,23.9,12.3-10.5,10-30.7-5.6-42.5-13.1-9.9-21.6-17.2-24.4-34.2-1.8-11.2.1-30.3-6.9-45.9,5.6,4.1,14.4,12.3,18.1,25.2-2.2-20.7-16.7-34.8-22.7-39.8,4.5-.6,9.2-1,13.9-1.3,41.7,15.8,58.2,61.3,58.2,61.3-12.1-38.3-27.1-55.2-33.7-61.2,9.7.5,19.1,1.5,27.9,2.8,1.4,26,17,62.4,44.5,74.6-21.3-17.1-32.2-47.1-31.4-72.5,3.7.7,7.2,1.4,10.6,2.1-1.3,15.3,4.1,38.9,18.3,51.3-8.6-13-12.3-34.7-9.8-49.3,13.4,3.2,22.9,6.4,26.4,7.8-.3,48.5,45.4,58.3,78.5,41.6-13.9,24.8-40.2,29.2-40.2,29.2,0,0-33.8-6.3-51.4-40,13.6,40.2,55.8,56.8,79.6,53.6-35,21.4-77.2,12.1-95-16.6ZM307.8,488.8c12.2-1,18.3-9.8,18.3-9.8,0,0,9.9-4.6,25.3-9.4-7.7,11.6-16,21.3-38.1,27.2,0,0-3.6-3.1-5.6-8Z"/>
      <g>
        <path class="st16" d="M417.2,593.8c-6.9,4.1-15.2,8.4-23.7,12.4.1-2.4.2-5,.2-7.6,0-30.9-9.5-63.8-45.6-65.6-.3-1.9-.9-4.2-1.7-5.9,8.2.9,11.8-1.7,11.8-1.7-10.8,1.2-13.4-7.8-20.5-10-10,.5-15.5,6.3-17.1,10.4,8.7-5,14.6-4.8,16.4-4.2,2.2.9,3.9,5.6,4.5,11.4-13.9.6-25.7,4.2-33.3,7.8-1.2-1.6-2.9-4.5-3.1-8.6,11.9-9.4-1.3-23,8.3-30.8,7.6-2,14.9-1.4,19.7,1,10.5,5.3,19.4,8.6,30.5,3.6-11.5,2-16.5-5.5-16.5-5.5,0,0,9-7,20.1-6.9,0,0,3.9-12.1-1.4-23.9,1.3-1.9,4.3-4.1,7.2-5.9,2.5-.6,5.1-1.1,7.7-1.6,14.7,10.8,15.3,28.2,16.1,44.8-9.8,9.2-5.5,21.8-17.4,28.4,8.7,18.9,10.3,22.5,15.9,22.7-2.4-2.4-4.6-9.4-6.1-15.7,5.6-3.1,7.7-7.9,10.8-11.3,4.9,15,15.5,21.4,21.7,29.8,6.3,8.7,5.1,19.9-4.1,32.9Z"/>
        <path class="st16" d="M327.9,608.4c1.6-5.8,5.2-14.2.7-18.2,4.8-2,10.3.7,12.4,3.8-2.1-13.9-20.2-10.7-22.7-12.1-3.4-2-3.6-8.1-3.6-8.1,0,0,8-4.8,21.9-4.8s21.5,3.7,23.6,13.7c1.7,8.2,1.8,23.6,3.3,36.6-12,4.9-20.6,8.2-20.6,8.2-13.7-8.5-16.5-13.3-14.9-19.1Z"/>
      </g>
      <path class="st2" d="M296.5,481l-1.4-.6-3.3-40s20.9-11.3,55.4-18.5l11.8,10.6s7.4-1.7,15.4-3.1c3.3,1.9,9.8,5.3,16,5.8-19.9-10.1-24.8-29-24.8-41.7s4.1-15.1,6.2-17.5c-1,3.7-1.6,7.7-1.6,12,0,31,25.5,49.7,52.6,49.7s42.7-11.5,59.3-29.2c-2.1,12.5-9.9,23.9-25.5,30.9,0,0,10.1.6,21.9-6.6,32.8,6.3,54.9,24.5,54.9,24.5v12.6c0,4-5.1,5.4-5.1,5.4v-4.6s-37.3-19.8-108.8-19.8-123.1,30.2-123.1,30.2Z"/>
      <path class="st4" d="M374.7,344.6c-14,2.3-24.4,7.3-24.4,7.3,0,0,1.9-8-.5-15.1,25.3-11.3,54.4-16.4,82.2-11.9-5.9,3.6-12.8,7.5-20.9,11.8-14.1,7.5-25.6,15.7-32.7,25.9-7.8,3.6-18.9,14-18.9,30.8s6.9,27.1,9.7,30.6l-7.4,1.4-11.9-11.2c-18.1,2.6-32.9,6.9-43.9,11,6.1-26.6,28-59.5,68.8-80.6ZM525.7,444.8c-9.3-5.7-23.4-13-41.9-18.9,0,0,8.2-11.3,7.9-29,5.8-7.9,10.9-16.5,15.1-25.6,16,23.4,20,52.5,18.9,73.6Z"/>
      <path class="st18" d="M470.5,284.2c1.6-11.6-3-24.5-12.5-35.4-6.8-7.8-15.6-13.9-25.8-18.2,39.9,3.1,80.6,34.9,80.6,84.6s-11,54.7-28.3,77.5c-13.1,17.2-28.5,28.2-44.5,32.8,21.7-14.2,56.9-51.4,61.9-99.9-8.2,34.8-33.9,71.9-61.3,87-26.6,14.7-61,6.3-61-24.8s8.4-30.8,34.4-44.6c38.5-20.4,52.8-33,56.3-59Z"/>
      <path class="st5" d="M405,469c-3.6-4.3-7-7.5-9.3-9.4,4.5-.6,9.2-1,13.9-1.3,7.4,2.8,14,6.6,19.9,10.8-3.6-.2-7.4-.3-11.2-.4-4.5,0-8.9,0-13.2.2ZM326.1,479s-6.1,8.8-18.3,9.8c.5,1.3,1.2,2.5,1.8,3.5,7.6-3.6,19.4-8.6,34.5-13.1,2.7-3,5.1-6.3,7.3-9.7-15.5,4.9-25.3,9.4-25.3,9.4ZM462,461.3c-8.8-1.3-18.2-2.3-27.9-2.8,2.5,2.2,6.1,6,10.3,11.8,6.7.6,13.1,1.4,19,2.4-.7-3.9-1.2-7.7-1.4-11.4ZM494.2,467.4c-.6,3.6-.8,7.5-.7,11.7,16.8,4.8,26.5,9.7,28.6,10.8-1-4.5-1.6-9.3-1.5-14.7-3.5-1.4-13-4.5-26.4-7.8ZM485.7,465.5c-3.3-.7-6.9-1.4-10.6-2.1-.1,3.7,0,7.5.4,11.4,3.7.7,7.1,1.5,10.4,2.3-.4-4.2-.5-8.1-.2-11.6Z"/>
      <path class="st13" d="M294.6,456.6l-1.2-14.5s16.5-9.8,47.2-16.7c-29.1,8.4-44.9,17.7-44.9,17.7l-1,13.5Z"/>
      <path class="st4" d="M419.5,450.8c-57.6,0-102.3,19.6-117.5,27.2l-3-3.1s47.9-28.3,120.5-28.3,110.1,20.7,110.1,20.7v-6.3s-8.7-9.9-26.6-17.8c15.7,5.4,29.4,16.4,29.4,16.4v8.8c0,3-2.6,4.6-4.1,5.3v-3.1s-37.3-19.8-108.8-19.8Z"/>
      <path class="st2" d="M489.6,380c-11.4,19.7-24.7,32-34.3,39.2-4.9,2.8-10,4.9-15.1,6.4,21.7-14.2,56.9-51.4,61.9-99.9-8.2,34.8-33.9,71.9-61.3,87-16.2,9-35.3,9.3-47.8,1.2-10.6-10-13.7-27.4-5.8-43.8-5.4,24.3,5.4,39.1,28,39.1s82.2-47.8,82.2-101.3-8.7-42.9-8.7-42.9c7.8,9.4,13.8,25.5,13.7,52.5,2.9-14.5,1.5-25.8,1.5-25.8,5,13.6,6.7,52.1-14.4,88.3Z"/>
      <g>
        <path class="st15" d="M361.7,425.3l7.4-1.4c-2.8-3.5-9.7-13.9-9.7-30.6s11.1-27.3,18.9-30.8c2.5-3.5,5.4-6.8,8.9-9.9-30.5,11.8-47,35.4-50.7,46.8,0,0,.9-11,7.3-23.5-11.2,13.9-15.7,31.9-16.6,42.7,6.9-1.7,14.4-3.3,22.7-4.5l11.9,11.2Z"/>
        <path class="st15" d="M374.7,344.6c15.2-5.9,29-7.2,35.5-7.6.3-.2.6-.3.8-.5,5.4-2.8,10.2-5.5,14.5-8-18.7-2.4-48.1.3-69.2,10.3,1.2,3.8.3,8.1-.5,10.7,4.4-1.6,11.1-3.7,18.8-5Z"/>
        <path class="st15" d="M495.5,400.3s9.3-10.9,13.4-25.6c-.7-1.1-1.4-2.2-2.2-3.3-4.2,9.1-9.3,17.7-15.1,25.6.2,17.7-7.9,29-7.9,29,2.8.9,5.5,1.8,8.1,2.8,7.2-13.3,3.6-28.5,3.6-28.5Z"/>
        <path class="st15" d="M519.1,408.7c1.7,16.9-2,25.3-7.8,28.3,4.5,2.2,8.4,4.3,11.8,6.3.7-19.4-4-34.6-4-34.6Z"/>
      </g>
      <path class="st4" d="M481.8,433.4c-1.1-.2-2.1-.5-3.2-.7-11.9,7.1-21.9,6.6-21.9,6.6,15.6-7,23.5-18.5,25.5-30.9-9.2,9.8-19.7,17.8-31,22.9-2.3,4.9-10.9,9.7-20.5,10.8,9.8,3.6,37.7,4.5,51.1-8.6Z"/>
      <path class="st14" d="M341,594.1c-.2-.3-.4-.5-.6-.8.2.3.4.5.6.8Z"/>
      <g>
        <path class="st27" d="M341,594.1c.5,2.2.5,3.8.5,3.8,0,0,4.4-3.4,2.9-9.4-1.5-6-9-8.8-17.9-8.3-5.1.3-8.4.5-10.3-.4.5.9,1.2,1.7,2,2.2,2.4,1.4,20.5-1.8,22.7,12.1Z"/>
        <g>
          <path class="st27" d="M340.5,528.3c-1.6-2.2-4.7-4.2-10.6-2.5-8.7,2.4-14.1,9.2-16.4,12.7,7.3-2.8,16.9-5.1,27.8-5.5-.2-1.7-.4-3.2-.8-4.7Z"/>
          <path class="st27" d="M417.2,593.8c9.2-13,10.4-24.2,4.1-32.9-6.2-8.5-16.7-14.9-21.7-29.8-2.1,2.3-3.8,5.2-6.4,7.8,2.7,6.3,8.5,13.8,15.6,19.4,9.3,7.3,12.2,12.4,14,23.5-9,7.5-23.4,13.4-29.2,15.5,0,.4,0,.8,0,1.3,0,2.6,0,5.1-.2,7.6,8.5-4,16.8-8.3,23.7-12.4Z"/>
          <path class="st27" d="M407.9,568.1c-2.5-4.8-10.3-7.6-12.9-10-5.5-.2-7.2-3.7-15.9-22.7,11.9-6.6,7.6-19.2,17.4-28.4-.7-16.6-1.3-34-16.1-44.8-1.3.3-2.7.5-4,.8,12.3,7.4,15.4,25.8,14.8,34.2-3.8,9.6-3.4,21.7-10.4,28.1-6.9,6.3-15.7,2.4-15.7,2.4,0,0,5.7-2.4,9.5-8.4-8.5,5-23.5,4-33.1-4.6-3.2-2.9-6.1-6.6-18.2-5.7-2.7,3.5-1.6,10.9-1.4,14.3,2.5-3.6,7.7-7.5,15.7-7.9,7.1,2.2,9.8,11.2,20.5,10,0,0-3.6,2.5-11.8,1.7.9,1.7,1.4,4.1,1.7,5.9,30,1.5,41.6,24.4,44.7,49.8,1-11.9,9.4-17.4,15.1-14.7Z"/>
          <path class="st27" d="M380.4,462.1c-2.6.5-5.2,1.1-7.7,1.6-2.9,1.8-5.9,4-7.2,5.9.6,1.3,1,2.6,1.4,3.9,6.7-1.3,13.9-2.5,21.3-3.3-2-3-4.6-5.7-7.9-8.2Z"/>
          <path class="st0" d="M384.4,470.8c1.3-.2,2.6-.3,3.9-.5-1.8-2.6-3.9-5-6.6-7.2,0,0-.2-.1-.2-.2-.1,0-.2-.2-.3-.3-.2-.2-.4-.3-.6-.5-1.3.3-2.7.5-4,.8,3.3,2,5.9,4.7,8,7.8Z"/>
          <path class="st27" d="M336.6,569c-7.1,0-12.7,1.3-16.4,2.5,14.2-2.1,27.9-.6,32.9,5.8,5.5,7.2,3.2,22,4.6,33.7-5.2,1.7-12,3.9-16.7,4.7-8.6,1.6-13.4-.9-13.4-4.4,0,4.6,3.9,9.2,15.3,16.2,0,0,8.6-3.2,20.6-8.2-1.5-13-1.6-28.4-3.3-36.6-2.1-10-9.7-13.7-23.6-13.7Z"/>
        </g>
      </g>
      <g>
        <path class="st5" d="M351.5,469.5c-3.5,1.1-6.8,2.2-9.7,3.2-4.6,11.1-21.7,19.4-30.2,22.1,1,1.2,1.8,1.9,1.8,1.9,22-6,30.4-15.7,38.1-27.2Z"/>
        <path class="st5" d="M418.4,499.2s0,0,0-.2c-3.7-12.6-12.4-20.7-17.9-24.8,2.5,5.6,3.8,11.6,4.6,17.5,7.7,4.1,11,19.8,11.8,27.5,0,0,3.1-13,1.5-20.1Z"/>
        <path class="st5" d="M573.2,503.8c-4.4,1.1-8.4,1.5-12,1.4-5,3.1-10,3.7-13.3,3.6,3.7,1.8,6.5,2,6.5,2,0,0,13.4.5,18.8-7Z"/>
        <path class="st5" d="M487.7,574.8s9.5-.7,16.1-1.4c-9.2-1.4-15.9-3.9-19.9-5.8.3,8.9-1.3,15.5-1.3,15.5,26,12.2,53.8,3.7,53.8,3.7,0,0-5.4-.7-12.8-4.8-19.3.7-35.8-7.3-35.8-7.3Z"/>
        <path class="st5" d="M458.5,521.3c15.6,20.5,13.1,51.8,0,67.5,0,0,1.2-16.4-5.9-23.9,10.7,35.1-20.7,37-41.1,81.2-2.4,5.1-3.7,10.1-4.3,14.8.6.2,1.2.5,1.9.7-.7.2-1.4.4-2,.6,0,1-.2,2-.2,3-2.1-.5-3.7-1.2-5-1.9-2.5.3-4.9.4-7.2.2.4,1.6,1,3.1,1.7,4.5,2.8.1,7.1-.1,10.5-1.9,0,6.6,1.5,12.1,3.9,15.9,1.5.6,3,1,4.4,1.2-5.7-13.2-3.5-28,15.7-52.4,27.1-34.3,51.4-42.9,43.3-91.1,0,0-3.9-8-15.6-18.3Z"/>
        <path class="st5" d="M517.5,525.5c4.4,8.3,16.2,26.7,37.8,35.7-27.6,5.4-40-5.7-40-5.7,0,0,6.8,1.6,15.1,0-28-2.3-42.1-20.4-42.1-20.4,0,0,1.9,5,3.8,8.3.2.4.4.8.7,1.2-.2-.6-.4-1.1-.7-1.7,17.8,28.7,60,38,95,16.6-19.4,2.6-51.3-8-69.6-34Z"/>
        <path class="st5" d="M584.7,522.2c-10.7,15.5-29.7,17.4-29.7,17.4,0,0,4-3.3,8.8-8.5-8.8,5.9-17.2,7.7-22.6,8.3,10,5.2,17.8,6.6,17.8,6.6,0,0,26.3-4.4,40.2-29.2-4.6,2.3-9.5,4.1-14.4,5.4Z"/>
        <path class="st5" d="M485.7,465.5c-1.4-.3-2.9-.6-4.3-.9-.4,8.2-.1,35.2,17.1,56.3-4.9-9.3-6.6-17.4-7.2-22.8-4.6-11-6.3-23.4-5.5-32.6Z"/>
        <path class="st5" d="M509,471.4c-2.6-.8-5.6-1.6-8.9-2.5.2,5.6,1.4,21.5,7.5,37,4.9,9.4,11,16.6,17.3,22.2-10.7-12.7-19-36.5-15.9-56.7Z"/>
        <path class="st5" d="M455.1,460.3c1.9,18.3,12.4,46,29.3,58.2-13.7-16.5-21.4-39.3-22.4-57.3-2.3-.3-4.6-.6-6.9-.9Z"/>
        <path class="st5" d="M386.7,599.1c0-7.9-.6-14.9-1.9-21.1,1.7,9.9.6,26.4-3.3,38,2.9-25.7-4.4-43.2-4.4-43.2,0,0,1.1,10.3,0,16.7-2.9-24.5-15.4-32.5-31.2-33.8-14.4-1.2-27.5,2.6-36.6,6.8.8,1.4,1.8,3,2.9,4.8,6.8-3.1,15.3-5.1,26.1-5.1,23.6,0,37.7,15.4,38,41.2,0,0-2.6-14.3-9.4-20.4,2.5,10.9,1.9,20.5,3.2,33.8,1.8,18.5,8.6,34.9,21.7,38.7-11.3-13.7-5.2-36.7-5.2-56.4Z"/>
        <path class="st5" d="M434.1,573c1.5,3.2,1.2,7.2-.5,11.7,1.6,6.6-.6,14.4-6.5,19.1,0,0,5.8-3.1,10.1-6.9,4.4-10.4,3.5-19-3.2-23.9Z"/>
        <path class="st5" d="M400.9,459.1c26.1,9.4,40.6,28.5,49.4,45.5-4.4-13.6-10.6-24.2-16.5-32-6.9-5.6-14.9-10.6-24.2-14.1-2.9.2-5.8.4-8.7.7Z"/>
      </g>
      <path class="st6" d="M509,471.4c-2.6-.8-5.6-1.6-8.9-2.5.1,2.5.4,7,1.2,12.6,2.6.9,5,1.7,7.1,2.5-.2-4.3,0-8.5.6-12.6ZM462.2,463.8c0-.4,0-.8,0-1.1,0-.5,0-1,0-1.4-1-.1-2-.3-2.9-.4-.2,0-.4,0-.7,0-1-.1-1.9-.2-2.9-.4-.1,0-.2,0-.3,0,0,0,0,0-.1,0,.4,3.5,1,7.3,2,11.4,2.2.3,4.3.6,6.3.9-.5-2.9-.9-5.8-1.2-8.5,0,0,0-.2,0-.2ZM485.6,466.9s0,0,0,0c0-.4,0-.9,0-1.3-.8-.2-1.5-.3-2.3-.5-.7-.1-1.3-.3-2-.4-.1,2.4-.2,6.5.2,11.5,1.5.3,2.9.7,4.3,1-.4-3.6-.5-7.1-.3-10.3ZM415,460.7c-.3-.1-.6-.3-1-.4-.2,0-.4-.2-.6-.3-.3-.1-.5-.2-.8-.3-.3-.1-.6-.2-.9-.4-.2,0-.4-.2-.6-.3-.5-.2-1-.4-1.5-.6-.7,0-1.4,0-2.1.1-.1,0-.3,0-.4,0-2.1.1-4.2.3-6.3.5,7.2,2.6,13.6,6,19.2,9.8,3.2,0,6.3.2,9.4.3-4.4-3.2-9.2-6.1-14.4-8.5,0,0,0,0,0,0ZM348.4,470.5c-.3.1-.7.2-1,.3-.2,0-.5.2-.7.2-.2,0-.3.1-.5.2-.4.1-.7.2-1.1.4,0,0,0,0,0,0-1.2.4-2.3.8-3.4,1.2-1.5,3.5-4.2,6.7-7.5,9.6,3.1-1.1,6.4-2.1,9.8-3.1,2.7-3,5.1-6.3,7.3-9.7-1,.3-1.9.6-2.8.9,0,0-.2,0-.3,0Z"/>
      <path class="st2" d="M351.3,337.2s1.6,5.5.4,11.4c0,0,1.7-4.3,1.7-10.4,17.1-8.7,42-13.5,56.5-14.3-14.6,0-39.3,4-58.6,13.2Z"/>
      <path class="st2" d="M521.2,442c.8.5,1.7,1,2.4,1.5,1-18.9-2.1-44.2-14.3-66.1,13.4,26.8,12.2,58.8,11.9,64.7Z"/>
      <path class="st2" d="M308.6,424.2c2.5-.9,5.2-1.8,8.1-2.7,3-22.8,18.3-50.3,51.6-70.7-35.6,18.8-54.4,52.8-59.7,73.4Z"/>
      <path class="st13" d="M386.3,428.4c-17.7-14.3-18.6-35.9-15.8-45.5.3-2.4.7-4.8,1.3-7-1.9,2.1-5,6.5-6,13.4-.1,12.3,5.2,29.3,20.4,39.1Z"/>
      <path class="st28" d="M440,598.2c-17.2,10-24.5,20.1-24.5,20.1,0,0,5-10.6,12.1-18.5-3.8,3.3-9,8.3-13.2,12.5-4.2,5.3-8.4,11.2-12,17.4-1.9,5.5-3.4,11.8-4.4,18.2,2.7-11.5,11.5-21.1,11.5-21.1,0,0-7.6,15.6-8.2,25.4,1.8-8.9,8.1-17.7,8.1-17.7,0,0-4.4,8.2-4.2,20.8,1.6-19.7,17.7-43.7,34.9-57.1Z"/>
      <g>
        <path class="st28" d="M451.2,577.7c.9-18.6-12.9-27.9-23.4-33.6-9.1-5-15.3-14.7-15.8-24,2.9,10.5,8.1,14.8,16.2,17.5-5.6-4.6-7.6-9.3-7.6-9.3,0,0,10.6-17.8,5.6-36,5.3,13.4,1.7,29.8,1.7,29.8,5.4-13.7,4.9-22.6,4.9-22.6,0,0,2.3,16.7-1.4,29.2,5.7-9.2,6.6-25.9,4.2-34.5,8.4,19.5,21.9,25.4,26.4,45.5-3.4-9.8-11.9-17.2-11.9-17.2,6.4,9.3,17.2,31.2,13.6,50.3.1-21.1-15.3-38.7-15.3-38.7,0,0,6,10.1,9,21-5.7-9.9-15.4-17.7-15.4-17.7,0,0,10,10.6,14.4,23.9-7-11.3-13.8-14.8-13.8-14.8,8,7,12.1,19.6,8.5,31.1Z"/>
        <path class="st28" d="M469.6,509.4s14.9,20.7,35.2,28.7c-13.2-3-20.4-7.4-20.4-7.4,0,0,1.9,12.7,10.4,26.9-7.5-7.6-15.2-22.6-15.2-22.6,0,0,1.9,7.6,4.5,14.7-7.4-9.8-9.1-28.3-9.1-28.3,0,0-2.8-5.1-5.4-12.1Z"/>
        <path class="st28" d="M521.8,501.5c1.8,4.1,9.9,21.8,36.1,24.5-13.2.8-21.9-3.9-21.9-3.9,0,0,8.5,8.9,26.3,7.3-15.4,3.1-23.6-1.1-23.6-1.1,0,0,3.8,3.6,7.2,5.3-9.2-1.7-19.1-9.1-25.6-17.6,4.4,3.4,9.1,5.5,9.1,5.5,0,0-5.6-8.6-7.5-19.9Z"/>
        <path class="st28" d="M382.7,585.9c-.4-19.8-7.9-32.2-19-38.5,5.3,1.9,9.2,5.1,11.8,7.6-7.9-10.8-19.3-15.4-32.1-15.4s-17.3,1.8-24.2,4.1c6.7-.9,11.4-.9,14.4-.7-14.9,1.7-22.5,6.9-22.5,6.9,0,0,15.6-6.9,35.3-4.2-20.7.3-29.3,5.4-29.3,5.4,0,0,6.2-2.2,14-1.8-8.8,2.4-12.3,5.6-12.3,5.6,10-3.8,28.2-5.7,39.4.8-8.6-7.7-22.8-6.7-22.8-6.7,16.9-2.8,31.3,6.1,38.2,19.3-3.3-13-16.1-19.8-16.1-19.8,14.8,6.1,22.3,17.1,25,37.4Z"/>
      </g>
    </g>
  </g>
  <g id="Text">
    <g>
      <g>
        <path class="st10" d="M39.8,103.2c0-1.3.5-3,1.5-5.1,1-2.1,2.3-4.2,3.8-6.3,1.5-2.1,3.1-3.9,4.8-5.5,1.7-1.6,3.2-2.6,4.6-3,22.7-7.1,45.5-13.5,68.5-19.3v49.5c-11.6,2.9-23.2,6-34.8,9.3v-17.1c-4.6,1.3-9.2,2.6-13.8,4v70.2c4.6-1.3,9.2-2.7,13.8-4v-17.1c11.6-3.3,23.2-6.4,34.8-9.3v49.5c-23,5.8-45.8,12.2-68.5,19.3-1.4.4-2.9.4-4.6-.2-1.7-.6-3.2-1.4-4.8-2.5-1.5-1.1-2.8-2.4-3.8-3.8-1-1.4-1.5-2.8-1.5-4.1v-104.3Z"/>
        <path class="st10" d="M143.8,166.5c.6-1,1.7-2.2,3.3-3.7,1.5-1.5,2.6-2.4,3.1-2.8.5-1.3.9-2.6,1.2-3.7,5.2-31.9,10.5-63.9,15.7-95.7.1-.6.4-1.6.8-3,.4-1.4.7-2.3,1-2.6.1-.3.4-.7.9-1.2.2-.2.5-.5.7-.7,18.1-3.8,36.2-7.2,54.4-10.3.2.2.5.3.7.5.5.3.7.6.9.9.3.2.6,1,1,2.3.4,1.3.7,2.2.8,2.7,5.3,29.9,10.6,59.8,15.8,89.8.3,1,.7,2.1,1.2,3.2.5.2,1.6.7,3.1,1.6,1.6.9,2.7,1.7,3.3,2.4,0,9.1,0,18.2,0,27.3-12.8,1.9-25.6,3.9-38.3,6.1-1.3-9-2.6-18-3.9-27.1,0-.3-.4-.5-1.2-.7-.8-.2-1.4-.3-2-.4-5.8,1.1-11.6,2.1-17.3,3.3-.5.2-1.2.6-1.9,1.1-.8.5-1.2.9-1.2,1.1-1.3,9.5-2.6,19-3.9,28.5-12.7,2.6-25.4,5.3-38,8.3v-27.3ZM204.4,121.3c-2.1-13.4-4.3-26.8-6.4-40.2-.3,0-.6.1-1,.2-2.2,14.2-4.4,28.4-6.6,42.7,4.7-.9,9.3-1.8,14-2.6Z"/>
        <path class="st10" d="M327.5,113.6c-13.3,1.1-26.5,2.4-39.7,4-1.4.2-3-.2-4.7-1.1-1.7-.9-3.3-2-4.9-3.4-1.6-1.4-2.9-2.9-3.9-4.5-1-1.6-1.6-3.1-1.6-4.4v-53.1c0-1.3.5-2.9,1.6-4.8,1-1.9,2.4-3.7,3.9-5.5,1.6-1.8,3.2-3.3,4.9-4.6,1.7-1.3,3.3-2,4.7-2.2,25.1-2.9,50.2-5,75.4-6.4v41.4c-11.9.7-23.8,1.5-35.7,2.5,0-3,0-6,0-9-6.4.5-12.9,1.1-19.3,1.8v19.1c13.2-1.3,26.5-2.4,39.8-3.3,1.3,0,2.9.3,4.6,1.3,1.8,1,3.5,2.2,5,3.7,1.6,1.5,2.9,3.1,3.9,4.8,1.1,1.7,1.6,3.2,1.6,4.5v52.9c0,1.3-.5,2.9-1.6,4.7-1.1,1.8-2.4,3.6-3.9,5.3-1.6,1.7-3.3,3.1-5,4.3-1.8,1.2-3.3,1.8-4.6,1.9-25.2,1.7-50.3,4.1-75.3,7.3v-41.4c11.8-1.5,23.7-2.9,35.6-4v9c6.4-.6,12.9-1.2,19.3-1.8,0-6.3,0-12.6,0-18.9Z"/>
        <path class="st10" d="M384.5,41.7c0-1.3.5-2.9,1.6-4.7,1.1-1.8,2.4-3.5,3.9-5.2,1.6-1.7,3.2-3.1,4.9-4.2,1.7-1.1,3.3-1.7,4.7-1.7,23.5-.6,47-.6,70.5,0v49.5c-11.9-.3-23.8-.5-35.7-.5,0-5.7,0-11.4,0-17.1-4.7,0-9.5,0-14.2,0v70.2c4.7,0,9.5,0,14.2,0,0-5.7,0-11.4,0-17.1,11.9,0,23.8.2,35.7.5v49.5c-23.5-.7-47-.7-70.5,0-1.4,0-3-.5-4.7-1.5-1.7-1-3.4-2.3-4.9-3.9-1.6-1.6-2.9-3.2-3.9-4.9-1.1-1.7-1.6-3.2-1.6-4.6V41.7Z"/>
        <path class="st10" d="M491.5,134.3c.7-.8,1.8-1.7,3.4-2.8,1.6-1.1,2.6-1.7,3.2-2,.5-1.2.9-2.3,1.2-3.4,5.3-30.5,10.6-60.9,16-91.4.1-.5.4-1.4.8-2.8.4-1.3.7-2.1,1-2.3.1-.3.4-.6.9-.9.2-.2.5-.4.7-.6,18.3,1.2,36.6,2.8,54.9,4.8.2.2.5.5.7.7.5.5.8.8.9,1.1.3.3.6,1.1,1,2.5.4,1.4.7,2.4.8,2.9,5.3,31.4,10.6,62.7,15.9,94.2.3,1.1.7,2.3,1.2,3.6.5.3,1.6,1.2,3.1,2.5,1.6,1.3,2.7,2.5,3.3,3.3v27.3c-12.8-1.7-25.7-3.2-38.5-4.5-1.3-9.4-2.6-18.8-3.9-28.1,0-.3-.4-.6-1.2-1-.8-.4-1.4-.7-2-.9-5.8-.6-11.7-1.1-17.5-1.5-.5,0-1.2.3-2,.5-.8.3-1.2.5-1.2.8-1.3,9.1-2.6,18.3-3.9,27.4-12.9-1-25.8-1.7-38.6-2.3v-27.3ZM553,106c-2.2-14-4.3-28-6.5-42-.3,0-.7,0-1,0-2.2,13.6-4.5,27.2-6.7,40.8,4.7.4,9.5.8,14.2,1.2Z"/>
        <path class="st10" d="M717.8,177c0,1.3-.5,2.8-1.5,4.3-1,1.5-2.3,2.9-3.9,4.2-1.6,1.3-3.2,2.2-4.9,2.9-1.7.7-3.3.9-4.6.6-27-5.8-54.1-10.7-81.3-14.8v-27.3c.7-.7,1.8-1.5,3.4-2.4,1.6-.9,2.7-1.4,3.2-1.6v-70.2c-.7-.4-1.8-1.2-3.3-2.5-1.6-1.3-2.7-2.5-3.3-3.5v-27.3c27.2,4,54.3,9,81.3,14.8,1.3.3,2.8,1.1,4.6,2.6,1.7,1.5,3.4,3.2,4.9,5.1,1.6,2,2.8,3.9,3.9,5.9,1,2,1.5,3.6,1.5,5v104.3ZM663.5,148.8c6.4,1.2,12.7,2.4,19.1,3.6v-70.2c-6.4-1.3-12.7-2.5-19.1-3.6v70.2Z"/>
        <path class="st10" d="M793.8,179.8v-9c11.5,3.4,23.1,7,34.5,10.7v41.4c-29.7-9.6-59.6-18.2-89.7-25.6v-27.3c.6-.6,1.8-1.3,3.4-2.1,1.6-.7,2.7-1.2,3.2-1.3v-70.2c-.6-.4-1.7-1.4-3.3-2.8-1.5-1.5-2.6-2.7-3.3-3.8v-27.3c30.1,7.4,60,15.9,89.7,25.6v41.4c-11.5-3.7-23-7.3-34.5-10.7v-9c-4.6-1.3-9.2-2.7-13.8-4v18.9c11.2,3.2,22.3,6.5,33.5,9.9v32.2c-11.1-3.5-22.3-6.8-33.5-9.9v19.1c4.6,1.3,9.2,2.6,13.8,4Z"/>
      </g>
      <g>
        <path class="st23" d="M39.8,103.2c0-1.3.5-3,1.5-5.1,1-2.1,2.3-4.2,3.8-6.3,1.5-2.1,3.1-3.9,4.8-5.5,1.7-1.6,3.2-2.6,4.6-3,22.7-7.1,45.5-13.5,68.5-19.3v49.5c-11.6,2.9-23.2,6-34.8,9.3v-17.1c-4.6,1.3-9.2,2.6-13.8,4v70.2c4.6-1.3,9.2-2.7,13.8-4v-17.1c11.6-3.3,23.2-6.4,34.8-9.3v49.5c-23,5.8-45.8,12.2-68.5,19.3-1.4.4-2.9.4-4.6-.2-1.7-.6-3.2-1.4-4.8-2.5-1.5-1.1-2.8-2.4-3.8-3.8-1-1.4-1.5-2.8-1.5-4.1v-104.3Z"/>
        <path class="st23" d="M143.8,166.5c.6-1,1.7-2.2,3.3-3.7,1.5-1.5,2.6-2.4,3.1-2.8.5-1.3.9-2.6,1.2-3.7,5.2-31.9,10.5-63.9,15.7-95.7.1-.6.4-1.6.8-3,.4-1.4.7-2.3,1-2.6.1-.3.4-.7.9-1.2.2-.2.5-.5.7-.7,18.1-3.8,36.2-7.2,54.4-10.3.2.2.5.3.7.5.5.3.7.6.9.9.3.2.6,1,1,2.3.4,1.3.7,2.2.8,2.7,5.3,29.9,10.6,59.8,15.8,89.8.3,1,.7,2.1,1.2,3.2.5.2,1.6.7,3.1,1.6,1.6.9,2.7,1.7,3.3,2.4,0,9.1,0,18.2,0,27.3-12.8,1.9-25.6,3.9-38.3,6.1-1.3-9-2.6-18-3.9-27.1,0-.3-.4-.5-1.2-.7-.8-.2-1.4-.3-2-.4-5.8,1.1-11.6,2.1-17.3,3.3-.5.2-1.2.6-1.9,1.1-.8.5-1.2.9-1.2,1.1-1.3,9.5-2.6,19-3.9,28.5-12.7,2.6-25.4,5.3-38,8.3v-27.3ZM204.4,121.3c-2.1-13.4-4.3-26.8-6.4-40.2-.3,0-.6.1-1,.2-2.2,14.2-4.4,28.4-6.6,42.7,4.7-.9,9.3-1.8,14-2.6Z"/>
        <path class="st23" d="M327.5,113.6c-13.3,1.1-26.5,2.4-39.7,4-1.4.2-3-.2-4.7-1.1-1.7-.9-3.3-2-4.9-3.4-1.6-1.4-2.9-2.9-3.9-4.5-1-1.6-1.6-3.1-1.6-4.4v-53.1c0-1.3.5-2.9,1.6-4.8,1-1.9,2.4-3.7,3.9-5.5,1.6-1.8,3.2-3.3,4.9-4.6,1.7-1.3,3.3-2,4.7-2.2,25.1-2.9,50.2-5,75.4-6.4v41.4c-11.9.7-23.8,1.5-35.7,2.5,0-3,0-6,0-9-6.4.5-12.9,1.1-19.3,1.8v19.1c13.2-1.3,26.5-2.4,39.8-3.3,1.3,0,2.9.3,4.6,1.3,1.8,1,3.5,2.2,5,3.7,1.6,1.5,2.9,3.1,3.9,4.8,1.1,1.7,1.6,3.2,1.6,4.5v52.9c0,1.3-.5,2.9-1.6,4.7-1.1,1.8-2.4,3.6-3.9,5.3-1.6,1.7-3.3,3.1-5,4.3-1.8,1.2-3.3,1.8-4.6,1.9-25.2,1.7-50.3,4.1-75.3,7.3v-41.4c11.8-1.5,23.7-2.9,35.6-4v9c6.4-.6,12.9-1.2,19.3-1.8,0-6.3,0-12.6,0-18.9Z"/>
        <path class="st23" d="M384.5,41.7c0-1.3.5-2.9,1.6-4.7,1.1-1.8,2.4-3.5,3.9-5.2,1.6-1.7,3.2-3.1,4.9-4.2,1.7-1.1,3.3-1.7,4.7-1.7,23.5-.6,47-.6,70.5,0v49.5c-11.9-.3-23.8-.5-35.7-.5,0-5.7,0-11.4,0-17.1-4.7,0-9.5,0-14.2,0v70.2c4.7,0,9.5,0,14.2,0,0-5.7,0-11.4,0-17.1,11.9,0,23.8.2,35.7.5v49.5c-23.5-.7-47-.7-70.5,0-1.4,0-3-.5-4.7-1.5-1.7-1-3.4-2.3-4.9-3.9-1.6-1.6-2.9-3.2-3.9-4.9-1.1-1.7-1.6-3.2-1.6-4.6V41.7Z"/>
        <path class="st23" d="M491.5,134.3c.7-.8,1.8-1.7,3.4-2.8,1.6-1.1,2.6-1.7,3.2-2,.5-1.2.9-2.3,1.2-3.4,5.3-30.5,10.6-60.9,16-91.4.1-.5.4-1.4.8-2.8.4-1.3.7-2.1,1-2.3.1-.3.4-.6.9-.9.2-.2.5-.4.7-.6,18.3,1.2,36.6,2.8,54.9,4.8.2.2.5.5.7.7.5.5.8.8.9,1.1.3.3.6,1.1,1,2.5.4,1.4.7,2.4.8,2.9,5.3,31.4,10.6,62.7,15.9,94.2.3,1.1.7,2.3,1.2,3.6.5.3,1.6,1.2,3.1,2.5,1.6,1.3,2.7,2.5,3.3,3.3v27.3c-12.8-1.7-25.7-3.2-38.5-4.5-1.3-9.4-2.6-18.8-3.9-28.1,0-.3-.4-.6-1.2-1-.8-.4-1.4-.7-2-.9-5.8-.6-11.7-1.1-17.5-1.5-.5,0-1.2.3-2,.5-.8.3-1.2.5-1.2.8-1.3,9.1-2.6,18.3-3.9,27.4-12.9-1-25.8-1.7-38.6-2.3v-27.3ZM553,106c-2.2-14-4.3-28-6.5-42-.3,0-.7,0-1,0-2.2,13.6-4.5,27.2-6.7,40.8,4.7.4,9.5.8,14.2,1.2Z"/>
        <path class="st23" d="M717.8,177c0,1.3-.5,2.8-1.5,4.3-1,1.5-2.3,2.9-3.9,4.2-1.6,1.3-3.2,2.2-4.9,2.9-1.7.7-3.3.9-4.6.6-27-5.8-54.1-10.7-81.3-14.8v-27.3c.7-.7,1.8-1.5,3.4-2.4,1.6-.9,2.7-1.4,3.2-1.6v-70.2c-.7-.4-1.8-1.2-3.3-2.5-1.6-1.3-2.7-2.5-3.3-3.5v-27.3c27.2,4,54.3,9,81.3,14.8,1.3.3,2.8,1.1,4.6,2.6,1.7,1.5,3.4,3.2,4.9,5.1,1.6,2,2.8,3.9,3.9,5.9,1,2,1.5,3.6,1.5,5v104.3ZM663.5,148.8c6.4,1.2,12.7,2.4,19.1,3.6v-70.2c-6.4-1.3-12.7-2.5-19.1-3.6v70.2Z"/>
        <path class="st23" d="M793.8,179.8v-9c11.5,3.4,23.1,7,34.5,10.7v41.4c-29.7-9.6-59.6-18.2-89.7-25.6v-27.3c.6-.6,1.8-1.3,3.4-2.1,1.6-.7,2.7-1.2,3.2-1.3v-70.2c-.6-.4-1.7-1.4-3.3-2.8-1.5-1.5-2.6-2.7-3.3-3.8v-27.3c30.1,7.4,60,15.9,89.7,25.6v41.4c-11.5-3.7-23-7.3-34.5-10.7v-9c-4.6-1.3-9.2-2.7-13.8-4v18.9c11.2,3.2,22.3,6.5,33.5,9.9v32.2c-11.1-3.5-22.3-6.8-33.5-9.9v19.1c4.6,1.3,9.2,2.6,13.8,4Z"/>
      </g>
    </g>
    <g>
      <text class="st8" transform="translate(71.5 824.6) scale(1.1 1)"><tspan x="0" y="0">WRESTLING</tspan></text>
      <text class="st9" transform="translate(71.5 824.6) scale(1.1 1)"><tspan x="0" y="0">WRESTLING</tspan></text>
    </g>
  </g>
</svg>